<?xml version="1.0" encoding="utf-8"?>
<!-- Generator: Adobe Illustrator 17.0.0, SVG Export Plug-In . SVG Version: 6.00 Build 0)  -->
<!DOCTYPE svg PUBLIC "-//W3C//DTD SVG 1.1//EN" "http://www.w3.org/Graphics/SVG/1.1/DTD/svg11.dtd">
<svg version="1.1"
	 id="Calque_1" xmlns:cc="http://creativecommons.org/ns#" xmlns:dc="http://purl.org/dc/elements/1.1/" xmlns:rdf="http://www.w3.org/1999/02/22-rdf-syntax-ns#"
	 xmlns="http://www.w3.org/2000/svg" xmlns:xlink="http://www.w3.org/1999/xlink" x="0px" y="0px" width="14400px" height="2800px"
	 viewBox="-4027.1 -757.45 14400 2800" enable-background="new -4027.1 -757.45 14400 2800" xml:space="preserve">
<g transform="matrix(.1 0 0 -.1 -734.22 4856.6)">
	<path d="M42586.301,48565.949c-100.844,0-171.082-0.508-186.078-1.508c-30-2-689.004-19.996-1464.973-38.992
		c-4410-110.004-5840.027-145.996-6189.977-154.996c-314.004-9-3858.977-97.012-9785.25-245.012c-333-8-866.025-22-1185-30
		c-318.998-8-1032.002-25.988-1584.977-39.988c-971.023-24-2295-57.012-7383-185.012c-1319.024-33-2402.024-58-2405.999-56
		c-4,3-52.007-0.996-107.01-8.992c-1782.975-255-3315.975-1302.004-4209-2874.977c-687-1209-908.025-2643-618.998-4014.977
		c309-1470.973,1184.025-2766,2433.975-3602.023c681.997-456,1404-742.996,2250-893.023c111.997-20.004,148.005-20.996,1548-19.996
		c965.025,0,1431.976-3.008,1431.976-10.004c0-7,315-10.008,960-10.008c633.001,0,960.001,3.008,960.001,10.008
		c0,6.996,147.996,10.004,424.994,10.004s424.996-3.008,424.996-10.004c0-7,168.006-10.008,485.01-10.008
		c317.002,0,484.994,3.008,484.994,10.008c0,6.996,306.998,10.004,900,10.004c674.002,0,900-3.012,900-12.012
		c0-8,313.994-9.992,1272.975-5.992c699.998,4,1467.002,4,1704.977,0l432-4.996v-307.004h-2.65c-0.158-0.57-0.309-1.195-0.459-1.73
		c2.158-1.508,2.482-2.613-0.834-2.945c0.082,0.363,0.156,0.77,0.232,1.145c-0.826-1.293-0.936-0.891,0.135,2.035
		c-0.689,0.457-1.605,0.961-2.504,1.465h-0.996c0-0.309,0.104-0.574,0.104-0.98c0.994-1.473,1.771-2.73,2.242-3.734
		c0.246,0,0.555-0.008,0.775,0.074c-0.09-0.418-0.262-0.801-0.367-1.203c0.486-1.461,0.621-2.91,0.584-5.301
		c0-2.371-0.004-0.926-0.188-3.766c-0.074-0.547,0.09,0.992,0.143,1.641c0-1.363,0.129-2.613,0.166-4c0-0.563,0-2.414,0.074-3.691
		c0.824-1.906,1.561-3.844,2.037-5.859c0.307-1.297-0.775-2.559-1.158-3.836c-0.262-0.52-0.457-1.086-0.791-1.555
		c3.182-1.266,0.188-3.355-3.646-5.156c0.088,0.18,0.148,0.371,0.232,0.543c-0.248-0.301-0.525-0.555-0.807-0.82
		c0.203,0.09,0.309,0.156,0.512,0.246c-0.113-0.234-0.195-0.473-0.309-0.707c-0.344-0.668-0.758-1.352-1.172-1.977
		c-0.436-1.68-0.518-2.246-0.775-3.426c1.451-3.707,1.91-5.227-0.137-10.168c-0.539-1.336-0.795-1.957-1.068-2.371
		c0.389-4.828,0.51-9.102-0.836-1.246c-0.367-0.621-0.734-1.246-1.098-1.875v-1.816c0-0.203-0.076-0.383-0.076-0.586l0.137-0.184
		c0.111-0.105,0.396-0.332,0.479-0.43c-0.186,0.379-0.359,0.762-0.525,1.145c0.129-0.195,0.279-0.406,0.369-0.629
		c0.09-0.25,0.104-0.344,0.172-0.512c0,0-0.002-0.074,0.074-0.105c1.342-1.301,1.619-2.395,1.436-3.852
		c2.262-2.641,3.363-5.973,3.297-9.477c0.193-0.391,0.307-0.723,0.967-2.508c-0.195,0.398-0.744,1.613-0.584,1.203
		c0.963-2.488,1.709-3.637,1.934-5.082c0.859-1.809,0.76-2.914,1.83-6.301c-0.111,0.277-0.096,0.262,0-0.262
		c0.082-0.57,0.211-1.125,0.248-1.699c0.246-3.613-0.203-6.953-1.686-10.297c-0.314-0.609-0.996-2.496-0.938-1.816
		c-0.225-0.668-0.443-1.332-0.805-1.934c-0.398-0.66-0.916-1.219-1.451-1.773c-0.074-0.637-0.246-1.215-0.383-1.816
		c1.096-1.066,2.107-2.746,2.871-4.07c1.428-3.715,1.711-3.508,1.729-7.809c0-0.691-0.164-1.359-0.293-2.035
		c0.287-3.574,0.076-6.84-1.098-10.227l0.074-0.074c0.082,0.48,0.18,1.09,0.248,0.836c0.098-0.344,0-0.715,0-1.07
		c1.432-1.41,1.738-2.535,2.65-5.816c0.076-0.465,0.129-1.133,0.15-1.406c0.195-0.695,0.314-0.98,0.555-1.902
		c0.563-2.168,0.188-5.719,0.121-7.984c-0.211-7.164-0.18-14.332,0.188-21.488c0.074-0.93,0.096-1.859,0.164-2.785
		c0.195-0.398,0.225-0.516,0.383-0.879v-0.465c0.076,0.074,0.164,0.156,0.164,0.234c1.127-2.598,1.549-4.258,1.129-1.715
		c0.135-0.879,0.262-1.758,0.396-2.637c0.09-0.219,0.174-0.438,0.262-0.66c-0.074,0.074-0.074,0.113-0.104,0.145
		c0.074-0.27,0.074-0.547,0.121-0.82c0.074-0.18,0.074,0.32,0,0.566c0.996-2.383,1.904-4.828,2.988-7.16
		c-4.02-11.109,2.391,6.586-1.787-5.391c0.074-0.652,0.172-1.293,0.158-2.477c-0.076-1.594-0.137-3.195-0.137-4.789v-1.188
		c0-5.234-1.229-9.242-3.061-12.16v-46.859c0-74,0.998-79.988,22.998-84.988c12-3,10523.998-6,23360.248-8l23337-2.066v6403.051
		c0,4261.051-3.008,6402-10.008,6402c-5,0-9.992,8.996-9.992,19.996c0,20-10,19.996-13661.25,19.996
		c-7514.246,0-13887,1.996-14162.996,3.996c-137.492,1-268.973,1.512-369.844,1.512L42586.301,48565.949z M42408.188,48509.449
		c17,0,31.992-3.008,31.992-9.008c0-7,4719.004-9.988,14138.254-9.988H70717.43l5.992-3186.977c4-1754.023,7-4616.023,7-6362.023
		v-1847.25c2.695-6.453,2.172-12.289,0-17.77v-1308.977l-9066.746,5.992c-4928.102,3.953-15202.5,6.902-22995.754,6.973
		c0.074-0.336-0.082-0.137-0.133,0c-94.621,0-205.539,0-299.414,0H24140.123v96.375c-0.512,0.805-1.02,1.613-1.48,2.609
		c-0.344,0.734-0.65,1.539-0.762,2.344c-0.943,2.652-0.615,5.375-0.6,8.113c-1.332,2.379-2.063,5.117-2.652,7.777
		c-0.299,1.344,0.383,2.723,0.645,4.074c0,0.285-0.074,0.578-0.074,0.863c-0.076,0.883,0,1.77,0,2.652c0.074,1.898,0,3.801,0,5.699
		v3.5c0,0.238-0.076,0.488,0,0.719c0.563,2.16,1.229,4.285,1.846,6.43c-0.721-0.246,0,0.594,1.068,1.699
		c-0.209,1.211,0.48,2.449,0.807,3.68c-1.193-1.852-2.834-1.535,1.654,3.836c0,0.684-0.004,1.273,0,2.652
		c0.113,4.672,1.188,8.355,2.799,11.133c-0.42,2.809,0.111,5.461,2.402,9.977c0.203,0.395,0.607,1.027,0.996,1.582v5.227
		c0,2.16-0.129,4.379,0.074,6.535c0,0.074,0.09-0.074,0.09-0.105c0.098-0.5,0.195-1.004,0.293-1.508
		c-0.607,2.836-0.711,5.719-0.443,8.582c-0.143,0.188-0.322,0.332-0.457,0.527c-1.557,2.441-1.557,5.996-1.656,8.863
		c0.137,2.117,0.09,1.82,0.412,3.852c0.076,0.344,0.098,1.375,0.203,1.039c0.129-0.398,0.137-0.512,0.248-0.879
		c-0.104,0.52-0.172,0.734-0.277,1.305c-0.098,0.539,0.203,1.082,0.307,1.625c1.193,4.926,2.275,11.43,5.143,15.383v0.102
		c-0.166,1.32-0.211,2.625-0.264,3.926c-1.143,2.516-1.689,5.344-1.494,7.969c0,1.648-0.615,2.863-0.352,4.777
		c0.5,3.629,1.207,5.008,2.813,7.266c1.129,2.121,1.898,3.09,3.09,4.219c0.486,1.891,1.277,3.629,2.184,5.316
		c-0.67,0.555-1.363,1.086-1.891,1.773c-4.398,5.723-4.645,12.738-1.729,18.777c-0.652,1.207-1.17,2.285-1.084,2.742
		c-0.111,0.582-0.232,1.16-0.354,1.742c-1.164,0.984-2.25,1.91-3.734,3.121c-2.332,1.895-1.613-4.836-2.008-8.543
		c0.002,0,0-0.074,0-0.074c0-0.367-0.225-1.473-0.143-1.113c0.074,0.301,0.104,0.805,0.129,1.188
		c-0.24,3.695-0.713,7.105-1.217,10.648h-4.555v297.879c-0.93,0.586-1.619,1.84-1.861,4.246c-0.314,3.105-0.098,5.039,1.523,7.852
		c0.293,0.34,0.248,0.348,0.457,0.602c0.076,0.504,0.113,0.996,0.248,1.48c0.254,0.906,0.713,1.746,1.172,2.578
		c-0.074,0.93-0.143,1.859,0,2.824c0,0.258-0.074,0.555,0.164,0.762c0.09,0.129,0.09-0.32,0.121-0.465
		c0.488-1.172,1.957-4.699,1.539-3.5c-1.543,4.434-2.16,4.809-1.686,5.832c-0.156,0.188-0.322,0.336-0.457,0.539
		c-1.439,0.965-2.377,1.93-2.842,2.973c-0.143,0.09-0.219,0.121-0.383,0.219c-0.676,0.801-1.387,1.57-2.021,2.402
		c-0.219,0.285-0.33,0.613-0.494,0.938c-0.322,0.621-0.525,1.145-0.791,1.699c-0.279-0.602-0.473-0.973-0.762-1.598
		c-4.842,10.547-7.516,14.504-8.775,14.34c-0.074-4.848,0.076-9.691,0.338-14.531c2.469-15.445,7.615-36.992,5.42-31.887
		c-1.898,4.41-2.586,9.273-3.428,14.004c-1.074,6.035-1.633,11.965-1.992,17.883c-1.262,7.898-1.787,14.336-0.338,14.531
		c0,2.121,0.166,4.289,0.232,6.418c-16.688,0.781-32.982,4.266-49.131,8.379c-0.705,0.082-0.963,0.109-1.611,0.188h-0.186
		c-1.492,0.375-2.992,0.734-4.482,1.125c-0.502,0.105,1.564-0.711,2.402-0.863c0.367-0.074,0.742-0.117,1.113-0.188
		c-16.047,1.832-15.566,1.441-37.588,8.145c-21.254,6.469-33.936,13.383-40.342,20.598c-15.217-2.324-28.371,2.113-42.803,2.004
		c-3.918-6.645-13.639-7.469-35.758-7.469c-15.355,0-24.998,0.48-30.131,3.633c-5.111-3.523-2.117-2.699-8.555-3.84
		c-0.992,0.074-1.984,0.09-2.975,0.137c-0.629,0.074-1.258,0.172-1.889,0.23c-1.678,0.172-3.414,0.188-5.055,0.629
		c-1.025,0.277-2.035,0.648-3.047,0.969c-1.254,0.602-1.898,0.969-2.607,1.406c-0.465-0.074-1.158-0.105-1.508-0.164
		c-0.082-0.805-4.465,0.555-5.771,0.734c0,0,0-0.074-0.076-0.074c-0.607-0.074-1.209-0.121-1.816-0.121h-1.23
		c-8.865-5.125-16.961-4.855-20.449,2.273c-0.074,0-0.203,0.105-0.262,0.148c-0.328-0.219-0.592-0.328-0.908-0.523
		c0.076,0,0.09-0.074,0.137-0.074c0-0.078,0.074-0.098,0-0.121c-0.098-0.074-0.309-0.172-0.459-0.172
		c-2.613-1.57-4.383-2.035-4.115-0.137c-0.076,0-0.137,0.004-0.188,0c-0.658-0.074-1.322-0.133-1.977-0.199
		c-0.797-0.078-1.594-0.078-2.389-0.145c-0.156-0.074-0.375-0.129-0.457-0.188c-2.311-1.008-4.811-1.32-7.281-0.777
		c-0.711,0.16-1.408,0.43-2.123,0.586c-0.533,0.121-1.082,0-1.627,0c-1.002,0-1.324,0-2.197-0.121c0.211,0,0.727,0.129,0.512,0.121
		c-4.586-0.203-1.158-0.238-4.059-0.188c-1.383,0.074-2.805,0-4.189,0h-2.9c-0.742-1.809-2.17-2.254-8.32-4.895
		c-1.182-0.508-2.48,0.641-3.75,0.852c-0.074,0,0.076-0.172,0-0.18c-0.457-0.074-0.887,0.09-1.348,0.09
		c-0.494,0-1.002-0.008-1.494,0c-1.813-0.121-3.621-0.18-5.434-0.18c-1.561,0.277-3.068,0.473-4.469,1.066
		c-0.787-0.434-1.641-0.66-2.533-0.66c-2.418,0-4.443,1.254-6.139,3.504c-1-0.168-2.023-0.227-3.076,0
		c-7.357,1.379-14.594,3.629-21.768,6.281c-7.777-2.867-23.045-4.793-44.926-6.164c5.08-2.238,10.482-4.605,13.9-6.184
		c6.869-3.172,15.191,1.715,22.662,0.465c2.939-0.473-5.623-1.93-8.496-2.711c-5.248-1.422-10.568-2.598-15.85-3.895
		c-29.738-2.906-18.748-3.574-48.121,0.164c-1.729,0.211-6.803,0.457-5.156,1.012c11.311,3.824,22.76,7.352,34.189,10.809
		c-22.211-1.168-50.688-1.844-87.201-2.109l-140.025-2.125v25.371c-9.834-3.398-19.803-6.859-30-9.828v-14.602h-840v11.688
		c-8.947-2.379-19.195-4.852-30-7.484v-4.176h-99.959c-64.002,0-87,0.457-95.287,6.883h-68.688c-3.355-7.93-8.129-7.934-11.807,0
		h-35.566c-1.803-4.348-8.541-5.398-20.654-3.879c-5.658,0.328-10.162,1.574-13.857,3.879h-87.645
		c-3.949-5.422-11.92-6.883-27.467-6.883c-5.207,0-9.309,0.418-12.891,1.023c-0.314-0.289-0.584-0.629-0.996-0.863
		c0.525-2.121-0.178-1.566-1.318-0.441c-1.484-0.496-3.291-0.742-5.58-0.324c-0.279,0.074-0.518,0.008-0.791,0
		c0.367-0.313,0.859-0.547,1.729-0.645c-3.002-0.195-5.938-0.809-8.936-1.055c-4.514-0.367-8.336-0.555-12.818,0.613
		c-0.104,0-0.164,0.09-0.262,0.121c-0.705-0.082-1.234-0.293-1.904-0.539c-1.293-0.555-1.963-0.52-3.691-0.691
		c-0.404-0.074-0.811,0.008-1.215-0.074c-0.27-0.074-0.518-0.172-0.777-0.262c-0.344-0.121-0.697-0.25-1.039-0.367
		c-2.033-0.668-3.346-0.922-5.494-0.496c-0.344,0.074-0.668,0.211-1.01,0.277c-0.105,0,0.375-0.074,0.277-0.137
		c-0.164-0.086-0.322-0.004-0.51,0c-0.098-0.082-0.188-0.191-0.309-0.23c-1.008-0.324-1.6-0.324-2.578-0.57
		c-0.074,0-0.143-0.074-0.217-0.074l0.568,0.336c0.076,0.074,0.172,0.164,0.121,0.137c-0.262-0.105-0.518-0.211-0.775-0.324
		c-0.076-0.074-0.113-0.074-0.18-0.105c-0.076,0-0.111,0.004-0.172-0.074c-1.111-0.512-2.207-1.086-3.385-1.406
		c-0.525-0.145-1.068,0.113-1.611,0.188c-0.668,0.082-1.363,0.105-2.035,0.105c-0.615-0.074-1.23-0.105-1.846-0.105
		c-0.24,0-0.525-0.074-0.762,0c-1.025,0.203-2.035,0.441-3.033,0.762c-0.225,0.074-0.449,0.074-0.658,0.18
		c-0.188-0.008-0.354-0.121-0.541-0.121c-1.012,0-2.02,0.129-3.031,0.121h-0.807c-0.172,0-0.307-0.074-0.457,0
		c-0.814,0.148-1.6,0.344-2.402,0.512c-0.27,0.188-1.875,0.941-3.033,1.582c-0.193,0.082-0.33,0.098-0.465,0.148
		c-1.537,0.34-1.904,0.324-3.705,0.414c-0.805,0.074-1.613,0.098-2.418,0.148c-0.719-1.426-3.545,0.078-4.643,1.219
		c-0.322,0.336-0.555,0.727-0.777,1.125c-0.83-0.074-1.561-0.164-2.445-0.164c-8.553,0-13.295,0.871-14.766,3.664
		c-0.316-0.098-0.57-0.211-0.924-0.309c-2.896-0.211-1.982-0.316-4.6-0.188c-0.51,0-1.129,0.488-1.523,0.188
		c-0.367-0.293,0.984-0.004,1.393-0.188c0.148-0.082-0.076-0.375-0.137-0.512c-0.818-0.531-1.707-0.922-2.563-1.391
		c-5.709,0.074-4.963-0.195-6.754,0.852c0.076-0.078,0.004-0.113-0.15-0.137c-0.891-0.23-1.82-0.32-2.725-0.496
		c-2.523-0.434-5.064-0.359-7.588,0c-1.559,0.227-2.797,0.699-3.838,1.289c-4.947-2.531-8.617-1.609-11.381,2.977
		c-0.951,0.289-1.902,0.559-2.842,0.891c-0.203,0.078-0.398,0.188-0.57,0.324c-1.115,0.867-1.824,1.445-2.328,2.227
		c-0.166,0.074-0.203,0.082-0.188,0.23c0,0,0.105,0.004,0.158,0.172c0,0-0.006,0.121,0,0.121c-0.219-0.074-0.465-0.141-0.691-0.148
		c-0.486,0-0.783-0.004-1.156,0.148c0.135,0.344,0.33,0.742,0.412,1.379c0.186,0.117,0.285,0.262,0.465,0.383
		c-1.764-0.758-2.506-1.152-3.092-1.379c0.66-0.23,1.443-0.414,2.184-0.426c-0.57-1.395-1.535-0.691-2.49,0.289
		c0.082,0,0.24,0.078,0.307,0.121c-0.217,0.074-0.518,0.098-0.762,0.203c0.113-0.121,0.211-0.242,0.322-0.352
		c-0.561-0.184-1.008-0.184-2.299-0.184c-1.92,0-3.854,0-5.771,0.184c-1.184-0.004-2.363,0.004-3.545-0.184
		c-16.436-5.719-66.41-9.375-143.467-9.375h-138.998v0.277c-0.135,0-0.254-0.102-0.396-0.117c-0.412-0.074-1.17-0.129-1.627-0.172
		c-0.143,0-0.396-0.098-0.465,0c-0.193,0.156-0.293,0.336-0.457,0.465c0-0.074-0.082-0.121-0.15-0.188
		c-0.172-0.098-0.33-0.121-0.465-0.203c-0.563-0.254-1.25-0.406-1.904-0.352c-0.959-0.09-1.922-0.145-2.887-0.105
		c-0.135,0-0.322-0.008-0.457,0.105h-0.232c-0.883,0.082-0.834,0.074-1.523,0.215c-0.338-0.27-1.309,0.184-1.979,0.469
		c0.098,0.074,0.076,0.102,0.137,0.148c-0.248-0.074-0.459-0.008-0.66,0c0.076-0.074,0.105-0.113,0.188-0.188
		c-0.426-0.227-0.652-0.285-0.584,0c0.104,0.004,0.217,0,0.322,0c-0.076,0-0.129,0.148-0.143,0.188h-0.15
		c-0.076-0.074-0.008-0.148-0.129-0.148c0,0.074-0.074,0,0,0.148c-0.314,0-0.742-0.121-1.127-0.105c-0.285,0.074-0.676,0-1.158,0
		c-0.354,0-0.615,0.105-0.967,0.148c-0.502,0.078-0.971,0.309-1.465,0.398c0.076-0.074,0.262,0,0.15-0.121
		c-0.615-0.102-1.252-0.086-1.875-0.086c-0.838,0-1.65,0.254-2.445,0.457c0.082,0,0.127-0.172,0.156-0.172
		c0.105,0-0.186,0.156-0.293,0.172c0.076,0,0.098-0.004,0.121,0c-0.121,0-0.156,0.105-0.262,0.148h-0.135
		c-0.645-0.125-1.146-0.18-1.773-0.148c-0.396,0-0.793,0-1.186,0c-0.934,0-1.869,0-2.799-0.172
		c-0.563,0.074-0.719,0.094-0.908,0.172c-0.135,0-0.336-0.121-0.479-0.121v-1.438h-101.004c-69.52,0-90.668,0.559-94.904,7.84
		c0-0.172,0-0.324-0.137-0.465c0-0.004-0.533,0-0.762,0c0.082-0.078,0.322-0.105,0.459-0.105c-0.691-0.074-1.354-0.008-2.008,0.105
		c-0.404-0.004-0.863,0-0.967,0h-5.17c-2.041-1.082-4.174-1.895-6.68-1.672c-1.02,0.09-1.961,0.563-2.959,0.777
		c-0.369,0.082,0.705-0.293,1.055-0.43c0.354-0.102,1.406-0.133,1.068-0.277c-0.734-0.313-1.594-0.164-2.387-0.246
		c-0.279,0-2.146-0.105-2.9-0.18c-0.986-0.32-1.955-0.676-2.975-0.848c-2.846-0.488-5.307-0.258-8.041,0.938
		c-0.076,0-0.084,0.105-0.15,0.148c-0.076,0-0.137,0.004-0.158-0.105c-1.066-0.59-1.764-1.309-2.959-1.758
		c-1.232-0.465-2.531-0.711-3.793-1.082c-1.387,0-2.541,0.074-3.678,0.117c-0.129-0.125-0.293-0.32-0.443-0.441
		c-3.002-2.441-4.994-1.418-7.852-1.188c-1.408-0.094-2.852-0.188-4.262-0.188c-1.195-0.074-2.377,0-3.574,0
		c-0.227-0.09-0.541-0.074-0.777-0.133c-1.092-0.129-2.193-0.539-3.295-0.465c-1.07,0-2.104,0.32-3.15,0.465
		c-1.736,0.375-2.977,0.914-4.219,1.656c-2.264-2.48-4.84-2.258-7.178,0.703c-0.457-0.711-0.871-0.742-1.26,1.215
		c-0.074,0-0.104,0-0.135,0c-2-0.074-1.16,0-3.033-0.117c-0.531,0-1.105-0.383-1.596-0.172c-0.203,0.082-0.525,0.113-0.752,0.188
		c-1.111-0.098-2.301-0.188-3.559-0.188c0,0-0.66-0.398-0.762-0.461c-0.24-0.477-0.615-0.879-2.066-2.223
		c-3.166-2.934-6.805-5.051-10.928-6.273c-0.156-0.074-0.322-0.102-0.457-0.172c0.66,0.391,1.475,0.816,1.217,0.762
		c-0.473-0.246-0.953-0.5-1.406-0.777c0,0-0.15-0.09-0.188-0.09h-0.121c-0.465-0.27-0.898-0.523-1.215-0.672
		c0.441,0.117,0.822,0.457,1.215,0.703c-0.443-0.09-0.889-0.18-1.332-0.277c-0.398-0.328-0.398-0.32-0.467-0.457
		c-2.334-0.555-4.555-0.57-6.84,0.148c-1,0.301-1.922,0.789-2.887,1.188c-0.518,0.277-0.969,0.652-1.465,0.953
		c-0.418,0-0.818,0.195-1.156,0.465c-0.857,0.637-1.459,1.168-2.154,1.758c-0.658-0.848-1.361-1.574-2.094-1.961
		c-1.906-1.004-3.004-1.316-4.131-1.496c-1.1-0.809-1.41-0.887-4.717-1.977c0.314,0,1.178,0.254,0.951,0
		c-0.41-0.406-1.068-0.555-1.611-0.762c-1.455-0.539-3.449-1.172-4.965-0.938c-1.605,0.246-3.049,1.223-4.645,1.539
		c-0.783,0.156,1.436-0.723,2.154-1.07c0,0,0.193-0.195,0.143-0.188c-2.295,0.465-4.271,0.871-5.99,2.594
		c-0.52,0.074-1.049,0.117-1.553,0.188c-1.023,0.203-1.99,0.637-3.004,0.863c0.338-0.496-0.074-0.254-1.318,0.164
		c-2.619,0-5.139,0.898-7.572,1.816c1.051-0.074,2.111,0.113,3.164,0.172c-3.072,1.078-6.049,2.5-9.215,3.254
		c-0.6,0.141,0.775-0.965,1.26-1.348c0.48-0.375,1.047-0.668,1.611-0.91c0.48-0.203,1.98-0.367,1.48-0.465
		c-0.676-0.188-1.387,0.137-2.08,0.203c-0.473,0.074-0.949,0.074-1.422,0.121c-2.092,0-2.15,0.367-4.98,0.773
		c-0.143,0,0.502-0.117,0.369-0.156c-0.346-0.105-0.713,0.152-1.07,0.156h-0.775c-1.297-0.164-2.637-0.164-3.941-0.156
		c-0.451,0-0.898-0.074-1.348,0c-1.008,0.121-2.004,0.316-3.002,0.457c-0.383,0.113-0.766,0.242-1.143,0.355
		c-1.135,0.41-2.289,0.773-3.385,1.289l-0.172,0.172c0.24,0.074,0.451,0.117,0.307,0.148h-0.457
		c-0.512,0.301-0.965,0.711-1.494,0.996c-0.426,0.234,0.764-0.48,1.113-0.906c-1.201,0-2.387-0.137-3.588-0.137
		c-0.691,0-1.377,0.074-2.066,0.137c-1.285,0.117-1.713,0.109-2.797,0.172c-0.227,0-0.33-0.137-0.467-0.168
		c-0.404-0.074-0.807-0.141-1.215-0.141h-3.018c-1.758-0.074-3.535,0.125-5.289,0c-0.322,0-0.658-0.145-0.98-0.172
		c-1.6-0.211-2.633-0.391-4.189-0.457c-2.811-0.113-5.625,0.223-8.438,0.188c-1.873-0.078-3.75-0.004-5.625,0h-1.246
		c-1.82-0.004-2.705,0.094-4.336,0.457c0-0.004-0.119,0-0.119,0c-0.076,0-0.145,0-0.158,0h-0.15
		c-0.18,0.074-0.211,0.098-0.465,0.172c0-0.074,0.15-0.098,0.15-0.172c-0.314,0-0.652-0.121-0.967-0.121h-3.662
		c-0.764,0.074-1.535,0-2.301,0c0.129-0.23-0.607-0.113-0.908-0.188c-1.646-0.352-1.359-0.32-3.252-0.457
		c-0.65,0.074-1.307,0.098-1.963,0.133c-1.383-0.277-2.816-0.563-4.512-0.762c-3.061-0.578-6.172-1.004-9.213-1.668
		c-1.578-0.348-3.254-1.91-4.688-1.172c-1.75,0.898-3.01,1.566-4.264,2.242c-11.871,0.207-21.891,1.574-27.084,3.938
		c-1.734-0.668-2.775-1.082-5.348-1.066c-1.424,0-2.211,0.254-3.178,0.465c-0.541,0-1.063,0-1.598-0.152
		c-0.629-0.074-1.275-0.094-1.904-0.172c-1.137-0.09-2.273-0.094-3.412-0.172c-2.639-0.164-2.855-0.164-5.348-0.164
		c-0.121,0.008,0,0-0.127,0c-0.27-0.125-0.623-0.336-0.777-0.457c-0.314-0.238-0.607-0.516-0.908-0.762
		c-1.916-1.238-3.408-2.285-5.508-3.207c-1-0.441-2.059-0.754-3.09-1.113c-1.256-0.438-2.496-0.941-3.779-1.289
		c-0.906-0.25-1.838-0.422-2.754-0.633c-4.732,0.316-3.85,0-6.445,0.969c0.156-0.172-0.525-0.129-0.762-0.129
		c-0.203,0-0.354-0.164-0.555-0.164c-2.01-0.277-5.285,0.121-7.164,0.938c-0.404,0.172-0.842,0.324-1.273,0.457
		c-0.18,0-0.322-0.004-0.459,0c-2.209-0.133-4.422-0.105-6.635-0.172h-8.555c-0.98-0.125-1.957-0.09-2.945-0.188
		c-3.113,0.367-1.15,0.18-3.281,0.465c-0.246,0.078,0.52-0.105,0.762-0.164c0.082,0,0.27-0.008,0.188-0.156
		c-0.383-0.098-0.791-0.004-1.188-0.188c-2.439-0.074-4.883,0-7.324,0c-1.879,0-3.693-0.098-5.551,0.465
		c-0.928,0.227-1.822,0.598-2.725,0.922c-0.232-0.09-0.512-0.188-0.762-0.188c-3.934,0.074-2.709,0-6.68,1.273l-0.459,0.465
		c-2.07-0.238-4.244-0.477-6.621-0.465c-7.051,0-11.707,0.617-14.941,3.414c-1.262,0.082-2.504,0.27-3.764,0.457
		c-0.465-0.074-1-0.082-1.289-0.117c-2.162-0.445-3.758-0.316-5.934-0.176c-1.436,0.129-2.916-0.23-4.35-0.148
		c-0.977,0.082-1.928,0.246-2.9,0.367c-2.727,0.691-2.494,0.148-6.416,1.598c-0.383,0.156-0.777,0.328-1.158,0.465
		c-0.074,0-0.186-0.004-0.156-0.152c0.127-0.082,0.615-0.199,0.465-0.172c-0.697,0.082-1.414,0.316-2.096,0.461
		c-0.65,0.172-1.289,0.328-1.934,0.457c-2.027,0.289-1.797,0.203-3.588,0.773c-0.143,0.078-0.33,0.105-0.465,0.176
		c-0.076-0.004-0.121,0-0.121,0c-0.705-0.078-1.416-0.129-2.125-0.176c-0.875,0-1.744-0.164-2.621-0.164
		c-1.041-0.113-1.826-0.098-2.623,0.164c-0.879-0.367-1.688-0.754-3.047-1.082c-1.717-0.422-3.633-0.113-5.391,0.172
		c-0.957,0.316-1.369,0.359-1.977,0.523c-2.902-0.098-5.803-0.156-8.717-0.188c-13.807-5.051-49.221-6.707-118.918-6.707H20700
		v0.777c-0.172-0.078-0.33,0.109-0.465,0.141c0.074,0.074,0.088,0.098,0.156,0.164c-0.172,0.074-0.33,0.121-0.465,0.164
		c0-0.09,0.143-0.102,0.164-0.164c-0.336,0.082-0.676,0.105-1.01,0.164c-0.254-0.156-0.512-0.352-0.762-0.465
		c-0.293,0.004-0.584,0.004-0.879,0l-0.09-0.117c-0.902-0.73-1.965-0.957-3.092-0.938c-0.576-0.27-1.141-0.543-1.816-0.465
		c-0.367,0-1.238,0.27-1.771,0.395c0,0.078-1.24,0.461-1.318,0.461c-0.383,0.188-0.689,0.465-1.07,0.66
		c-0.193,0.102,0.322-0.309,0.459-0.445c-0.896,0.277-1.115,0.473-1.494,0.738c0.322,0,0.391,0.41,0.457,0.938
		c-0.104,0-0.186-0.004-0.307-0.176c-0.512-0.387-0.857-0.652-1.832-0.832c-0.412-0.082-0.842-0.004-1.26,0
		c-0.254,0.074-0.486,0.082-0.75,0.156h-0.354c-0.225,0-0.48-0.082-0.705-0.156c-0.074-0.078-0.111-0.098-0.143-0.152
		c-0.443-0.262-0.836-0.434-1.23-0.457c-0.111-0.098-0.225-0.113-0.354-0.188c-0.854-0.539-2.273-0.676-3.252-0.457
		c0,0.004-0.121-0.004-0.121,0c-0.074-0.074-0.33-0.008-0.465,0c-0.105-0.004-0.211,0.004-0.309,0
		c-0.203-0.074-0.418-0.105-0.629-0.129c-0.721-0.125-0.631,0-0.457,0.129c-0.076-0.004-0.105,0-0.174,0
		c-0.104-0.074-0.209-0.105-0.322-0.129c-0.104,0.082-0.322,0.129-0.457,0.129v0.18c-0.705,0.121-1.344,0.426-1.918,0.762
		c0.127-0.098,0.322-0.145,0.457-0.246h-0.135c-0.52,0.18-1.084,0.313-1.598,0.508c0,0.105-0.143,0.203-0.172,0.309
		c-0.105-0.074-0.203-0.098-0.309-0.172c-0.217-0.074-0.426-0.004-0.645,0v-0.164h-1800v3.938c-0.561-0.125-1.131-0.199-1.436-0.246
		v-0.18c-0.336-0.449-5.645-3.023-9.023-4.367c0.549,1.383,0.48,1.195,0.967,2.402c-2.018-0.492-3.928-0.395-5.508,0.465
		c-2.34-2.324-4.801-4.469-7.5-5.754c-3.283-1.566-6.457,0.523-9.242,3.719h-184.215l-0.762,2.066h-6.314
		c-1.74-0.938-3.527-1.828-5.42-2.418c-1.488-0.465-2.139-0.41-1.494-0.465c-1.648-0.668-3.365-0.555-5.082-0.477
		c-0.705-0.16-1.512-0.332-1.979-0.469c-0.904-0.336-3.279-0.926-4.307-1.055c-0.824-0.094-1.646-0.094-2.475-0.164
		c-0.137,0-0.322,0.164-0.459,0.164c-0.246-0.074-0.518-0.082-0.762-0.164c-1.594-0.344-3.131-0.301-4.717-0.148
		c-0.99-0.422-2.053-0.691-3.311-1.113c-1.584-0.43-2.9,0.004-4.379,0.172c0.074,0,0.135,0,0-0.121
		c-1.773-0.098-3.559-0.074-5.332,0h-6.387c-2.379-0.918-2.828-1.246-5.742-1.273c-1.029-0.008-1.574,0.09-2.096,0.148
		c-1.533-0.82-3.115-1.672-4.818-1.656c-0.525,0-0.779,0.113-1.217,0.172c-1.232-0.141-2.447-0.434-3.662-0.465
		c-1.955,0.078-3.916,0.152-5.873,0.152h-3.121c-0.156,0-0.615,0.133-0.465,0c0.105-0.172,0.66-0.004,0.512-0.188
		c-0.338-0.324-0.863-0.316-1.305-0.457c-1.846-0.641-3.025-1-5.082-1.117c-0.744-0.074-1.484,0.008-2.227,0.188
		c-0.121-0.074-0.232-0.109-0.354-0.188c-1.885-0.813-4.355-0.871-6.402-0.75c-0.561,0.078-1.096,0.078-1.654,0.168
		c-0.309,0.074-0.602,0.172-0.908,0.164c-0.193,0,0.322-0.09,0.457-0.164c-3.426-0.082-6.838-0.168-10.268-0.168h-20.406
		c-1.096,0-2.186-0.074-3.281,0c-2.936,0.121-5.832,0.609-8.773,0.57c-1.656-0.246-3.363-0.188-5.039-0.172
		c-6.787,0.887,1.346-0.336-5.406,1.027c-0.082,0,0.143-0.082,0.158-0.156c0.18-0.105,0.801-0.121,0.555-0.176
		c-0.689-0.32-4.785-1.094-5.244-1.184c-2.023-0.34-3.125-0.668-5.172-0.75c-0.85-0.074-1.707-0.121-2.549,0
		c-2.617,0.426-4.924,1.305-7.324,2.301c-0.156-0.078-0.592-0.008-0.834,0c-1.395-0.145-0.756-0.078-2.285-0.121
		c-3.838,0-7.662,0.121-11.5,0.121h-10.781c0.391-0.078-0.074,0-0.555,0c0.158,0,0.248-0.09,0.15-0.121
		c-0.375-0.203-3.17-0.465-3.281-0.465c-0.719,0-1.404-0.172-2.123-0.172c-0.541,0-4.023,0.383-4.41,0
		c-0.082-0.09,0.248-0.172,0.369-0.172c-3.373-1.223-4.441-1.039-8.219-0.465c-0.555,0.074-1.072,0.359-1.625,0.441
		c-1.01,0.141-2.221,0.125-3.209,0.117c-1.344,0-2.674,0.137-4.014,0.234c-0.27,0-0.547,0.188-0.82,0.188
		c-0.172,0,0.33-0.141,0.465-0.188c-0.979-0.172-1.963-0.32-2.943-0.48c-3.797,0.113-7.584,0.188-11.383,0.188h-6.166
		c-1.439,0.09-2.848-0.098-4.277-0.188c-1.197-0.09-2.396-0.074-3.59-0.172c-0.621-0.074-1.221-0.238-1.846-0.293
		c-0.895-0.074-1.811-0.125-2.709-0.164c-0.896,0.375-1.893,0.602-2.857,0.879c-1.963-0.074-3.924,0-5.889,0
		c0.121,0,0.227-0.074,0.232-0.164c0-0.219-0.412-0.121-0.629-0.188c-3.1-0.422-6.17-0.621-9.244,0.18
		c-0.902,0.234-1.736,0.734-2.607,1.07c-0.074,0.141-0.143,0.074-0.156,0.148c-0.24,0,0.389-0.074-1.539-0.148
		c-2.504-0.082-5.008-0.211-7.514-0.18c-5.688,0.113-9.281,2.152-11.031,4.773c-2.611-0.133-3.299,0.074-4.789,0.617
		c-1.191-0.457-2.453-0.844-3.619-1.348c-0.752-0.152-1.529-0.316-2.299-0.457c-1.441-0.82-3.156-0.891-4.834-0.469
		c-2.65-0.141-4.445,0.113-5.625,0.648c-0.451-0.242-0.842-0.453-2.49,0.465c-1.773,1.004-3.455,2.238-4.908,3.676
		c-0.074,0-0.096-0.008-0.135,0.145c0-0.078-0.129-0.105-0.143-0.145c-2.539-2.297-3.773-2.074-7.281-2.973
		c-5.902,0.285-1.029-0.004-5.508,0.457c-2.578,0.238-4.041-0.074-6.781,1.434c-0.166,0.09-0.322,0.25-0.459,0.355h-0.465
		c-1.961,0.148-0.568,0.277-1.83,0.188c-1.125-0.098-2.242-0.129-3.369-0.188c-1.271-2.773-3.096-5.426-5.156-5.508
		c-6-0.238-8.475,0.219-10.006,1.625c-0.396-0.074-0.771-0.188-1.215-0.172c-2.496,0.188-5.059,0.844-6.943,2.551
		c-0.871,0.781-1.75,1.582-2.314,2.605c-0.076,0.082-0.098,0.105-0.121,0.188c-0.652,0.242-0.465,0.316-0.465,0.367
		c0,0-0.42,0.145-0.293,0.145c-0.158,0.074-0.166,0.141-0.309,0.164c-6.701-4.281-20.754,0.113-31.713,8.934h-22.031
		c-0.436,0-0.84,0.078-1.275,0c-0.127,0,0.398,0.004,0.465-0.18l-0.156-0.164c-0.203-0.074-0.42-0.129-0.631-0.172
		c-2.746-0.383-2.049-0.293-4.189-0.148c-1.043,0.117-1.512,0.281-2.344,0.539h-0.457c0-0.004-0.076,0-0.105,0
		c-0.082,0.074-0.074,0.004-0.148,0.133c-0.166,0.074-0.615,0.18-0.467,0.152v-0.152c0.188-0.074,0.369-0.098,0.557-0.133
		c-2.834-0.172-5.625,0.133-8.438,0.465c-0.377,0-0.785,0.105-1.158,0.18c-0.525,0.074-1.564,0.27-2.621,0.465
		c-0.66-0.098-1.336-0.254-2.066-0.18h-2.842c-1.484,0-2.986-0.082-4.467,0.18c-0.18,0-0.615-0.004-0.467,0.145
		c0.18,0.109,0.496-0.078,0.705,0c0.494,0.074,0.992,0.082,1.48,0.188c-3.029-0.285-8.797-0.145-3.369-0.879h-4.234
		c-0.225-0.078-0.389-0.098-0.307,0h-15.074c-0.771-0.715-1.537-1.219-2.27-1.219c-5,1-59.988,0.996-122.984,0.996h-107.107
		c-1.246-0.199-2.852-0.199-4.805,0h-3.092v0.469c-2.738,0.469-4.02,0.719-6.094,1.801c-0.18,0-0.412-0.004-0.6-0.164
		c-0.09,0-0.158-0.105-0.338-0.18c-0.172,0-0.494-0.129-0.762-0.129c-1.42-0.293-2.344-0.18-4.219-0.18
		c-1.248-0.004-2.68,0.004-3.793,0.465c-0.143,0-0.322-0.156-0.459-0.188c-0.957-0.156-1.924-0.391-2.885-0.457h-0.465
		c-0.594-0.004-1.197,0-1.787,0c-1.348-0.375-2.75-0.25-4.176,0c-0.426-0.004-0.836,0-1.26,0c-1.045,0.105-2.094-0.121-3.148-0.188
		v-1.555H17049.9v1.496c-0.338-0.813-0.727-1.609-1.01-2.434c-0.939,0.074-1.889,0.113-2.828,0.188c0.195,0,0.359,0.113,0.293,0.34
		c-0.436,1.496-1.15,2.883-1.92,4.246c-0.389-0.484-0.465-0.531-0.791-0.922c-0.105-0.645-0.277-1.281-0.322-1.934
		c-0.074-0.645,1.061-1.316,1.965-1.598c-3.617,0.457-4.127,1.742-3.121,3.414c-0.203-0.129-0.398-0.398-0.6-0.449
		c-3.395-0.992-6.785-1.344-10.283-1.246c-0.563,0-1.064,0.105-1.568,0.164c-0.33-0.227-1.162-0.816-0.996-0.465
		c0.121,0.223,0.414,0.402,0.66,0.465c-0.127,0.074-0.256,0.148-0.383,0.148h-0.135c0,0-0.105,0-0.119,0h-0.188
		c-0.076,0-0.076,0.004-0.121,0.16h-0.232c-0.074,0-0.135,0.148-0.201,0.148c-0.076-0.074-0.09-0.09-0.166-0.148
		c0-0.004-0.135,0-0.156,0c-2.059-0.953-4.613-1.836-7.5-1.246c-0.127,0-0.211,0.074-0.322,0.148v-1.375l-221.004,1.023
		l-214.529,0.953c-0.33-0.195-0.486-0.254-0.879-0.457c-1.279-0.652-2.461-0.762-3.678-0.762c-4.102-0.895-7.254,0.074-4.906-0.777
		c-0.18,0.074,0.246-0.18,0.172-0.172c-0.885,0.133-1.766,0.34-2.65,0.465c-0.301,0.074-0.594,0.09-0.895,0.121
		c-0.262,0-0.541-0.074-0.791,0c-0.592,0.172-1.174,0.328-1.758,0.465h-459.045v0.441c-2.863,0.277-5.133,1.117-6.812,2.258
		c-0.593-0.293-1.172-0.633-1.758-0.938c-1.459-0.195-2.199-0.324-2.988-0.461c-0.075-0.074-0.075-0.109-0.12-0.188
		c-3.748-3.02-6.494-3.324-10.24-2.152c-1.148-0.074-2.358-0.172-3.076-0.172h-1.465c-2.008-0.367-3.27,0.227-5.084,1.215h-207.42
		c-94.95,0-166.238,2.316-197.686,6.008c-1.901-0.848-4.262-1.41-7.178-1.406h-4.409c-1.187-0.996-2.604-1.555-4.951-2.094
		c-0.911-0.211-1.865,0.156-2.798,0.156c-0.195,0.074-2.095,0.645-3.662,1.375c-0.112,0-0.226,0.129-0.322,0.129
		c-0.646-0.414-1.354-0.609-2.036-0.863c-0.195-0.332-0.383-0.66-0.585-0.996c-2.937-4.887-4.133-3.105-4.79,0.645
		c-0.697,0.195-1.363,0.516-2.051,0.762c-0.006-0.254-0.803,0.082-1.187,0.156c-0.301,0.074-0.608,0.098-0.908,0.172l0.996-1.844
		c0.933-0.301,2.044-0.082,3.032-0.309c0.42-0.098-0.873-0.082-1.305-0.156c-0.803,0-1.164,0.074-1.566,0.156l0.413-0.789
		l-11.719-0.129c-4.332-0.965-8.158-0.965-11.381-0.188l-216.9-0.895l-233.947-0.98c-2.358-1.539-6.016-2.172-10.869-0.996
		c-2.709,0.652-5.419,1.414-7.852,2.813c-1.443,0.125-2.869,0.344-4.175,0.848c-1.435,0.156-2.851,0.34-4.278,0.465
		c-0.203,0.137-0.413,0.324-0.615,0.457c-0.346,0.008-0.421,0-0.879,0c0.27,0,0.45,0.105,0.63,0.172
		c-0.263,0.184-0.525,0.332-0.791,0.469c-0.075,0-0.075-0.004-0.128,0.18c-0.104,0.074-0.104,0.074-0.263,0.125
		c-0.308-0.004-0.615,0.004-0.923-0.125c-0.006-0.25,0-0.422,0-1.012c0,0-0.105,0-0.18,0c-0.353-3.742-0.729-3.074-1.069,0.172
		c-0.615,0.074-1.238,0.254-1.846,0.457h0.18c0.36,0,1.491,0.18,1.128,0.188c-1.931-0.098-1.295-0.098-3.472,0.152
		c-0.225,0.074-0.479,0.105-0.705,0.164v-3.281h-2792.925l5.991,2332.949c4.001,1281.977,10.004,2855.027,14.004,3495
		l6.006,1162.051l4143.001-2.035c2277.975-2,4144.949-0.965,4146.975,2.035c3,3,8.014,538.98,12.012,1192.949l7.998,1187.027
		h2726.025l4.994-52.004c3.002-29,8.002-483.008,11.002-1008c2.998-525,8.002-1109.023,11-1297.051l7.002-342.961h2292.002
		c2082,0,2293.049,1.027,2299.049,16.027c3,9,5.992,459.953,5.992,1001.926c-1,788.023-2.994,990-12.994,1004.023
		c-12,15-72.008,17-718.004,23c-387,2.996-717.996,7.996-735.998,11l-32.006,4.996l5.01,641.996c2,353.004,6.99,765,9.99,915
		l6.006,272.012h3267.975v56.996l-3272.025-10.004l3.004,516.008c1.998,282.996,5.994,518.004,8.994,521.004
		c2.998,3,1140.975,32.996,2528.025,67.996l2522.025,63.004v-1695h-1770v-47.008l842.023-5.992c462.998-4,1275-7,1805.025-7h963
		v-1272.977l-3609.977,14.004v-58.008l1827.975-4.992c1005-3,1829.025-3.996,1832.025-0.996s6,706.004,8,1563l1.992,1558.047
		l92.996,6.008c50,3,840.977,23.996,1757.027,45.996c1713.973,42,3926.023,97.004,5034.977,126.008
		c897,23,1974,50.996,2012.996,52.996L42408.188,48509.449z M33450.191,48280.453v-870h-1779.977v830.023l127.994,0.996
		c70,0,415.004,9.004,767.025,18.004c351.996,10,694.996,18.996,762.973,19.996L33450.191,48280.453z M26500.166,48110.445v-181.996
		c0-101.004-3.004-335.004-7.002-520.004l-6.006-337.996h-5807.025v888l152.984,5.992c83.002,4,1335.975,36,2781.975,71
		c2469.975,61,2735.023,68.008,2843.025,73.008L26500.166,48110.445z M20633.141,47960.445l-7.002-457.008
		c-3-252-8.002-1104-11.002-1893c-2.998-789-8.002-1584.973-11-1767l-5.992-332.984h-777.975v101.078
		c-4.881-2.043-10.117-3.98-17.402-5.711c-4.73-1.125-8.844-2.055-12.598-2.855v-92.508h-198.996l-3.004,32.992
		c-0.082,1.141-0.225,2.035-0.322,3.102c-3.934-0.074-7.893,0.227-11.865,0.984c-1.143,0.215-2.262,0.516-3.383,0.789
		c-14.119-3.629-28.297-5.602-42.539-6.59c-1.232-40.473-17.82-39.797-20.537-0.793c-4.246-0.074-8.5,0-12.76,0.074
		c-0.232-1.074-0.344-1.438-0.584-2.563c-3.998-17-13.002-27.992-22.002-27.992c-12.494,0-14.771,6.668-11.381,32.035
		c-4.223,0.285-8.443,0.605-12.672,0.922c-0.344-18.074-5.162-32.961-10.941-32.961c-6.002,0-8.012,7-5.01,15.996
		c2.246,5.492,2.676,11.613,1.713,17.695c-2.156,0.074-4.318,0.145-6.475,0.105c5.215,0.074,6.416,0.113,6.432,0.172
		c-0.004,0,0,0.078,0,0.078c-3.477,0.27-27.988,1.207-45.631,6.238c-7.074,2.02-13.492,5.734-19.906,9.449
		c-6.068-10.48-8.406-23.207-4.117-33.691c5-13-1-15.996-30-15.996c-20,0-34.996,2.996-34.994,7.996
		c2.42,13.313,1.148,33.117-1.758,46.758c-5.684,1.035-11.363,2.082-17.051,3.063c-0.932,0.234-1.842,0.473-2.77,0.703
		c-3.953-4.91-8.232-10.801-12.422-17.504c-17-29-17.004-30,4.996-34c20-4,19-4.004-4-6.004c-20-1-28.004,3.977-29.004,16.977
		c-1,9-1.988,24.008-2.988,32.008c-2,23-41.01,19.023-42.012-4.98c-2-48-2.988-50-17.988-30c-7,10-11.012,27-8.012,37
		c1.527,6.629,1.201,11.141-1.568,14.004c-6.688,0.137-13.527,0.242-13.389-0.102c1.129-2.789,11.043,0.59,8.893-1.512
		c-4.32-4.219-11.219-4.473-16.949-6.371c-4.887-1.617-9.85-3-14.795-4.438c-0.074-0.863-0.172-1.676-0.172-2.609
		c0-49-4.996-50.988-135.998-50.988h-124.029v35.637c-7.529-1.973-15.104-3.738-22.91-4.277c-2.805-0.195-4.805-0.301-7.09-0.426
		v-30.969h-1790.025v42.672c-0.328,0.074-0.486,0.09-0.791,0.121c-2.424-1.219-4.883-2.375-7.295-3.621h0.145
		c-6.029,0-13.934-1.219-22.061-2.621v-36.531h-101.004c-96.996,0-99.998,0.996-93.996,19.996c0.918,2.75,1.467,5.449,1.801,8.098
		c-20.813,4.777-41.367,10.625-61.391,18.121c-1.682,0.422-3.387,0.84-5.068,1.258c-0.227-3.629-0.354-7.625-0.354-12.477
		c0-47.004-19.99-45-20.99,3c-0.166,6.156-0.367,10.891-0.615,14.973c-2.111,0.523-4.227,1.059-6.328,1.582
		c-1.605-6.105-3.582-14.887-6.064-26.559c-4-17-13.004-27.992-22.002-27.992c-13,0-15.002,6.992-11.002,34.996
		c1.203,7.609,1.674,14.574,1.523,20.375c-4.262-0.152-8.559-0.383-12.846-0.602c-1.029-5.668-1.67-12.422-1.67-19.773
		c0-19-5-34.996-11-34.996c-6.002,0-7.996,6.996-4.996,15.996c5.658,14.852,1.834,28.375-6.27,38.027
		c-14.268,0-28.416,1.234-42.07,6.371c-2.906-0.074-5.811-0.074-8.715-0.18c-2.594-2.48-4.943-5.527-6.943-9.242
		c-5.002-11-20.012-21.996-32.008-23.996c-20-4-19.006-4.004,4.996-6.004c15,0,27.012-5.996,27.012-11.996
		c0-6.004-16.002-9.004-37.002-7.004c-31,2-38.01,7-39.01,26c-0.629,12.227-1.283,20.703-2.094,26.852
		c-2.309-0.219-4.266-0.391-8.102-0.75c-2.287-0.957-4.607-1.836-6.941-2.652c-0.525-6.199-0.227-13.684,1.143-21.445
		c4-26,1.008-30-16.992-30c-13.002,0-19.012,4.004-16.012,11.004c6.02,8.797,5.551,22.078,1.289,33.82
		c-6.361-0.672-12.744-1.082-19.115-0.938c-4.848-0.125-9.648-0.148-14.443-0.09c-3.197-4.641-8.436-2.098-13.434,0.461
		c-2.203-0.641-4.289-1.172-6.402-1.73c-3.52-11.156-3.523-23.332,2.109-31.566c4-7-3.996-11-19.994-11c-25,0-25.006,1-10.006,30
		c1.66,3.238,2.941,5.848,4.307,8.582c-3.045-0.164-6.266-0.164-9.639-0.074c-1.322-2.805-2.869-5.941-4.672-9.551l-15.997-28.988
		h-258.997v37.426c-10.56-0.766-20.613-0.789-30,0v-37.398h-3720v448.004c0,246,3.002,876,7.002,1400.027l5.918,940.875
		c-0.72,1.41-1.348,3.016-1.919,4.996c-0.487,1.684,0.135,5.961,0.353,8.348c-0.345,1.855-0.375,3.77,0,5.668
		c0.555,1.41,0.985,2.867,1.67,4.219c0.075,0.156,0.218,0.254,0.308,0.395c0.075,1.68,0.804,3.047,1.758,4.25
		c0.075,0.211,0.075,0.422,0.09,0.629c1.147,4.258,1.151,4.227,1.406,4.719c-0.36-1.621,0.105-2.188,1.056-2.168
		c0.075,0.066,0.075,0.066,0.105,0.129c-0.451,0.656-0.756,1.395-1.128,2.098c-1.117,2.109-2.057,4.336-3.149,6.457
		c0.164,2.527,0.164,3.273,0.218,3.984c-1.892,1.441-2.45,3.156-4.014,9.375c-0.638,2.551,2.607,7.238,3.441,8.762
		c0.255,0.32,0.827,0.566,0.762,0.969c-0.075,0.371-0.495-0.59-0.791-0.82c-0.075-0.063-0.292-0.098-0.277-0.016
		c0.39,2.453,1.299,5.008,2.109,7.324c0.218,0.246,0.202,0.242,0.397,0.469c-0.277,3.383-0.075,3.547,1.069,6.84
		c-0.277,2.176-0.173,4.375-0.135,6.563c0.135,0.934,0.004,2.32-0.105,3.574c-1.523,4.188-1.302,6.074,0.165,10.035
		c-0.442,0.938-0.864,1.887-1.128,2.883c-0.33,1.242-0.12,2.559-0.188,3.84c-0.675,0.789-0.771,5.164-0.776,6.797
		c-1.023,2.469-1.023,4.941-0.442,7.469c-0.473,2.207-0.698,3.723,0.188,7.297c0.12,0.484,0.367,0.918,0.6,1.363
		c0,0.043,0.007-0.063-0.075,0.086c-0.404,2.113,0.105,4.113,0.791,6.066c-0.3,0.625-0.585,1.133-1.011,2.195
		c-0.816,2.027-0.931,4.27-1.406,6.402c0.865,1.477,1.728,2.949,2.593,4.422c-0.728,4.48,0.367,6.172,4.629,10.813
		c0,0.996-0.005,2.07,0.075,2.313c0.09,0.324,0.226,0.633,0.322,0.953c-1.672,3.313-2.605,6.926-2.213,10.621
		c-0.135,0.387-0.277,0.77-0.367,1.172c-0.322,1.523-0.592,3.066-0.761,4.613c-0.075,0.637,0,1.281,0,1.918
		c0.075,3.133-0.593,6.227-0.075,9.375c0.33,0.813,0.66,1.621,0.981,2.434c-0.075,0.484-0.127,0.98-0.188,1.465
		c-0.09,1.301-0.428,2.602-0.263,3.895c0.338,2.711,1.204,5.016,2.549,7.047c0.002,0.023-0.002,0.055,0,0.074
		c0.487,4.613,1.374,6.09,3.179,7.898c-0.143,0.691-0.322,1.379-0.413,2.078c-0.09,0.742,0.082,1.484,0.12,2.227
		c0,0.527,0,1.066,0.105,1.582c0,0.09,0.157-0.27,0.188-0.191c0.353,0.801-2.299,2.059-0.615,2.566
		c-0.256,1.492-0.563,2.98-0.762,4.48c-0.218,1.691,0.157,3.5-0.127,5.188c0.097,1.945,0.127,2.23,0.308,3.852
		c-0.075,0.066-0.075,0.137-0.12,0.203c-0.442,0.543-0.778,1.18-1.026,1.934c-0.005,0.016,0,0.031,0,0.047
		c-0.413,1.27-0.683,2.703-1.245,3.809c-2.085,4.102-1.57,5.656,0.218,5.918c-0.082,2.07-0.157,4.168,0.075,6.195
		c0.075,0.398,0.143,0.793,0.218,1.188c-0.247,1.875-0.473,2.93-0.75,4.523c-4.099,3.207-6.04,6.336-7.031,11.367
		c-0.143,0.297-0.277,0.605-0.413,0.895c-1.95,4.203-2.038,4.383-2.445,8.598c0,0.156,0,0.391,0.12,0.457
		c0.112,0.051,0.165-0.199,0.247-0.297c-1.111,3.07-1.797,6.293-1.377,9.523c0,0.184-0.075,0.367-0.105,0.613
		c-0.761,1.109-1.495,2.227-2.021,3.457c-0.585,1.359-0.6,2.906-0.908,4.352c-0.112,4.531-0.592,8.422,0.894,12.582
		c0.075,1.16,0.098,2.492-0.089,3.383c-0.075,4.316,0.486,8.504,2.49,12.453c0.345,0.688,0.864,1.27,1.406,1.832
		c-0.083,2.098-0.075,4.184,0.218,6.27c-0.277,3.668,0.742,7.844,1.597,10.254c0.652,1.844,0.762,4.133,2.227,5.434
		c0.761,0.676,0.329-2.012,0.495-3.02c0.503,2.457,0.8,4.965,1.509,7.371c0.45,1.527,2.868,3.383,3.926,4.555
		c0.943,1.047,1.748,2.211,2.695,3.25c0,1.215,0,2.453,0.09,3.574c0-0.086,0.075-0.172,0.075-0.262
		c-0.181,1.098-0.442,2.184-0.496,3.297c-0.089,1.77,0.256,3.496,0.66,5.199c0.173,0.727,0.397,1.434,0.585,2.152
		c0.285-0.082,0.33-0.066,0.338-0.129c-0.119,0.27-0.247,0.535-0.322,0.82c-1.243,4.648-1.088,3.77-1.055,7.293
		c0.075,0.445,0.256,4.047,0.585,4.895c-0.247,2-0.953,5.438-1.201,6.68c-0.799,4.008-0.607,7.371,0.173,10.105
		c-0.075,0-0.105,0-0.188,0c-0.637,0.008-2.465,5.766-2.9,7.074c-2.711,8.156-0.888,14.059,2.622,16.875
		c0,0.648,0.09,1.297,0.09,1.934c-0.592,3.887-0.57,7.094,1.554,10.535c-0.12,1.004-0.263,2.012-0.383,3.016
		c0-0.199-0.006-0.426,0.12-0.602c0.128-0.211,0.21,0.496,0.143,0.734c-0.255,0.809-1.365,3.516-1.655,4.672
		c-2.219,3.047-3.623,6.16-3.72,10.781c0,3.039-0.074,6.09,0.075,9.129c0.075,0.727-0.09,1.441-0.149,2.168
		c-0.24,2.945-0.188,5.965,1.055,8.699v4.777c0,1.828,0.074,3.648,0,5.477c-0.075,1.68,0,3.309,0.18,4.98v0.016
		c-0.075,0.074-0.002-0.176-0.292,1.32c-0.66,3.078-1.191,5.809-0.735,8.918c0,0.117,0.075,0.234,0.075,0.352
		c-0.002,0.004,0.001,0.031,0,0.031c0,0.008,0.075-0.102,0.075-0.102c0-0.016,0.001-0.031,0-0.047
		c0.075-0.25,0.075-0.492,0.157-0.73c0-0.031,0.113-0.082,0.105-0.047c-0.075,0.406-0.172,0.625-0.218,0.762
		c0.075-0.043,0.105-0.133,0.495-0.703c-0.239,0.367-0.383,0.672-0.585,1.012c0,0.031,0.002,0.063,0,0.09
		c-2.798,4.535-3.545,7.773-3.076,12.934c0,0.199,0.075,0.398,0.09,0.602l-0.952,1.699c-0.367,1.469-0.8,2.922-1.099,4.406
		c-0.271,1.332-0.127,3.426,0.135,5.129c-0.075,0.18-0.105,0.359-0.157,0.543c-1.257,4.535-2.261,9.105-1.978,13.855
		c0.074,1.199,0.074,2.406,0.119,3.605c0,0.398,0.098,0.777,0.173,1.172c0.075,0.266,0.247-0.293,0.263,0.422
		c0,0.309-0.075,0.605-0.09,0.91c0,0.168-0.12,0.613,0,0.512c0.607-0.465,1.938-2.348,1.537-1.699
		c-1.031,1.676-2.428,3.094-3.442,4.777c-1.676,2.77-1.255,7.781-0.075,10.488c6.12,7.484,3.082,5.438,8.54,7.512
		c-0.005,0.008,0,0.023,0,0.031c-0.442-0.164-0.637-0.262-0.968-0.32c-0.329-0.063,0.45,0.219,0.938,0.395
		c-0.21,0.508-0.404,1.027-0.615,1.535c-0.465,1.121-1.069,2.195-1.421,3.355c-0.3,0.996-0.458,2.023-0.63,3.047
		c0-0.051,0.082-0.121,0.075-0.086c-0.075,0.172-0.105,0.34-0.157,0.512c0,0.031-0.006,0.059,0,0.09
		c-0.144,0.41-0.301,0.816-0.383,1.242c-0.578,3.105-0.6,3.355-0.63,3.691c0.082-0.191,0.143-0.406,0.247-0.496
		c-0.09,0.227-0.172,0.547-0.277,0.848c0.09-0.223,0.15-0.305,0.322-0.863c0.51-0.406,1.201,0.059,2.153,2.141
		c-1.438,1.027-2.555,2.09-3.472,3.191c0.082-0.797,0.157-1.477,0.277-2.184c-0.367,1.09-0.69,2.105-0.923,3.254
		c-2.255,3.285-2.772,6.965-2.534,11.512c0,0.008,0.479,3.723,0.69,3.973c0.075,0.059-0.006-0.176,0.075-0.25
		c0,1.023-0.098,2.047,0.218,3.004c0.39,1.164,0.57,1.34,0.85,2.094c-0.075,0.324-0.188,0.637-0.202,0.965
		c-0.181,4.176,0.788,5.699,2.329,8.234c0.465,2.648,1.013,3.953,2.109,5.098c-0.585,2.605-1.431,5.215-1.172,7.852
		c0.164,1.664,1.159,3.121,2.168,4.512c0.157,0.605,0.479,1.383,0.819,2.211c-0.128,3.523-0.173,6.688,1.948,9.977
		c0.263,0.492,0.479,1,0.762,1.48c-0.69,1.098-0.653,1.125-2.74,7.633c0,1.836-0.075,3.68,0.135,5.508
		c0.263-0.93-0.219,1.293-0.292,2.195c-0.391,4.691,0.188,7.078,2.241,10.313c0.188,1.496,0.271,2.707-0.149,1.449
		c0,2.43-0.075,4.867,0,7.297c0,0.535-0.105,1.637,0.172,0.496v0.207c-0.548,3.203-0.353,1.281-0.465,5.023
		c0.314,2.77,0.742,4.781,1.567,7.441c0.263,0.852,0.18,1.922,0.735,2.594c0.104,0.68-0.09-0.223,0.143,1.141
		c1.278,3.82,1.554,4.563,4.586,8.293c0.09,0.109,0.308,0.281,0.457,0.441c0.165,0.391,0.113,0.293,0.293,0.715
		c0.097,0.078,0.18,0.16,0.277,0.234c-0.003,1.051,0,2.102,0,3.148c0.112,3.16-0.838,6.246,0.396,9.375
		c0.165,0.277,0.322,0.547,0.48,0.82c0,0.34-0.005,0.68,0.09,1.012c0.082,0.617,0.218,1.223,0.353,1.832
		c-0.638,1.184-1.271,2.371-1.904,3.559c-0.33,1.098-0.511,2.199-0.735,3.297c-0.63-0.398-1.057-0.527-1.392-0.559
		c-0.421-0.809-0.828-1.844-1.216-3.41c-0.188-0.754-0.353-1.504-0.54-2.258c0.784,3.93-0.548-3.207,0.457,6.078
		c0.376,3.348,0.85,4.84,1.567,6.609c-0.849,0.875-1.616,1.797-2.197,2.871c-1.19,2.199-0.927,5.023-0.383,7.719
		c-0.074,0.156-0.119,0.309-0.18,0.469c-0.315,0.883-0.458,2.594-0.465,4.102c-0.533,0.469-1.02,0.977-1.348,1.609
		c-1.094,2.113-1.313,4.563-1.465,6.973c-1.055,2.262-2.259,4.492-2.695,6.93c-0.255,1.434,0.21,3.633,1.011,5.715
		c-2.146,3.172-2.541,7.148-2.417,11v6.051c0,1.891-0.003,4.113,0.233,5.813c-0.248,1.211-0.713,3.328-0.646,4.207
		c0.292,3.832,1.404,7.41,4.263,9.945c0.006,0.023,0.09,0.051,0.09,0.074v1.305c0.074,0.293,0.112,0.586,0.149,0.879
		c0-0.09,0.144-0.355,0.165-0.266c0.006,0.145-0.135,0.285-0.135,0.426c0,0.094-0.003,0.188,0.135,0.277
		c-0.075,2.266-0.782,4.484-1.069,6.711c-0.226,1.109-0.607,3.164-0.762,4.57c0,0.023,0.002,0.035-0.172,0.059
		c-2.219,3.191-3.453,6.844-3.237,10.738v11.617c0,2.254-0.005,4.512,0,6.766c0,1.578,0.075,3.156,0,4.73
		c-0.165,1.965-0.075,3.891,0.188,5.816c-0.247,0.355-0.563,0.676-0.776,1.055c-1.829,3.25-2.35,7.258-2.183,10.914
		c0.003,0.035,0,0.066,0,0.117c-0.075,0.203,0,0.457,0,0.703h-1.45v568.012l92.984,5.992c50.001,3,569.011,17.008,1152,31.008
		c1155,28,6039,149.996,6528,163.988c165.998,4,344.01,9.012,396.008,9.012L20633.141,47960.445z M12384.64,46672.242
		c0-0.066,0-0.203,0.135-0.598c0.09-0.219,0.428-0.855,0.353-0.633c-0.135,0.422-0.308,0.828-0.479,1.23H12384.64z
		 M12318.414,47750.445l-3.999-1707c-2-939.977-7.005-1893-10.005-2118.977l-6.005-411.008l-1041.976-5.992
		c-572.002-4-1635.975-7-2364-7c-1256.025,0-1323,1-1317.975,18c3,9,18.991,67.004,35.991,127.004
		c372,1314.977,1200.975,2453.027,2340,3212.027c558,372,1188.976,644.004,1850.025,798c122.003,29,459.99,93,496.995,93.996
		L12318.414,47750.445z M31670.664,47360.445h1779.977v-819.977h-1779.977v409.996V47360.445z M12376.914,47164.891
		c0.075-0.164,0.135-0.336,0.219-0.5c0.074-0.125,0.42-0.379,0.338-0.262
		C12377.29,47164.387,12377.104,47164.641,12376.914,47164.891L12376.914,47164.891z M12381.646,47138.098
		c-0.074,0.086-0.57-0.41-0.585-0.719c0-0.234,0-0.473-0.074-0.703C12381.204,47137.148,12381.451,47137.613,12381.646,47138.098
		L12381.646,47138.098z M12381.646,47124.488c0.823-1.012,2.54-1.395,3.677-2.184
		C12384.099,47123.031,12382.848,47123.727,12381.646,47124.488z M12380.927,47062.234c0-0.121-0.006-0.113,0-0.234
		C12381.413,47061.668,12381.249,47061.844,12380.927,47062.234z M14190.451,47035.516v-0.836
		c8.714-7.273,17.536-14.438,26.25-21.711c1.917-0.977,3.08-1.457,3.75-1.625v0.98
		C14217.591,47015.504,14203.577,47025.84,14190.451,47035.516L14190.451,47035.516z M12386.852,47035.016
		c0.075-0.313,0.082-0.625,0.15-0.938c0.27,0.172,0.757,0.605,1.084,0.852c-0.42,0.234-0.83,0.27-1.229,0.086H12386.852z
		 M12391.524,47028.191c0.127,0.223-0.404-0.355-0.479-0.602c0-0.117-0.075-0.238-0.09-0.352
		C12391.143,47027.555,12391.345,47027.867,12391.524,47028.191L12391.524,47028.191z M12389.826,47026.844
		c0-0.148-0.075-0.219,0-0.41c0-0.191,0.202-0.262,0.383-0.441c0,0.031,0.075,0.047,0.075,0.074
		c-0.143,0.262-0.277,0.52-0.428,0.777H12389.826z M26490.576,47020.457v-253.008c0-140-3.012-396-7.002-570l-5.99-316.992h-2898
		c-2021.025,0-2900.025,3-2904,11c-3.998,5-3.99,259.988,1.012,564.988l6.986,554.004l2421,3.004
		c1332.002,1,2637.975,2.992,2904,4.992L26490.576,47020.457z M12383.076,46954.465c-0.524-1.305-0.792-1.887-0.879-2.652
		c0.247,0.426,0.487,0.727,0.646,0.453C12382.918,46953,12382.985,46953.734,12383.076,46954.465L12383.076,46954.465z
		 M12382.724,46951.402c-0.143-0.227-0.346-0.453-0.465-0.688c0-0.641,0-1.102,0.119-2.445c0.135,1.039,0.248,2.086,0.353,3.133
		H12382.724z M12381.917,46948.973c-0.135-1.891-0.218-4.477,0.09-3.281c0.21,0.801,0.27,1.637,0.383,2.461
		c-0.338,0.598-0.256,0.449-0.466,0.82H12381.917z M12375.823,46833.367c0.383,0.91-0.853-1.789-1.274-2.684
		c-0.001-0.035,0.002-0.066,0-0.102C12374.969,46831.516,12375.426,46832.426,12375.823,46833.367z M12383.836,46685.195
		c0.09,0.121-0.075-0.758,0-1.129c0-0.188,0.135,0.367,0.12,0.559c0,0.145-0.083,0.402-0.105,0.57H12383.836z M12416.78,46660.805
		c0-0.008,0.001-0.02,0-0.027c0.097-0.121,0.195-0.238,0.292-0.352h0.181c-0.158,0.121-0.322,0.27-0.466,0.379H12416.78z
		 M12395.862,46570.59c0.09,0.09-0.308-0.277-0.292-0.25c0-0.008,0-0.023,0.075-0.031c0.18,0.184,0.075,0.055,0.277,0.277
		L12395.862,46570.59z M12394.295,46569.285c-0.075-0.059-0.075-0.055-0.15-0.117c0-0.047,0-0.098,0.075-0.145
		c0-0.09,0.09,0.125,0.105,0.262H12394.295z M12381.111,46552.922c0.105,0.652-0.263-1.289-0.397-1.934
		c0.001-0.059-0.002-0.117,0-0.176C12380.856,46551.516,12380.991,46552.215,12381.111,46552.922L12381.111,46552.922z
		 M12433.655,46494.375c-0.263-1.684-0.322-2.625-0.465-3.941h0.894c0.09,0.922,0.135,1.848,0.263,2.77
		C12434.106,46493.59,12433.896,46493.984,12433.655,46494.375L12433.655,46494.375z M12376.6,46434.637
		c0-0.059-0.082-0.137-0.15-0.293c0.008-0.031,0.007-0.051,0-0.086C12376.524,46434.383,12376.563,46434.512,12376.6,46434.637
		L12376.6,46434.637z M12375.97,46427.973c-0.075-0.078-0.09-0.156-0.135-0.234c0.075,0.063,0.112,0.215,0.15,0.234H12375.97z
		 M12375.819,46427.738c-0.172-0.25-0.442-0.68-0.615-1.039c-0.075-0.145-0.12-0.184-0.135-0.309
		C12375.325,46426.832,12375.587,46427.285,12375.819,46427.738z M12377.344,46398.121c0-0.031,0.008-0.063-0.12-0.09
		c0-0.035,0.002-0.023,0-0.059c0,0.051-0.007,0.09,0.12,0.145V46398.121z M12377.163,46394.75c0-0.086,0-0.176,0.09-0.262
		c0.083-0.297,0.57-1.105,0.458-0.82c-0.143,0.363-0.322,0.723-0.479,1.082H12377.163z M12379.36,46373.789
		c-0.555-0.449-2.224-2.219-2.49-2.652c-0.202-0.336-0.314-0.727-0.457-1.098c2.597,3.031,3.414,4.129,2.944,3.75H12379.36z
		 M13115.65,46317.055c-0.202-0.148,2.031-1.488,4.951-2.914c-0.51,0.594-0.939,1.102-1.436,1.684
		c-0.804,0.316-1.564,0.59-2.373,0.91C13116.081,46317.016,13115.723,46317.109,13115.65,46317.055L13115.65,46317.055z
		 M12399.108,46315.137c-0.577-0.207-1.163-0.395-1.729-0.613c0.623,0.035,1.25,0.066,1.875,0.102
		c-0.075,0.168-0.09,0.344-0.127,0.512H12399.108z M23457.109,45830.449h3023.025v-697.004l317.012-5.992
		c174-4,444.99-7.004,601.996-7.004c156.998,0,350.01-3,429.006-7l142.006-5.992v-1917h-4486.875l-7.002,908.027
		c-3,498.996-8.994,1092.973-12.992,1320L23457.109,45830.449z M19820.135,43637.598c-1.199-0.531-2.402-1.051-3.604-1.582
		c1.217,0.25,2.398,0.609,3.604,0.895V43637.598z M19531.432,43568.516c-0.344-1.758-0.631-3.809-0.807-6.121
		c6.846-3.207,13.371-5.672,18.047-6.254c1.488-0.188,3.08-0.203,4.629-0.277c-7.424,3.797-14.631,8.254-21.869,12.656V43568.516z
		 M16449.307,43560.648c-7.092-2.105-13.385-3.969-19.088-5.637c4.227-0.316,8.447-0.578,12.656-0.66
		c0.721,1.047,1.35,2.469,1.832,4.395C16446.24,43559.383,16447.783,43559.988,16449.307,43560.648L16449.307,43560.648z
		 M16428.77,43555.098l0.689-0.293c0.248,0.078,0.496,0.137,0.75,0.203c-0.479,0-0.955,0.074-1.436,0.09H16428.77z
		 M12300.17,43450.496v-972c0-534.996-3.002-1287-7.002-1670.027l-5.991-697.992l-2265.976,7c-1245.975,3-2267.025,7-2268.975,8
		c-8,6-96.998,278-135.998,415.004c-144.998,507-216.008,1023.977-216.008,1575c0,420,50.016,873.977,138,1245l17.007,75
		l1025.025,4.996c564,3,1631.024,5.996,2373,7.996L12300.17,43450.496z M18563.346,40420.496c-0.18-0.227-0.33-0.465-0.512-0.691
		c0.293,0.227,0.584,0.457,0.879,0.691H18563.346z M25346.871,40213.441c1.082-1.242,2.168-2.488,3.252-3.734v1.555
		c-0.361,0.703-0.729,1.41-1.084,2.109c-0.729,0-1.453-0.008-2.168,0.074V40213.441z M7778.871,40060.496h4511.025v-643.004
		c0-354-3.001-1164.977-7.002-1800.977l-5.991-1158l-51.006,6.004c-101.003,14-447,86.992-596.003,125.992
		c-567,151-1149.975,411-1635,727.004c-350.002,229-627.99,455.012-924.976,752.027c-429,429-762.975,887.023-1040.024,1425.973
		c-86.002,165-224.993,476.004-244.995,543L7778.871,40060.496z M22580.869,36806.922c-0.359-0.469-0.711-0.93-1.068-1.395
		c0.354,0.172,0.76,0.258,1.068,0.527c0.512,0.449,0.436,0.719,0,0.863V36806.922z M21359.869,36506.461
		c-0.164-0.074-0.307-0.109-0.465-0.156c-0.074-0.074-0.135-0.105-0.188-0.164c0,0,0.006-0.074-0.074-0.074
		c0.24,0.117,0.443,0.246,0.734,0.395H21359.869z M21359.119,36506.02c0,0-0.076,0.004-0.076-0.074c0,0,0.076,0.008,0.076,0
		C21359.119,36505.945,21359.119,36505.945,21359.119,36506.02z M21908.539,36504.305c0.076-0.141,0.143-0.297,0.203-0.441
		C21909.262,36503.48,21908.998,36503.789,21908.539,36504.305z M21922.719,36494.582c-0.098-0.145-0.211-0.266-0.307-0.414
		c0.074,0,0.096-0.188,0.135-0.188c0.111,0.098,0.172,0.262,0.457,0.465c-0.096,0.074-0.186,0.09-0.277,0.133L21922.719,36494.582z
		 M21416.529,36488.867c0,0-0.074,0-0.074-0.074h-0.158c-0.104-0.078-0.203-0.137-0.307-0.172c0-0.078,0.002-0.082,0.143-0.121
		c-0.076,0-0.129,0-0.158,0c0,0.074-0.09,0.074-0.09,0.09l0.09,0.074v0.137c-0.074,0-0.111,0-0.158-0.137v-0.074
		c-0.082-0.074-0.111-0.074-0.156-0.121c0.111,0,0.232,0.004,0.354,0c0.074-0.121,0.111-0.195,0.186-0.32h0.121
		c-0.074,0.082-0.096,0.074-0.121,0.133c0.15-0.004,0.322,0,0.459,0c0,0.105,0.006,0.203-0.137,0.309L21416.529,36488.867z
		 M21221.912,36488.695c-0.232,0-0.525,0-0.525-0.121v-0.074c0.18,0.074,0.344,0.082,0.525,0.121V36488.695z M18861.963,36487.727
		v-0.09c0.074,0.004,0.098,0,0.135,0C18862.023,36487.637,18861.986,36487.633,18861.963,36487.727z M23731.188,36481.516
		c-0.42,0-0.262,0-0.98-0.105c-0.219,0,0.441-0.082,0.645,0C23730.955,36481.488,23731.076,36481.488,23731.188,36481.516z
		 M16589.537,36478.969c-0.074-0.145-0.111-0.324-0.172-0.457l0.264,0.457c0,0.004-0.09,0-0.09,0H16589.537z M21272.314,36477.328
		c0.898-0.594,1.436-0.918,1.846-1.012c-0.594,0.328-1.182,0.684-1.773,1.012H21272.314z M18588.064,36477.125
		c-0.074,0-0.135-0.074-0.219-0.203c0.105-0.004,0.234,0.004,0.338,0c0,0.105-0.104,0.188-0.121,0.203H18588.064z
		 M21913.639,36475.016c0-0.367,0.129-0.441,0.457-0.156C21913.947,36474.934,21913.803,36474.965,21913.639,36475.016z
		 M21930.119,36473.652c-0.166-0.441-0.322-1.086-0.48-1.609h1.846c0.164,0.09,0.33,0.188,0.48,0.277
		C21931.732,36472.453,21930.496,36473.363,21930.119,36473.652L21930.119,36473.652z M16084.618,36471.59
		c-0.271-0.633-0.39-1.063-0.172-0.762c0.277,0.5,0.194,0.375,0.397,0.762H16084.618z M21279.568,36470.035
		c-0.512-0.367-1.008-0.773-1.508-1.156c-0.174-0.082-0.338-0.113-0.512-0.203c0.322,0,0.645,0.004,0.967-0.121
		c0.322,0.473,0.629,0.945,1.084,1.406L21279.568,36470.035z M16582.018,36467.664c-0.752-0.34-0.473-0.258-0.674-0.383
		c0,0,0.074,0.004,0.09,0c0.209,0.082,0.873,0.457,0.584,0.367V36467.664z M23873.293,36466.887v-0.074
		c0.074-0.137,0.156-0.438,0.232-0.691l-0.158,0.074v-0.074c-0.002-0.09,0.004-0.188,0-0.277c0.074,0.074,0.158,0.125,0.188,0.188
		c0.004,0-0.006-0.008,0,0.074c0.074,0.203,0.074,0.406-0.076,0.645c-0.074,0-0.135,0.078-0.186,0.105V36466.887z
		 M21092.441,36466.316l-0.074-0.121c-0.004,0,0-0.121,0-0.133c0,0,0.074-0.004,0.074,0.105V36466.316z M17055.268,36466.242
		c-0.422-0.461-0.443-0.445-1.115-1.246C17054.549,36465.379,17054.895,36465.828,17055.268,36466.242z M17042.994,36465.035
		c-0.076,0-0.15,0.008-0.219-0.105c-0.074,0,0.098,0.004,0.182,0c0,0,0.006,0.105,0.172,0.105H17042.994z M15137.094,36464.918
		v-0.09h-0.458c0.135-0.09,0.293-0.105,0.428-0.188c0.338-0.145,0.69-0.25,1.04-0.367l-0.09,0.441
		c-0.3,0.074-0.607,0.113-0.908,0.172L15137.094,36464.918z M21111.445,36464.684c-0.203-0.074-0.398-0.105-0.602-0.141
		c-0.074,0-0.074,0-0.121-0.152c0.262,0.074,0.549,0.09,0.721,0.156L21111.445,36464.684z M15139.044,36463.688
		c0.075,0,0.105-0.125,0.181-0.133c0.18-0.078,0.728,0.125,0.54,0.133H15139.044z M20685.145,36462.883
		c-0.15-0.195-0.121-0.211-0.219-0.352c0,0,0.09-0.004,0.09,0c0.082,0.09,0.27,0.441,0.188,0.352H20685.145z M18436.268,36462.711
		c-0.09,0-0.299-0.406-0.307-0.414c0.074,0,0.111,0.156,0.156,0.172c0,0.074,0.098,0.172,0.15,0.234V36462.711z
		 M17020.869,36462.254c0.18-0.078,0.291-0.105,0.479-0.16C17023.82,36462.172,17022.322,36462.191,17020.869,36462.254z
		 M20675.244,36460.027c0.074-0.121,0.104-0.309,0.172-0.43C20675.34,36459.742,20675.305,36459.855,20675.244,36460.027z
		 M22017.594,36459.809c0-0.074-0.076-0.105-0.076-0.129c0.451-0.113,0.916-0.262,1.334-0.457c0.783-0.367,1.521-0.797,2.27-1.23
		h0.232c-0.074,0.277-0.104,0.539-0.156,0.82C22020.15,36459.074,22019.125,36459.391,22017.594,36459.809L22017.594,36459.809z
		 M18290.844,36459.426v-0.09c0.42-1.641,0.801-3.301,1.568-4.789c0.443-0.859,0.121,1.949,0.135,2.914
		c-0.262,0.613-0.541,1.211-0.791,1.832c-0.301,0-0.607,0.133-0.908,0.133H18290.844z M18443.072,36459.426
		c-0.42-0.414-1.313-1.266-0.967-0.969c0.354,0.301,0.684,0.637,1.012,0.969H18443.072z M21374.674,36459.426
		c-0.188-0.121-0.428-0.324-0.676-0.457c-0.912-1.254-1.447-2.746-2.242-4.074c1.139,1.023,2.576,3.488,2.916,4.512
		L21374.674,36459.426z M18288.123,36459.32c-4.676-1.18-1.299-4.289-0.689-2.68c0.209,0.516,0.322,1.082,0.457,1.625
		C18287.988,36458.617,18288.049,36458.965,18288.123,36459.32z M20969.148,36459.133c0.111-0.074,0.232-0.105,0.354-0.145
		c-0.098,0.078-0.18,0.105-0.279,0.145C20969.223,36459.133,20969.148,36459.133,20969.148,36459.133z M21000.877,36457.551
		c0.328-0.719,0.855-1.109,1.508-1.273c-0.225,0.289-0.479,0.523-0.689,0.848c-0.279,0.172-0.512,0.324-0.82,0.457
		L21000.877,36457.551z M21389.969,36456.672c0,0,0.307-0.121,0.457-0.137h0.602c-0.354,0.078-0.705,0.105-1.055,0.137H21389.969z
		 M21334.891,36455.938c0-0.137,0.104-0.316,0.104-0.43v-0.156c0.137,0,0.27,0.008,0.412,0.156c-0.09,0.137-0.164,0.301-0.246,0.43
		c-0.076-0.004-0.076,0-0.121,0H21334.891z M18851.191,36455.66c-0.006,0,0-0.121,0-0.121V36455.66z M21325.666,36455.539
		c-0.098,0-0.195-0.188-0.293-0.188c0.096,0,0.178-0.004,0.277,0L21325.666,36455.539z M18851.342,36455.027
		c-0.076,0,0.143-0.141,0.217-0.141h0.262C18851.656,36454.887,18851.49,36454.895,18851.342,36455.027z M21115.59,36454.887v-0.152
		h0.225c-0.074,0-0.074-0.004-0.148,0.152H21115.59z M18852.24,36454.734c-0.361-0.148-0.752-0.375-0.967-0.395l0.09,0.117
		c-0.211-0.074-0.082-0.105-0.18-0.141c-0.076,0-0.121,0.004-0.172-0.121c-0.121,0.004-0.248,0-0.443,0
		c0.09,0,0.18,0.008,0.277-0.105c-0.148-0.074-0.412-0.156-0.465-0.156c0-0.074-0.104-0.105-0.135-0.188
		c0.555,0,1.189,0.219,1.918,0.777L18852.24,36454.734z M18555.607,36453.711c0-0.078-0.09-0.113-0.105-0.129
		c0.09-0.074,0.084-0.105,0.15-0.188c0.076,0.074,0.098,0.113,0.137,0.188c-0.076,0.074-0.082,0.105-0.137,0.129H18555.607z
		 M21968.633,36453.621v-0.16c0.367-0.199,0.775-0.246,1.127-0.457c-0.352,0.203-0.232,0.105-0.879,0.457
		c-0.082,0.078-0.322,0.184-0.246,0.16H21968.633z M20698.883,36452.402c0.074,0,0.156-0.117,0.232-0.188c0,0-0.002,0.121,0,0.188
		C20699.039,36452.402,20698.957,36452.402,20698.883,36452.402z M21089.1,36452.23c-0.531-0.074-0.932-0.105-1.508-0.133
		c-0.279-0.09-0.518-0.227-0.85-0.262C21087.096,36449.266,21088.066,36450.125,21089.1,36452.23z M18276.301,36452.082
		c-0.076-0.074-0.121-0.121-0.174-0.188c0.084-0.074,0.129-0.098,0.174-0.152c0.074,0,0.09,0,0.135-0.141
		c0.33,0,0.322,0.098-0.135,0.309V36452.082z M22006.426,36451.559c-0.713-0.168-1.518-0.258-2.285-0.367
		c0.09-1.559,0.645-2.594,2.064-2.418c0.15,0,0.234,0.09,0.369,0.148c0.074,0.707-0.076,1.719-0.15,2.594L22006.426,36451.559z
		 M21267.646,36451.176h-0.309c0.174-0.578,0.354-1.203,0.57-1.496c0.164-0.223,0.396-0.383,0.584-0.586
		c-0.246,0.723-0.576,1.402-0.85,2.109L21267.646,36451.176z M21299.023,36450.527c-0.188,0,0.361-0.117,0.541-0.188
		c0.232,0,0.471,0,0.703,0C21299.85,36450.418,21299.439,36450.5,21299.023,36450.527z M22079.098,36449.695h0.076
		c0,0,0.121-0.152,0.09-0.152c-0.098,0-0.076,0.152-0.158,0.152H22079.098z M21032.623,36448.578
		c-0.285-0.215,0.512-0.102,0.428-0.141C21032.93,36448.438,21032.721,36448.617,21032.623,36448.578z M22028.699,36447.496
		c-0.744-0.262-1.422-0.645-2.125-0.996c0.42,0.098,0.111-0.004,0.762,0.148c0.52,0.129,1.869,1,1.363,0.82V36447.496z
		 M22023.279,36446.633c0.539-0.105,0.742-0.234,0.791-0.355c-0.076,0-0.121,0.09-0.188,0.121c-0.193,0.082-0.842,0.277-0.6,0.234
		H22023.279z M21311.424,36446.309c0,0,0,0.008,0.09,0H21311.424z M18375.473,36444.594c0.316-0.672,1.107-1.043,1.904-1.289
		c-0.217,0.641-0.254,0.824-0.457,1.289H18375.473z M24069.699,36428.938v-0.172h0.156
		C24069.855,36428.758,24069.645,36428.938,24069.699,36428.938z M24141.477,36392.727v-0.188h0.09
		C24141.566,36392.539,24141.49,36392.727,24141.477,36392.727z M24141.625,36392.539v-0.078h0.076
		c0.217-0.148,0.361-0.074,0.762-0.172c-0.24,0.098-0.547,0.137-0.791,0.219L24141.625,36392.539z M22198.9,36070.695
		c0.754-0.762,1.514-1.523,2.256-2.285c7.262,0.809,14.529,1.551,21.797,2.285H22198.9z M24076.527,36069.348
		c-0.137-0.645-0.287-1.25-0.412-1.859c0.111,0.172,0.074,0.074,0.186,0.246c0.105,0.438,0.262,1.004,0.398,1.48
		c-0.076,0-0.121,0.098-0.172,0.137V36069.348z M24151.713,36065.234c0.076-0.129,0.076-0.309,0.137-0.445
		c0.381-0.734,1.689-2.824,1.436-2.035c-0.256,0.793-0.27,0.98-0.459,1.566c-0.344,0.285-0.719,0.617-1.055,0.895
		L24151.713,36065.234z M23263.113,36061.512c-2.189,0.074-4.545,0.074-6.752-0.156c-1.744-0.074-3.318-0.324-4.746-0.457
		c6.387-0.078,12.775-0.137,19.16-0.172c4.09-0.09-1.088,0.477-7.662,0.613V36061.512z M24072.438,36041.855v-0.121
		c0-0.082,0.09-0.211,0.09-0.129c0,0.098,0.008,0.113-0.09,0.246V36041.855z M24076.613,36039.512
		c-0.232-0.293-0.391-0.602-0.602-0.91c0.076,0,0.164-0.105,0.232-0.105c0-0.074-0.121-0.238-0.074-0.172
		c0.074,0.078,0.074,0.121,0.104,0.188c0.082,0.27,0.541,1.195,0.369,0.996L24076.613,36039.512z M24074.752,36038.91v-0.074
		c-0.193-0.219-0.391-0.445-0.645-0.48c-0.135-0.969-0.246-1.98-0.412-2.609c-0.172-0.656-0.518-1.258-0.82-1.875
		c1.176,1.422,2.07,3.105,3.121,4.66c-0.346,0.121-0.779,0.262-1.246,0.367L24074.752,36038.91z M24156.727,36037.695
		c0.18,0.184-0.486-0.25-0.584-0.461c-0.074-0.117,0.164,0.078,0.307,0.152c0.166,0.172,0.098,0.074,0.279,0.246
		L24156.727,36037.695z M24153.592,36031.996c0-0.406-0.121-1.633-0.074-1.23c0.074,0.41,0.096,0.816,0.119,1.23H24153.592z
		 M24598.246,36027.074V36027c0.074-0.363,0.127-0.699,0.186-1.055c0.713,0.102,1.41,0.27,2.125,0.367
		c-0.758,0.285-1.521,0.512-2.285,0.762H24598.246z M24070.537,35998.641v-0.074c0.074-0.074,0.104-0.105,0.172-0.188
		c0,0.074-0.09,0.164-0.09,0.188c0,0.074-0.074,0.074-0.09,0.074H24070.537z M24067.842,35997.383v-0.105
		c-0.074-0.238-0.111-0.5-0.158-0.762c0.076-0.098,0.121-0.211,0.158-0.309c-0.074,0-0.172,0.137-0.188,0.137
		c-0.004,0,0,0.004,0-0.137c0.09-0.074,0.172-0.109,0.262-0.156v0.129h0.174c0,0.449-0.006,0.832-0.188,1.172L24067.842,35997.383z
		 M24067.842,35996.035c0-0.078,0.09-0.105,0.09-0.137c0.002,0.074,0,0.121,0,0.121L24067.842,35996.035z M24067.932,35996.035
		c0.301-0.211,0.568-0.43,0.879-0.633c0.006,0.078,0,0.113,0,0.172C24068.51,35995.742,24068.277,35995.84,24067.932,35996.035z
		 M24067.475,35995.227c-0.195-0.898-0.309-1.23-0.512-2.297c-0.074-0.316-0.594-0.445-0.631-0.762c0-0.301,0.488,0.457,0.631,0.719
		c0.262,0.488,0.576,0.988,0.775,1.508c0,0.285-0.096,0.555-0.119,0.836L24067.475,35995.227z M24052.504,35988.328
		c0.002,0-0.002-0.09,0.088-0.105c0,0,0.594-0.465,0.982-0.789c-0.344,0.293-0.684,0.578-1.025,0.879L24052.504,35988.328z
		 M24046.248,35986.543c0,0,0.002-0.078,0-0.09c-0.09-0.496,1.07-1.699,0.777-1.289c-0.33,0.465-0.512,0.918-0.777,1.375V35986.543z
		 M24147.334,35978.809c-0.451-0.586-0.842-0.984-0.338-1.773C24147.086,35977.637,24147.215,35978.211,24147.334,35978.809z
		 M24278.77,35972.539v-0.16c0.563-0.18,1.121-0.32,1.686-0.457c-0.076,0.074-0.143,0.113-0.158,0.156
		c-0.494,0.129-1.02,0.324-1.523,0.461H24278.77z M24145.494,35954.359l-0.074-0.074c-0.232-0.543-0.895-2.156-0.719-1.629
		c0.209,0.406,0.51,1.109,0.762,1.672L24145.494,35954.359z M27556.721,35939.27c0.074-0.184,0.734-1.105,1.846-2.563h0.893
		C27557.943,35938.254,27556.664,35939.504,27556.721,35939.27z M24140.395,35930.598c-0.074-0.246,0.098-0.785,0.309-1.535h0.074
		c0.076,0.109,0.09,0.082,0.145,0.23l-0.137-0.164c-0.074,0.398-0.121,0.855-0.135,1.129c-0.076,0.074-0.203,0.285-0.262,0.336
		L24140.395,35930.598z M24140.539,35929.074c-0.549-0.574-1.084-1.137-1.48-1.816c-0.367-0.621-0.547-2.059-0.705-2.988
		l0.121,0.137c0.512,1.012,1.104,2.246,2.125,4.527c0.135-0.488,0.119-0.57,0.217-0.938c-0.082,0.555-0.098,0.734-0.121,1.055
		c-0.074-0.074-0.172-0.074-0.172-0.105v0.074L24140.539,35929.074z M24138.078,35898.387c0.135,0.84-0.852-1.711-0.496-2.52
		c0-0.074,0.145-0.109,0.145-0.141c0.156,0.832,0.328,1.641,0.465,2.621L24138.078,35898.387z M34666.578,35898.387v-0.074
		c-1.02,0.563,1.832-1.434,2.828-2.035c0.828-0.496,1.68-0.938,2.52-1.395h0.141c0.074,0,0.086,0.086,0.152,0.121
		c0.004-0.141-0.004-0.203,0.352-0.457c0.293,0.137,0.594,0.324,0.879,0.457c-0.281-0.141-0.574-0.32-0.852-0.457
		c0.074-0.074,0.383-0.105,0.453-0.172h2.957c-0.422,0.129-2.086,0.691-2.418,0.777c-0.805,0.219-1.277,0.227-1.434,0.121h-0.094
		c0,0,0.102-0.105,0.094-0.121c-1.859,1.078-3.691,2.184-5.566,3.223L34666.578,35898.387z M36707.328,35896.57
		c0.074-0.195,0.277-0.668,0.559-1.273h1.566C36708.215,35896.203,36707.273,35896.887,36707.328,35896.57z M34672.203,35894.184
		c-0.074,0-0.074-0.09-0.074-0.09h0.16c-0.074,0-0.086,0.074-0.094,0.09H34672.203z M23934.453,35891.004
		c-0.002-0.074,0.008-0.09-0.09-0.09h0.135L23934.453,35891.004z"/>
	<g>
		<path id="_x32__x5F_3g" fill="#0000FF" d="M68627.047,38477.25v2013.676h1794.82v-4027.352h-1794.82V38477.25z"/>
		<path id="_x31__x5F_3g" fill="#0000FF" d="M66040,38435v2025h1819.797v-4049.898H66040V38435z"/>
		<path id="_x34__x5F_3f" fill="#0000FF" d="M63303,38435v2024.602h1816.699v-4049.199H63303V38435z"/>
		<path id="_x33__x5F_3f" fill="#0000FF" d="M60709,38478v2024.602h1816.699v-4049.199H60709V38478z"/>
		<path id="_x32__x5F_3f" fill="#0000FF" d="M58060,38445v2024.602h1816.699v-4049.199H58060V38445z"/>
		<path id="_x31__x5F_3f" fill="#0000FF" d="M55335,38467v2024.602h1816.699v-4049.199H55335V38467z"/>
		<path id="_x34__x5F_3e" fill="#0000FF" d="M52567,38467v2024.602h1816.699v-4049.199H52567V38467z"/>
		<path id="_x33__x5F_3e" fill="#0000FF" d="M50115,38456v2024.602h1816.699v-4049.199H50115V38456z"/>
		<path id="_x32__x5F_3e" fill="#0000FF" d="M47445,38489v2024.602h1816.699v-4049.199H47445V38489z"/>
		<path id="_x31__x5F_3e" fill="#0000FF" d="M44917,38456v2024.602h1816.699v-4049.199H44917V38456z"/>
		<path id="_x34__x5F_3d" fill="#0000FF" d="M42312,38424v2024.602h1816.699v-4049.199H42312V38424z"/>
		<path id="_x33__x5F_3d" fill="#0000FF" d="M39664,38424v2024.602h1816.699v-4049.199H39664V38424z"/>
		<path id="_x32__x5F_3d" fill="#0000FF" d="M36917,38435v2024.602h1816.699v-4049.199H36917V38435z"/>
		<path id="_x31__x5F_3d" fill="#0000FF" d="M34093,38456v2024.602h1816.699v-4049.199H34093V38456z"/>
		<path id="_x34__x5F_3c" fill="#0000FF" d="M31236.998,38435v2024.602h1816.701v-4049.199h-1816.701V38435z"/>
		<path id="_x33__x5F_3c" fill="#0000FF" d="M28653.998,38445v2024.602h1816.699v-4049.199h-1816.699V38445z"/>
		<path id="_x32__x5F_3c" fill="#0000FF" d="M25917.998,38467v2024.602h1816.699v-4049.199h-1816.699V38467z"/>
		<path id="_x31__x5F_3c" fill="#0000FF" d="M23083.998,38544v2024.602h1816.699v-4049.199h-1816.699V38544z"/>
		<path id="_x34__x5F_3b" fill="#0000FF" d="M20091.998,38528v2024.602h1816.699v-4049.199h-1816.699V38528z"/>
		<path id="_x33__x5F_3b" fill="#0000FF" d="M17431.998,38580v2024.602h1816.699v-4049.199h-1816.699V38580z"/>
		<path id="_x32__x5F_3b" fill="#0000FF" d="M14596.998,38569v2024.602h1816.699v-4049.199h-1816.7L14596.998,38569z"/>
		<path id="_x34__x5F_3g" fill="#0000FF" d="M68720,45920v2024.602h1816.703v-4049.199H68720V45920z"/>
		<path id="_x33__x5F_3g" fill="#0000FF" d="M66071,45887v2024.602h1816.703v-4049.199H66071V45887z"/>
		<path id="_x34__x5F_3h" fill="#0000FF" d="M63346,45909v2024.602h1816.699v-4049.199H63346V45909z"/>
		<path id="_x33__x5F_3h" fill="#0000FF" d="M60578,45909v2024.602h1816.699v-4049.199H60578V45909z"/>
		<path id="_x32__x5F_3h" fill="#0000FF" d="M58126,45898v2024.602h1816.699v-4049.199H58126V45898z"/>
		<path id="_x31__x5F_3h" fill="#0000FF" d="M55456,45931v2024.602h1816.699v-4049.199H55456V45931z"/>
		<path id="_x34__x5F_3i" fill="#0000FF" d="M52928,45898v2024.602h1816.699v-4049.199H52928V45898z"/>
		<path id="_x33__x5F_3i" fill="#0000FF" d="M50323,45865v2024.602h1816.699v-4049.199H50323V45865z"/>
		<path id="_x32__x5F_3i" fill="#0000FF" d="M47675,45865v2024.602h1816.699v-4049.199H47675V45865z"/>
		<path id="_x31__x5F_3i" fill="#0000FF" d="M44928,45876v2024.602h1816.699v-4049.199H44928V45876z"/>
		<path id="_x34__x5F_3j" fill="#0000FF" d="M42104,45898v2024.602h1816.699v-4049.199H42104V45898z"/>
		<path id="_x33__x5F_3j" fill="#0000FF" d="M39248,45876v2024.602h1816.699v-4049.199H39248V45876z"/>
		<path id="_x32__x5F_3j" fill="#0000FF" d="M36665,45887v2024.602h1816.699v-4049.199H36665V45887z"/>
		<path id="_x31__x5F_3j" fill="#0000FF" d="M33929,45909v2024.602h1816.699v-4049.199H33929V45909z"/>
		<path id="c1_3b" fill="#0000FF" d="M14509.998,41022h-2024.6v1816.699h4049.199V41022H14509.998z"/>
	</g>
	<g>
		<path id="_x31__x5F_3a" fill="#FF0000" d="M9870.698,45475v435h1816.7v-870h-1816.7V45475z"/>
		<path id="_x34__x5F_3a" fill="#FF0000" d="M10067.998,39292v435h1816.7v-870h-1816.7V39292z"/>
		<path id="_x35__x5F_3k" fill="#FF0000" d="M12589.998,47051v435h1816.7v-870h-1816.7V47051z"/>
		<path id="c1_3a" fill="#FF0000" d="M24387.998,44402v435h1816.699v-870h-1816.699V44402z"/>
		<path id="c2_3d" fill="#FF0000" d="M43306,42032v418.578h1521.199v-837.172H43306V42032z"/>
	</g>
	<g>
		<path id="_x31__x5F_3b" fill="#00FF00" d="M12475.998,39264v730.488h1816.7v-1461h-1816.7V39264z"/>
		<path id="_x32__x5F_3a" fill="#00FF00" d="M7802.797,42241v730.488h1816.701v-1461H7802.797V42241z"/>
		<path id="_x33__x5F_3a" fill="#00FF00" d="M10253.998,41256v730.488h1816.7v-1461h-1816.7V41256z"/>
		<path id="c1_3g" fill="#00FF00" d="M67234,42037v415h1816.703v-830H67234V42037z"/>
		<path id="c2_3h" fill="#00FF00" d="M63414,41917v415h1816.699v-830H63414V41917z"/>
		<path id="c1_3h" fill="#00FF00" d="M60645,41982v415h1816.699v-830H60645V41982z"/>
		<path id="c3_3e" fill="#00FF00" d="M58128,41982v415h1816.699v-830H58128V41982z"/>
		<path id="c2_3e" fill="#00FF00" d="M54976,42081v415h1816.699v-830H54976V42081z"/>
	</g>
	<g>
		<path id="c1_3e" fill="#FFFF00" d="M49687,42033v441.5h2647v-883h-2647V42033z"/>
		<path id="c1_3j" fill="#FFFF00" d="M45747,42055v441.5h2647v-883h-2647V42055z"/>
		<path id="c1_3d" fill="#FFFF00" d="M39750,42012v441.5h2647v-883h-2647V42012z"/>
		<path id="c2_3b" fill="#FFFF00" d="M26594.998,41968v441.5h2647v-883h-2647V41968z"/>
		<g>
			<path id="_x34__x5F_3k" fill="#FFFF00" d="M16536.998,46080h-441.5v1742.199h883V46080H16536.998z"/>
			<path id="_x33__x5F_3k" fill="#FFFF00" d="M18900.998,46130h-441.5v1714.398h883V46130H18900.998z"/>
			<path id="_x32__x5F_3k" fill="#FFFF00" d="M18830.998,43875h-441.5v1714.398h883V43875H18830.998z"/>
			<path id="_x31__x5F_3k" fill="#FFFF00" d="M16478.998,43944h-441.5v1714.398h883V43944H16478.998z"/>
		</g>
	</g>
	<path id="c3_3b" fill="#008000" d="M35241,42022v452.441h3456.801v-904.891H35241V42022z"/>
</g>
</svg>
