<?xml version="1.0" encoding="utf-8"?>
<!-- Generator: Adobe Illustrator 17.0.0, SVG Export Plug-In . SVG Version: 6.00 Build 0)  -->
<!DOCTYPE svg PUBLIC "-//W3C//DTD SVG 1.1//EN" "http://www.w3.org/Graphics/SVG/1.1/DTD/svg11.dtd">
<svg version="1.1"
	 id="Calque_1" xmlns:rdf="http://www.w3.org/1999/02/22-rdf-syntax-ns#" xmlns:cc="http://creativecommons.org/ns#" xmlns:dc="http://purl.org/dc/elements/1.1/"
	 xmlns="http://www.w3.org/2000/svg" xmlns:xlink="http://www.w3.org/1999/xlink" x="0px" y="0px" width="14400px" height="3800px"
	 viewBox="-4027.1 -1257.45 14400 3800" enable-background="new -4027.1 -1257.45 14400 3800" xml:space="preserve">
<g transform="matrix(.1 0 0 -.1 -734.22 4856.6)">
	<path d="M3170.341,24164.035c-4.971,0.223-10.313,0.223-15.325-0.465c-3.955-0.223-7.529-0.953-10.769-1.355
		c14.492-0.221,28.994-0.4,43.477-0.508c9.282-0.266-2.466,1.418-17.383,1.818V24164.035z"/>
	<path d="M760.522,24184.438c16.479,2.381,32.971,4.574,49.463,6.756h-54.583
		C757.114,24188.943,758.835,24186.686,760.522,24184.438z"/>
	<path d="M-17417.564,56614.898v-2.469c19.775-21.508,39.791-42.688,59.566-64.195c4.35-2.891,6.986-4.316,8.51-4.805v2.898
		C-17355.982,56555.727-17387.779,56586.293-17417.564,56614.898z"/>
	<path d="M111019.477,61005.895c-11.352,0-22.672,26.602-22.672,59.129c0,59.141-22.703,59.125-31000.445,59.125
		c-17051.516,0-31512.719,5.914-32139.02,11.824c-311.996,2.961-610.355,4.465-839.254,4.465l0.898,0.063
		c-228.836,0-388.223-1.504-422.246-4.461c-68.078-5.914-1563.504-59.125-3324.359-115.309
		c-10007.277-325.285-13252.324-431.715-14046.441-458.332c-712.547-26.613-8756.881-286.871-22204.928-724.512
		c-755.649-23.656-1965.205-65.051-2689.031-88.711c-723.877-23.656-2341.843-76.855-3596.667-118.25
		c-2203.472-70.973-5207.869-168.586-16753.682-547.09c-2993.163-97.582-5450.737-171.512-5459.755-165.598
		c-9.078,8.871-118.014-2.938-242.828-26.594c-4045.971-754.055-7524.691-3850.105-9551.166-8501.496
		c-1558.955-3575.094-2060.514-7815.531-1404.645-11872.551c701.191-4349.773,2686.816-8179.252,5523.238-10651.434
		c1547.602-1348.422,3185.99-2197.086,5105.756-2640.732c254.146-59.145,335.855-62.086,3512.76-59.131
		c2189.857,0,3249.472-8.885,3249.472-29.582s714.805-29.584,2178.452-29.584c1436.421,0,2178.457,8.887,2178.457,29.584
		s335.84,29.582,964.409,29.582c628.574,0,964.409-8.885,964.409-29.582s381.245-29.584,1100.596-29.584
		c719.355,0,1100.566,8.887,1100.566,29.584s696.646,29.582,2042.3,29.582c1529.463,0,2042.302-8.902,2042.302-35.518
		c0-23.654,712.524-29.543,2888.665-17.719c1588.452,11.828,3328.955,11.828,3868.972,0l980.307-14.77v-907.836h-6.018
		c-0.356-1.684-0.696-3.537-1.038-5.111c4.895-4.457,5.63-7.729-1.895-8.707c0.188,1.066,0.359,2.268,0.527,3.379
		c-1.873-3.828-2.122-2.631,0.308,6.021c-1.565,1.354-3.645,2.842-5.684,4.33h-2.261c0-0.91,0.237-1.705,0.237-2.902
		c2.256-4.357,4.019-8.072,5.085-11.045c0.562,0,1.26-0.016,1.763,0.223c-0.203-1.24-0.593-2.367-0.835-3.553
		c1.106-4.322,1.411-8.613,1.326-15.68c0-6.564-0.012-3.361-0.356-9.814c0.088,1.15,0.2,2.627,0.256,3.533
		c0-4.027,0.291-7.732,0.374-11.826c0-1.662,0-7.146,0.171-10.916c1.87-5.641,3.54-11.363,4.619-17.326
		c0.698-3.84-1.758-7.57-2.625-11.35c-0.596-1.531-1.04-3.205-1.794-4.59c7.219-3.752,0.422-9.926-8.279-15.248
		c0.203,0.531,0.342,1.088,0.527,1.598c-0.559-0.889-1.191-1.641-1.829-2.426c0.464,0.266,0.698,0.465,1.16,0.73
		c-0.251-0.688-0.439-1.396-0.696-2.084c-0.781-1.977-1.721-4.002-2.661-5.848c-0.989-4.971-1.177-6.65-1.763-10.137
		c3.296-10.953,4.341-15.453-0.305-30.063c-1.228-3.957-1.804-5.787-2.427-7.018c0.884-14.271,1.16-26.908-1.895-3.682
		c-0.837-1.84-1.667-3.686-2.493-5.543v-5.371c0-0.602-0.171-1.133-0.171-1.729l0.308-0.551c0.254-0.309,0.901-0.977,1.089-1.262
		c-0.425,1.109-0.82,2.246-1.194,3.377c0.291-0.572,0.632-1.195,0.835-1.861c0.203-0.732,0.237-1.018,0.391-1.51
		c0,0-0.002-0.223,0.171-0.311c3.042-3.85,3.674-7.082,3.257-11.393c5.132-7.803,7.629-17.66,7.48-28.023
		c0.439-1.154,0.698-2.129,2.192-7.408c-0.439,1.174-1.687,4.771-1.326,3.553c2.188-7.359,3.882-10.748,4.39-15.031
		c1.953-5.35,1.724-8.613,4.155-18.627c-0.254,0.824-0.222,0.775,0-0.773c0.186-1.684,0.476-3.33,0.559-5.023
		c0.562-10.684-0.461-20.561-3.821-30.453c-0.715-1.797-2.261-7.375-2.129-5.371c-0.51-1.977-1.006-3.941-1.829-5.717
		c-0.901-1.951-2.078-3.602-3.289-5.242c-0.171-1.885-0.562-3.59-0.869-5.371c2.485-3.152,4.78-8.117,6.514-12.043
		c3.237-10.975,3.882-10.373,3.923-23.086c0-2.041-0.374-4.02-0.667-6.021c0.649-10.57,0.171-20.225-2.49-30.236l0.168-0.221
		c0.188,1.418,0.408,3.221,0.562,2.469c0.22-1.018,0-2.105,0-3.162c3.25-4.168,3.943-7.494,6.018-17.195
		c0.168-1.377,0.288-3.354,0.339-4.16c0.439-2.063,0.715-2.9,1.257-5.631c1.277-6.41,0.425-16.908,0.276-23.607
		c-0.479-21.182-0.408-42.379,0.422-63.545c0.171-2.744,0.222-5.49,0.376-8.23c0.439-1.174,0.51-1.533,0.869-2.598v-1.377
		c0.168,0.223,0.371,0.467,0.371,0.688c2.188-6.563,3.193-11.037,2.844-7.51c0.205-1.783,0.408-3.566,0.618-5.355
		c0.205-0.643,0.391-1.287,0.596-1.949c-0.171,0.223-0.171,0.332-0.237,0.424c0.168-0.797,0.168-1.619,0.273-2.426
		c0.171-0.531,0.171,0.953,0,1.684c2.261-7.055,4.321-14.277,6.78-21.182c-9.119-32.85,5.427,19.482-4.053-15.941
		c0.168-1.928,0.391-3.822,0.356-7.32c-0.171-4.715-0.308-9.441-0.308-14.164v-3.508c0-15.48-2.788-27.328-6.948-35.953v-138.57
		c0-218.824,2.266-236.529,52.188-251.32c27.234-8.871,23881.314-17.738,53009.645-23.65l52956.887-6.109v18934.25
		C111042.18,54674.965,111035.367,61005.895,111019.477,61005.895z M22247.939,60178.059l290.447,2.945
		c158.85,0,941.74,26.625,1740.553,53.238c798.762,29.57,1577.1,56.168,1731.361,59.125l276.803,2.898v-2572.645h-4039.164
		V60178.059z M26288.125,57575.738v-2424.723h-4039.164v2424.723H26288.125z M-2691.024,59344.078l347.156,17.715
		c188.35,11.832,3031.626,106.461,6312.925,209.957c5604.93,180.379,6206.385,201.102,6451.465,215.891l95.415,5.898v-538.172
		c0-298.672-6.813-990.625-15.889-1537.691l-13.628-999.473H-2691.024V59344.078z M11189.853,50972.633
		c394.844-11.828,1009.783-20.707,1366.064-20.707c356.265,0,794.251-8.875,973.514-20.703l322.243-17.715v-5668.703H3669.946
		l-15.889,2685.094c-6.807,1475.57-20.41,3232-29.482,3903.328l-14.014,1218.215h6859.925v-2061.094L11189.853,50972.633z
		 M-2699.051,54902.555l15.857,1638.223l5493.792,8.883c3022.61,2.953,5986.157,8.855,6589.826,14.77l1093.755,5.938v-748.152
		c0-413.996-6.836-1170.996-15.891-1685.527l-13.594-937.375H3888.483c-4586.16,0-6580.808,8.875-6589.827,32.531
		C-2710.418,53246.629-2710.399,54000.641-2699.051,54902.555z M-21730.352,34087.891c0-1046.801-6.813-3444.91-15.889-5325.607
		l-13.6-3424.283l-115.742,17.758c-229.199,41.398-1014.34,257.242-1352.465,372.564
		c-1286.646,446.512-2609.547,1215.357-3710.182,2149.803c-794.232,677.16-1425.049,1345.494-2098.975,2223.789
		c-973.496,1268.582-1731.361,2622.994-2360.049,4216.707c-195.16,487.914-510.561,1407.57-555.951,1605.688l-13.678,64.988
		h10236.529V34087.891z M-21707.037,43139.488c0-1582.023-6.816-3805.746-15.889-4938.379l-13.598-2064.02l-5142.008,20.703
		c-2827.396,8.871-5144.385,20.699-5148.813,23.652c-18.154,17.746-220.107,822.074-308.609,1227.199
		c-329.033,1499.234-490.172,3027.965-490.172,4657.383c0,1241.965,113.502,2584.402,313.156,3681.547l38.594,221.781
		l2326.01,14.773c1279.844,8.871,3701.162,17.734,5384.869,23.648l3056.459,5.98V43139.488z M-21674.713,53681.281
		c-4.541-2779.57-15.893-5597.73-22.705-6265.953l-13.623-1215.379l-2364.477-17.719
		c-1298.004-11.828-3712.398-20.703-5364.449-20.703c-2850.199,0-3002.182,2.961-2990.781,53.234
		c6.813,26.613,43.096,198.129,81.676,375.563c844.15,3888.469,2725.277,7253.758,5309.984,9498.176
		c1266.227,1100.027,2698.053,1904.355,4198.125,2359.738c276.846,85.758,1043.818,275.008,1127.793,277.957l47.529,2.801
		L-21674.713,53681.281z M110884.32,27165.225v-3870.729l-20574.492,17.717c-11182.961,11.689-34497.883,20.412-52182.52,20.617
		c0.168-0.996-0.191-0.4-0.305,0H5160.47v284.99c-1.16,2.383-2.314,4.766-3.357,7.711c-0.781,2.172-1.479,4.559-1.729,6.93
		c-2.144,7.852-1.396,15.904-1.362,23.998c-3.02,7.027-4.678,15.133-6.016,23.002c-0.684,3.963,0.867,8.045,1.46,12.041
		c0,0.844-0.168,1.707-0.168,2.557c-0.171,2.604,0,5.234,0,7.838c0.168,5.611,0,11.242,0,16.852v10.352c0,0.711-0.171,1.441,0,2.129
		c1.274,6.389,2.788,12.67,4.187,19.016c-1.631-0.73,0,1.754,2.427,5.025c-0.422,3.156,0.73,6.385,1.519,9.6
		c-0.435-2.061-0.723-4.725-0.974-6.666l0.276,0.4c1.157,2.996,2.505,6.639,4.819,13.387c0.308-1.441,0.273-1.686,0.493-2.773
		c-0.186,1.641-0.22,2.172-0.273,3.119c-0.171-0.221-0.391-0.221-0.391-0.309v0.221l0.034,0.164
		c-1.243-1.707-2.461-3.363-3.359-5.371c-0.166-0.371-0.308-0.893-0.442-1.426c0.039,0.176,0.093,0.352,0.127,0.525
		c-2.708-5.475-6.433-4.537,3.757,11.35c0,2.02-0.01,3.762,0,7.84c0.254,13.813,2.69,24.707,6.348,32.92
		c-0.952,8.313,0.254,16.146,5.452,29.5c0.461,1.174,1.379,3.043,2.261,4.678v15.465c0,6.389-0.291,12.939,0.171,19.318
		c0,0.223,0.203-0.223,0.203-0.309c0.22-1.484,0.439-2.973,0.664-4.461c-1.377,8.381-1.616,16.914-1.006,25.383
		c-0.322,0.553-0.73,0.975-1.038,1.553c-3.533,7.225-3.533,17.729-3.757,26.207c0.308,6.27,0.205,5.383,0.938,11.393
		c0.168,1.018,0.22,4.072,0.459,3.074c0.293-1.174,0.308-1.51,0.562-2.598c-0.237,1.533-0.391,2.172-0.63,3.855
		c-0.222,1.598,0.459,3.199,0.698,4.807c2.708,14.566,5.164,33.793,11.665,45.484v0.307c-0.374,3.9-0.476,7.754-0.593,11.609
		c-2.598,7.434-3.835,15.801-3.391,23.564c0,4.869-1.396,8.457-0.801,14.121c1.138,10.732,2.742,14.814,6.382,21.484
		c2.563,6.277,4.309,9.137,7.014,12.477c1.106,5.592,2.9,10.736,4.954,15.723c-1.519,1.641-3.093,3.213-4.29,5.242
		c-9.98,16.926-10.542,37.664-3.923,55.531c-1.479,3.568-2.654,6.752-2.458,8.1c-0.254,1.729-0.527,3.438-0.803,5.154
		c-2.642,2.908-5.105,5.654-8.477,9.227c-5.288,5.605-3.66-14.293-4.553-25.252v-0.223c0-0.373-0.061-0.992-0.134-1.615
		c0.044,0.621,0.073,1.271,0.103,1.832c-0.544,10.932-1.616,21.014-2.759,31.49h-10.339v880.846
		c-2.107,1.73-3.672,5.436-4.221,12.561c-0.715,9.182-0.22,14.9,3.457,23.219c0.664,0.998,0.562,1.02,1.04,1.773
		c0.168,1.486,0.251,2.951,0.559,4.375c0.579,2.686,1.616,5.172,2.659,7.623c-0.168,2.75-0.322,5.502,0,8.361
		c0,0.754-0.168,1.641,0.376,2.25c0.203,0.377,0.203-0.951,0.273-1.373c1.106-3.469,4.438-13.9,3.491-10.354
		c-3.501,13.111-4.905,14.215-3.823,17.24c-0.356,0.555-0.732,0.998-1.04,1.596c-3.264,2.855-5.393,5.711-6.448,8.795
		c-0.325,0.266-0.496,0.354-0.869,0.645c-1.533,2.371-3.145,4.643-4.587,7.104c-0.493,0.842-0.747,1.82-1.121,2.771
		c-0.732,1.842-1.194,3.381-1.794,5.021c-0.632-1.771-1.074-2.871-1.729-4.721c-10.986,31.193-17.053,42.891-19.912,42.41
		c-0.171-14.338,0.171-28.668,0.764-42.969c5.601-45.676,17.283-109.389,12.3-94.301c-4.309,13.043-5.867,27.43-7.778,41.41
		c-2.439,17.846-3.706,35.387-4.521,52.891c-2.864,23.35-4.055,42.381-0.764,42.969c0,6.266,0.374,12.676,0.527,18.969
		c-37.869,2.313-74.844,12.613-111.489,24.777c-1.599,0.244-2.185,0.332-3.657,0.555h-0.422c-3.386,1.111-6.79,2.176-10.171,3.336
		c-1.14,0.313,3.552-2.105,5.452-2.557c0.835-0.221,1.685-0.354,2.524-0.555c-36.411,5.416-35.322,4.266-85.293,24.084
		c-48.23,19.131-77.007,39.574-91.545,60.904c-34.529-6.869-64.38,6.256-97.129,5.934c-8.894-19.652-30.947-22.092-81.14-22.092
		c-34.846,0-56.731,1.42-68.376,10.742c-11.597-10.414-4.802-7.984-19.412-11.352c-2.253,0.223-4.502,0.266-6.748,0.398
		c-1.431,0.221-2.856,0.51-4.29,0.688c-3.806,0.51-7.744,0.555-11.467,1.863c-2.327,0.82-4.619,1.908-6.914,2.861
		c-2.847,1.773-4.309,2.867-5.918,4.158c-1.055-0.223-2.629-0.311-3.423-0.486c-0.186-2.379-10.129,1.641-13.096,2.172
		c0,0,0-0.221-0.171-0.221c-1.379-0.223-2.747-0.355-4.121-0.355h-2.793c-20.12-15.16-38.489-14.355-46.404,6.717
		c-0.171,0-0.461,0.313-0.593,0.445c-0.75-0.645-1.348-0.975-2.063-1.551c0.171,0,0.205-0.223,0.308-0.223
		c0-0.223,0.171-0.287,0-0.355c-0.22-0.223-0.698-0.508-1.038-0.508c-5.93-4.639-9.949-6.016-9.341-0.398
		c-0.171-0.002-0.308,0.004-0.425,0c-1.494-0.223-2.998-0.398-4.487-0.598c-1.807-0.223-3.613-0.223-5.417-0.424
		c-0.359-0.221-0.852-0.375-1.04-0.555c-5.242-2.98-10.916-3.906-16.521-2.297c-1.616,0.467-3.193,1.266-4.819,1.732
		c-1.208,0.354-2.456,0-3.689,0c-2.021,0-2.866-0.016-4.404-0.264c0.466,0.109,0.913,0.277,0.579,0.264
		c-10.405-0.6-2.627-0.711-9.209-0.557c-3.14,0.223-6.365,0-9.507,0h-6.582c-1.687-5.346-4.922-6.668-18.879-14.467
		c-2.686-1.508-5.63,1.883-8.511,2.514c-0.168,0,0.171-0.512,0-0.535c-1.038-0.223-2.014,0.266-3.059,0.266
		c-1.121,0-2.275-0.018-3.389,0c-4.114-0.355-8.218-0.533-12.334-0.533c-3.54,0.82-6.963,1.396-10.137,3.162
		c-1.787-1.285-3.723-1.953-5.752-1.953c-5.483,0-10.078,3.709-13.926,10.354c-2.273-0.486-4.592-0.666-6.982,0
		c-16.699,4.08-33.115,10.736-49.395,18.582c-17.651-8.482-52.295-14.176-101.948-18.236c11.528-6.617,23.787-13.609,31.545-18.279
		c15.583-9.387,34.47,5.074,51.423,1.375c6.667-1.396-12.761-5.709-19.28-8.014c-11.909-4.203-23.984-7.686-35.967-11.523
		c-67.483-8.596-42.544-10.564-109.197,0.486c-3.921,0.621-15.439,1.354-11.699,2.99c25.664,11.307,51.648,21.742,77.583,31.967
		c-50.405-3.451-115.019-5.449-197.881-6.238l-317.747-6.279v75.023c-22.317-10.059-44.939-20.283-68.079-29.066v-43.184H1643.246
		v34.564c-20.305-7.027-43.562-14.342-68.076-22.135v-12.344h-226.831c-145.234,0-197.422,1.352-216.228,20.354H976.244
		c-7.615-23.447-18.447-23.457-26.792,0h-80.708c-4.092-12.861-19.382-15.961-46.868-11.475
		c-12.839,0.975-23.062,4.664-31.448,11.475H591.542c-8.96-16.037-27.048-20.354-62.324-20.354c-11.816,0-21.126,1.242-29.253,3.031
		c-0.713-0.863-1.326-1.863-2.261-2.559c1.194-6.268-0.405-4.633-2.991-1.309c-3.369-1.465-7.471-2.195-12.664-0.951
		c-0.632,0.221-1.177,0.016-1.797,0c0.835-0.932,1.948-1.619,3.923-1.91c-6.809-0.576-13.474-2.393-20.276-3.119
		c-10.244-1.084-18.916-1.641-29.087,1.82c-0.237,0-0.374,0.266-0.593,0.354c-1.599-0.244-2.805-0.863-4.321-1.596
		c-2.935-1.641-4.456-1.531-8.376-2.041c-0.918-0.223-1.841,0.02-2.759-0.223c-0.61-0.223-1.177-0.51-1.763-0.777
		c-0.781-0.355-1.582-0.73-2.361-1.086c-4.612-1.973-7.59-2.727-12.463-1.465c-0.781,0.223-1.519,0.621-2.295,0.82
		c-0.237,0,0.852-0.221,0.632-0.396c-0.374-0.268-0.732-0.016-1.16,0c-0.22-0.244-0.425-0.576-0.698-0.689
		c-2.29-0.951-3.633-0.951-5.85-1.686c-0.171,0-0.325-0.223-0.496-0.223l1.292,1c0.171,0.221,0.391,0.486,0.276,0.398
		c-0.593-0.313-1.177-0.621-1.763-0.955c-0.168-0.221-0.251-0.221-0.408-0.311c-0.168,0-0.251,0.006-0.391-0.221
		c-2.52-1.51-5.005-3.207-7.678-4.16c-1.191-0.42-2.424,0.334-3.655,0.557c-1.519,0.244-3.096,0.311-4.622,0.311
		c-1.396-0.223-2.791-0.311-4.187-0.311c-0.544,0-1.194-0.223-1.729,0c-2.329,0.598-4.617,1.307-6.882,2.248
		c-0.51,0.223-1.023,0.223-1.497,0.535c-0.422-0.02-0.801-0.355-1.226-0.355c-2.297,0-4.583,0.377-6.88,0.355h-1.829
		c-0.391,0-0.698-0.223-1.038,0c-1.846,0.443-3.628,1.02-5.452,1.506c-0.61,0.557-4.255,2.793-6.882,4.682
		c-0.439,0.244-0.747,0.287-1.055,0.445c-3.491,0.998-4.321,0.951-8.408,1.221c-1.826,0.223-3.662,0.285-5.486,0.443
		c-1.633-4.223-8.044,0.221-10.537,3.594c-0.732,1-1.26,2.154-1.763,3.336c-1.882-0.221-3.54-0.486-5.549-0.486
		c-19.404,0-30.166,2.57-33.508,10.828c-0.715-0.285-1.292-0.619-2.092-0.908c-6.575-0.621-4.502-0.932-10.439-0.557
		c-1.157,0-2.563,1.441-3.457,0.557c-0.835-0.865,2.236-0.01,3.159-0.557c0.339-0.242-0.171-1.109-0.308-1.506
		c-1.858-1.576-3.877-2.732-5.818-4.117c-12.957,0.223-11.26-0.576-15.325,2.514c0.171-0.223,0.01-0.334-0.339-0.398
		c-2.024-0.688-4.131-0.953-6.184-1.465c-5.725-1.285-11.492-1.063-17.217,0c-3.54,0.666-6.35,2.063-8.711,3.813
		c-11.226-7.488-19.556-4.758-25.828,8.793c-2.156,0.863-4.316,1.662-6.448,2.643c-0.461,0.223-0.903,0.555-1.292,0.953
		c-2.532,2.57-4.143,4.277-5.286,6.584c-0.374,0.223-0.461,0.244-0.425,0.688c0,0,0.237,0.008,0.356,0.508v0.355
		c-0.493-0.223-1.055-0.422-1.565-0.443c-1.106,0-1.78-0.01-2.627,0.443c0.308,1.021,0.75,2.197,0.935,4.072
		c0.425,0.354,0.649,0.777,1.055,1.133c-3.999-2.24-5.684-3.406-7.012-4.072c1.494-0.689,3.274-1.221,4.951-1.266
		c-1.292-4.123-3.481-2.041-5.649,0.865c0.186,0,0.544,0.221,0.698,0.354c-0.496,0.223-1.177,0.287-1.729,0.598
		c0.254-0.354,0.479-0.709,0.73-1.043c-1.274-0.531-2.288-0.531-5.217-0.531c-4.355,0-8.743-0.012-13.098,0.531
		c-2.683-0.01-5.364,0.014-8.044-0.531c-37.295-16.916-150.698-27.727-325.557-27.725h-315.417v0.82
		c-0.308,0-0.576-0.311-0.901-0.354c-0.935-0.223-2.656-0.377-3.689-0.508c-0.325,0-0.903-0.289-1.057,0
		c-0.439,0.465-0.664,0.998-1.038,1.373c0-0.221-0.188-0.354-0.342-0.553c-0.391-0.289-0.747-0.355-1.055-0.6
		c-1.277-0.756-2.839-1.195-4.321-1.041c-2.178-0.268-4.358-0.424-6.548-0.313c-0.308,0-0.732-0.02-1.04,0.313h-0.527
		c-2.002,0.244-1.89,0.221-3.457,0.645c-0.764-0.799-2.971,0.531-4.487,1.373c0.22,0.223,0.171,0.313,0.308,0.445
		c-0.562-0.223-1.038-0.02-1.497,0c0.171-0.223,0.239-0.334,0.425-0.555c-0.967-0.666-1.479-0.842-1.326,0
		c0.237,0.016,0.496,0,0.73,0c-0.168,0-0.288,0.443-0.322,0.555h-0.342c-0.171-0.223-0.015-0.445-0.291-0.445
		c0,0.223-0.171,0,0,0.445c-0.715,0-1.687-0.354-2.559-0.313c-0.649,0.223-1.533,0.008-2.627,0c-0.801,0-1.396,0.313-2.195,0.443
		c-1.138,0.223-2.202,0.912-3.323,1.176c0.171-0.221,0.593,0,0.339-0.355c-1.394-0.309-2.842-0.264-4.253-0.264
		c-1.904,0-3.745,0.756-5.552,1.354c0.186,0,0.291-0.51,0.356-0.51c0.239,0-0.422,0.465-0.664,0.51c0.171,0,0.22-0.01,0.273,0
		c-0.273,0-0.356,0.311-0.593,0.443h-0.308c-1.462-0.375-2.6-0.533-4.021-0.443c-0.903,0.002-1.799,0-2.693,0
		c-2.119,0-4.243,0-6.35-0.51c-1.274,0.223-1.631,0.287-2.061,0.51c-0.308,0-0.764-0.354-1.089-0.354v-4.246h-229.197
		c-157.756,0-205.747,1.641-215.364,23.174c0-0.508,0-0.953-0.305-1.375c0,0-1.208,0-1.729,0c0.186-0.223,0.73-0.311,1.038-0.311
		c-1.567-0.223-3.071-0.02-4.553,0.311c-0.918-0.008-1.96,0-2.195,0h-11.733c-4.629-3.195-9.47-5.598-15.156-4.939
		c-2.312,0.268-4.451,1.664-6.716,2.299c-0.835,0.242,1.599-0.865,2.395-1.266c0.801-0.313,3.188-0.398,2.424-0.82
		c-1.665-0.932-3.613-0.488-5.417-0.73c-0.632,0-4.871-0.313-6.582-0.533c-2.236-0.955-4.434-1.996-6.748-2.51
		c-6.455-1.441-12.041-0.756-18.247,2.771c-0.171,0-0.188,0.311-0.342,0.443c-0.171,0-0.308,0.006-0.356-0.311
		c-2.419-1.752-4.004-3.875-6.716-5.195c-2.795-1.375-5.742-2.107-8.608-3.207c-3.147,0-5.764,0.221-8.342,0.354
		c-0.293-0.377-0.667-0.953-1.006-1.309c-6.816-7.219-11.335-4.189-17.817-3.508c-3.196-0.287-6.475-0.555-9.673-0.555
		c-2.71-0.223-5.396,0-8.11,0c-0.513-0.266-1.226-0.223-1.763-0.398c-2.48-0.375-4.978-1.596-7.48-1.375
		c-2.427,0-4.771,0.953-7.146,1.375c-3.943,1.111-6.755,2.703-9.573,4.895c-5.142-7.328-10.981-6.674-16.289,2.086
		c-1.038-2.107-1.978-2.197-2.856,3.594c-0.171-0.006-0.239,0-0.308,0c-4.539-0.221-2.632,0-6.882-0.354
		c-1.208,0-2.51-1.133-3.623-0.508c-0.461,0.242-1.194,0.332-1.704,0.553c-2.522-0.287-5.222-0.553-8.076-0.553
		c0,0-1.497-1.178-1.729-1.355c-0.544-1.418-1.396-2.598-4.688-6.582c-7.188-8.67-15.444-14.928-24.797-18.541
		c-0.356-0.221-0.732-0.313-1.04-0.51c1.497,1.154,3.345,2.404,2.759,2.25c-1.069-0.73-2.158-1.486-3.188-2.297
		c0,0-0.342-0.264-0.425-0.264h-0.273c-0.212-0.16-0.349-0.246-0.552-0.4c0.181,0.166,0.366,0.338,0.552,0.488
		c-1.006-0.264-2.017-0.531-3.027-0.82c-0.901-0.973-0.901-0.951-1.055-1.352c-5.298-1.641-10.337-1.688-15.522,0.443
		c-2.268,0.887-4.363,2.328-6.548,3.51c-1.177,0.82-2.202,1.928-3.325,2.814c-0.952,0-1.858,0.576-2.627,1.375
		c-1.943,1.885-3.311,3.457-4.885,5.197c-1.497-2.502-3.091-4.658-4.753-5.803c-4.326-2.965-6.814-3.883-9.375-4.42
		c-2.495-2.387-3.198-2.621-10.703-5.848c0.715,0,2.673,0.756,2.163,0c-0.938-1.195-2.427-1.641-3.657-2.25
		c-3.303-1.598-7.83-3.465-11.27-2.771c-3.643,0.73-6.919,3.611-10.537,4.547c-1.777,0.465,3.254-2.129,4.888-3.16
		c0,0,0.439-0.578,0.322-0.555c-5.205,1.375-9.692,2.576-13.594,7.666c-1.177,0.223-2.378,0.355-3.525,0.555
		c-2.317,0.598-4.517,1.885-6.814,2.557c0.764-1.465-0.168-0.756-2.991,0.486c-5.947,0-11.665,2.656-17.185,5.371
		c2.385-0.221,4.795,0.334,7.18,0.51c-6.968,3.184-13.726,7.391-20.908,9.617c-1.365,0.422,1.758-2.855,2.856-3.986
		c1.089-1.109,2.378-1.975,3.657-2.686c1.089-0.598,4.492-1.086,3.357-1.375c-1.533-0.555-3.145,0.396-4.719,0.598
		c-1.072,0.223-2.153,0.223-3.225,0.355c-4.744,0-4.88,1.084-11.301,2.295c-0.325,0,1.138-0.354,0.835-0.465
		c-0.781-0.311-1.616,0.443-2.427,0.465h-1.763c-2.939-0.488-5.977-0.488-8.94-0.465c-1.023,0-2.041-0.223-3.057,0
		c-2.288,0.354-4.546,0.93-6.816,1.354c-0.869,0.332-1.736,0.709-2.593,1.041c-2.571,1.223-5.193,2.295-7.678,3.813l-0.391,0.508
		c0.544,0.223,1.023,0.355,0.698,0.445h-1.038c-1.16,0.889-2.19,2.107-3.391,2.947c-0.969,0.686,1.731-1.42,2.527-2.686
		c-2.727,0-5.42-0.398-8.145-0.398c-1.567,0-3.125,0.221-4.688,0.398c-2.917,0.354-3.889,0.332-6.348,0.508
		c-0.513,0-0.75-0.398-1.057-0.488c-0.918-0.223-1.831-0.422-2.759-0.422h-6.848c-3.989-0.223-8.022,0.377-12,0
		c-0.73,0-1.497-0.422-2.227-0.51c-3.63-0.619-5.974-1.152-9.507-1.354c-6.379-0.332-12.764,0.666-19.146,0.557
		c-4.25-0.223-8.511-0.004-12.766,0h-2.825c-4.133-0.004-6.14,0.285-9.839,1.354c0-0.014-0.276-0.004-0.276-0.004
		c-0.168,0.006-0.322,0.008-0.356,0.004h-0.339c-0.408,0.221-0.479,0.287-1.057,0.508c0-0.221,0.342-0.287,0.342-0.508
		c-0.715,0-1.479-0.355-2.195-0.355h-8.308c-1.733,0.223-3.484,0-5.22,0c0.291-0.688-1.379-0.332-2.061-0.555
		c-3.74-1.043-3.088-0.953-7.38-1.355c-1.479,0.223-2.966,0.289-4.453,0.398c-3.137-0.82-6.392-1.662-10.239-2.25
		c-6.946-1.709-14.006-2.977-20.908-4.939c-3.582-1.021-7.383-5.65-10.637-3.465c-3.972,2.652-6.826,4.629-9.673,6.627
		c-26.941,0.619-49.673,4.662-61.462,11.652c-3.933-1.973-6.294-3.209-12.131-3.16c-3.232,0-5.02,0.756-7.214,1.375
		c-1.226,0-2.41,0-3.623-0.443c-1.428-0.223-2.896-0.287-4.321-0.508c-2.581-0.268-5.161-0.287-7.744-0.51
		c-5.989-0.486-6.477-0.486-12.134-0.486c-0.273,0.016,0,0-0.291,0c-0.61-0.377-1.414-1-1.763-1.355
		c-0.713-0.709-1.379-1.529-2.061-2.248c-4.351-3.66-7.732-6.762-12.498-9.49c-2.268-1.309-4.67-2.225-7.014-3.291
		c-2.852-1.287-5.664-2.779-8.577-3.813c-2.056-0.73-4.167-1.242-6.248-1.863c-10.737,0.932-8.735,0-14.626,2.859
		c0.356-0.51-1.194-0.377-1.729-0.377c-0.461,0-0.803-0.486-1.26-0.486c-4.558-0.82-11.99,0.354-16.255,2.771
		c-0.918,0.51-1.912,0.955-2.891,1.355c-0.408-0.008-0.732-0.018-1.04,0c-5.015-0.398-10.034-0.313-15.056-0.512h-19.414
		c-2.222-0.375-4.441-0.264-6.68-0.553c-6.873,1.055-2.91,0.572-7.139,1.318c0.439-0.127,1.104-0.33,1.421-0.43
		c0.186,0,0.61-0.023,0.422-0.467c-0.867-0.287-1.794-0.01-2.693-0.557c-5.537-0.221-11.082,0-16.619,0
		c-4.265,0-8.381-0.285-12.6,1.377c-2.104,0.666-4.133,1.771-6.182,2.729c-0.527-0.266-1.16-0.555-1.729-0.555
		c-8.926,0.221-6.145,0-15.156,3.768l-1.04,1.375c-4.7-0.707-9.631-1.418-15.024-1.375c-16.001,0-26.567,1.82-33.906,10.094
		c-2.866,0.244-5.684,0.799-8.542,1.354c-1.055-0.223-2.268-0.244-2.925-0.355c-4.907-1.307-8.528-0.93-13.464-0.508
		c-3.257,0.377-6.616-0.688-9.871-0.443c-2.214,0.242-4.375,0.729-6.582,1.084c-6.187,2.041-5.659,0.443-14.558,4.723
		c-0.869,0.465-1.763,0.973-2.627,1.375c-0.171,0-0.425-0.006-0.356-0.443c0.291-0.244,1.394-0.6,1.055-0.51
		c-1.582,0.242-3.208,0.932-4.753,1.354c-1.479,0.508-2.925,0.975-4.387,1.354c-4.604,0.863-4.082,0.598-8.145,2.297
		c-0.325,0.221-0.747,0.311-1.055,0.508c-0.171-0.01-0.276,0-0.276,0c-1.599-0.223-3.21-0.377-4.819-0.508
		c-1.985,0-3.96-0.488-5.95-0.488c-2.363-0.332-4.143-0.287-5.95,0.488c-1.995-1.086-3.831-2.24-6.914-3.205
		c-3.899-1.244-8.25-0.336-12.234,0.508c-2.173,0.932-3.108,1.064-4.487,1.551c-6.584-0.287-13.167-0.465-19.778-0.555
		c-31.333-14.939-111.697-19.84-269.856-19.84h-283.147v2.297c-0.391-0.221-0.747,0.332-1.055,0.422
		c0.168,0.223,0.203,0.287,0.356,0.486c-0.391,0.223-0.747,0.355-1.055,0.488c0-0.266,0.325-0.313,0.374-0.488
		c-0.764,0.244-1.533,0.313-2.295,0.488c-0.576-0.465-1.157-1.041-1.729-1.375c-0.664,0.002-1.323,0.002-1.992,0l-0.205-0.355
		c-2.048-2.152-4.458-2.826-7.012-2.771c-1.311-0.799-2.59-1.598-4.124-1.377c-0.835,0-2.813,0.801-4.021,1.176
		c0,0.223-2.813,1.354-2.993,1.354c-0.869,0.557-1.565,1.375-2.427,1.953c-0.439,0.311,0.732-0.91,1.04-1.309
		c-2.031,0.82-2.532,1.396-3.391,2.174c0.73,0,0.886,1.221,1.038,2.773c-0.234,0-0.422-0.01-0.698-0.51
		c-1.157-1.152-1.943-1.93-4.153-2.469c-0.935-0.244-1.912-0.014-2.859,0c-0.579,0.223-1.106,0.244-1.704,0.467h-0.801
		c-0.513,0-1.089-0.244-1.602-0.467c-0.171-0.223-0.254-0.287-0.322-0.445c-1.006-0.775-1.895-1.285-2.793-1.352
		c-0.254-0.289-0.513-0.334-0.803-0.557c-1.936-1.598-5.159-1.994-7.378-1.354h-0.276c-0.168-0.221-0.747-0.02-1.055,0
		c-0.237-0.006-0.479,0.01-0.698,0c-0.461-0.221-0.952-0.311-1.428-0.375c-1.633-0.377-1.431,0-1.04,0.375
		c-0.168-0.004-0.237,0-0.391,0c-0.237-0.221-0.476-0.311-0.73-0.375c-0.237,0.244-0.732,0.375-1.04,0.375v0.533
		c-1.599,0.355-3.049,1.264-4.353,2.25c0.291-0.287,0.73-0.422,1.038-0.73h-0.308c-1.177,0.533-2.458,0.932-3.623,1.508
		c0,0.313-0.322,0.598-0.391,0.91c-0.237-0.223-0.461-0.287-0.698-0.51c-0.493-0.221-0.967-0.01-1.462,0v-0.486h-4084.602v11.652
		c-1.274-0.377-2.568-0.6-3.257-0.732v-0.531c-0.767-1.334-12.813-8.941-20.479-12.91c1.24,4.082,1.089,3.525,2.192,7.104
		c-4.575-1.465-8.916-1.174-12.495,1.377c-5.313-6.877-10.898-13.217-17.021-17.023c-7.451-4.627-14.653,1.551-20.977,11.002
		h-418.022l-1.729,6.107h-14.326c-3.95-2.775-8.008-5.404-12.3-7.145c-3.379-1.375-4.854-1.221-3.389-1.375
		c-3.745-1.973-7.637-1.641-11.538-1.42c-1.597-0.465-3.428-0.973-4.487-1.373c-2.051-1-7.441-2.746-9.771-3.119
		c-1.87-0.287-3.735-0.287-5.62-0.488c-0.308,0-0.732,0.488-1.035,0.488c-0.562-0.223-1.177-0.244-1.729-0.488
		c-3.623-1.02-7.109-0.889-10.703-0.443c-2.251-1.242-4.658-2.041-7.515-3.295c-3.599-1.266-6.582,0.018-9.937,0.51
		c0.166,0,0.303,0.004,0-0.355c-4.023-0.287-8.076-0.221-12.1,0h-14.497c-5.396-2.713-6.416-3.691-13.027-3.77
		c-2.339-0.02-3.574,0.268-4.756,0.445c-3.481-2.43-7.07-4.941-10.933-4.895c-1.196,0-1.772,0.332-2.764,0.508
		c-2.798-0.422-5.552-1.285-8.311-1.375c-4.434,0.223-8.887,0.443-13.325,0.443h-7.08c-0.361,0-1.396,0.398-1.06,0
		c0.239-0.508,1.499-0.006,1.162-0.553c-0.767-0.955-1.958-0.934-2.959-1.355c-4.189-1.885-6.87-2.947-11.533-3.293
		c-1.689-0.223-3.369,0.018-5.054,0.553c-0.273-0.221-0.527-0.332-0.801-0.553c-4.277-2.41-9.888-2.578-14.526-2.219
		c-1.279,0.223-2.49,0.223-3.76,0.486c-0.693,0.223-1.362,0.51-2.061,0.488c-0.439,0,0.732-0.266,1.04-0.488
		c-7.773-0.244-15.518-0.486-23.301-0.486h-46.304c-2.49,0-4.961-0.223-7.446,0c-6.66,0.355-13.232,1.799-19.912,1.686
		c-3.755-0.73-7.632-0.555-11.436-0.508c-3.54,0.604-5.244,0.867-6.03,0.979c0.703-0.043,0.962,0.16-6.235,2.055
		c-0.186,0,0.327-0.244,0.356-0.467c0.41-0.313,1.816-0.354,1.26-0.508c-1.563-0.955-10.854-3.242-11.899-3.51
		c-4.59-1-7.09-1.975-11.733-2.219c-1.934-0.221-3.877-0.354-5.781,0c-5.942,1.266-11.182,3.859-16.621,6.803
		c-0.361-0.223-1.348-0.02-1.895,0c-3.169-0.422-1.719-0.223-5.186-0.355c-8.711,0-17.388,0.355-26.094,0.355h-24.468
		c0.884-0.223-0.171,0-1.26,0c0.361,0,0.562-0.266,0.342-0.355c-0.85-0.598-7.192-1.375-7.446-1.375
		c-1.631,0-3.184-0.508-4.819-0.508c-1.226,0-9.126,1.129-10.005,0c-0.186-0.268,0.562-0.512,0.835-0.512
		c-7.651-3.609-10.073-3.07-18.647-1.373c-1.26,0.221-2.437,1.064-3.691,1.307c-2.29,0.422-5.034,0.377-7.28,0.355
		c-3.047,0-6.069,0.398-9.106,0.688c-0.61,0-1.24,0.555-1.86,0.555c-0.391,0,0.747-0.422,1.055-0.555
		c-2.222-0.51-4.453-0.953-6.68-1.42c-8.613,0.334-17.212,0.557-25.83,0.557h-13.994c-3.267,0.264-6.46-0.289-9.707-0.557
		c-2.715-0.264-5.439-0.221-8.145-0.508c-1.411-0.223-2.769-0.709-4.185-0.865c-2.031-0.221-4.111-0.375-6.152-0.484
		c-2.031,1.107-4.292,1.771-6.479,2.598c-4.458-0.223-8.906,0-13.364,0c0.273,0,0.513-0.223,0.527-0.488
		c0-0.643-0.933-0.355-1.431-0.555c-7.031-1.242-13.999-1.842-20.972,0.535c-2.051,0.686-3.945,2.172-5.918,3.16
		c-0.171,0.424-0.322,0.223-0.356,0.445c-0.547,0,0.884-0.223-3.491-0.445c-5.684-0.244-11.362-0.619-17.051-0.533
		c-12.91,0.334-21.064,6.365-25.029,14.121c-5.928-0.398-7.49,0.223-10.874,1.82c-2.7-1.355-5.562-2.498-8.208-3.986
		c-1.709-0.443-3.477-0.93-5.22-1.354c-3.271-2.426-7.163-2.629-10.972-1.375c-6.011-0.422-10.083,0.334-12.764,1.908
		c-1.021-0.709-1.904-1.33-5.649,1.377c-4.023,2.975-7.842,6.623-11.138,10.871c-0.166,0-0.22-0.021-0.303,0.422
		c0-0.221-0.293-0.311-0.327-0.422c-5.757-6.789-8.564-6.135-16.519-8.793c-13.398,0.842-2.334-0.006-12.5,1.354
		c-5.85,0.709-9.17-0.221-15.391,4.244c-0.371,0.266-0.732,0.732-1.04,1.043h-1.055c-4.448,0.443-1.294,0.82-4.155,0.557
		c-2.549-0.289-5.083-0.377-7.646-0.557c-2.881-8.197-7.021-16.039-11.699-16.283c-13.613-0.709-19.229,0.643-22.705,4.809
		c-0.898-0.223-1.753-0.557-2.754-0.51c-5.664,0.555-11.479,2.49-15.757,7.537c-1.978,2.314-3.97,4.682-5.254,7.711
		c-0.171,0.242-0.22,0.311-0.273,0.555c-1.479,0.709-1.055,0.93-1.055,1.086c0,0-0.952,0.422-0.664,0.422
		c-0.361,0.221-0.376,0.422-0.698,0.486c-15.21-12.654-47.1,0.334-71.968,26.424h-49.995c-0.986,0-1.904,0.221-2.891,0
		c-0.293,0,0.903,0.002,1.055-0.533l-0.356-0.488c-0.464-0.223-0.952-0.375-1.431-0.508c-6.23-1.133-4.648-0.863-9.507-0.443
		c-2.368,0.354-3.433,0.842-5.317,1.596h-1.04c0,0-0.171,0.006-0.234,0c-0.19,0.223-0.171,0.008-0.342,0.398
		c-0.376,0.223-1.396,0.533-1.055,0.443v-0.443c0.425-0.223,0.835-0.287,1.26-0.398c-6.431-0.51-12.769,0.398-19.146,1.375
		c-0.854,0-1.782,0.313-2.627,0.535c-1.191,0.221-3.55,0.797-5.952,1.373c-1.494-0.287-3.027-0.754-4.688-0.531h-6.45
		c-3.369,0-6.772-0.244-10.137,0.531c-0.405,0-1.396-0.01-1.055,0.424c0.405,0.332,1.123-0.223,1.602,0
		c1.118,0.221,2.246,0.244,3.354,0.555c-6.87-0.842-19.961-0.422-7.642-2.6h-9.609c-0.513-0.221-0.884-0.287-0.698,0h-34.204
		c-1.753-2.105-3.491-3.598-5.151-3.596c-11.348,2.955-136.128,2.947-279.082,2.947h-243.052c-2.822-0.598-6.465-0.598-10.898,0
		h-7.017v1.375c-6.216,1.396-9.121,2.129-13.828,5.33c-0.405,0-0.933-0.012-1.362-0.486c-0.205,0-0.356-0.313-0.767-0.535
		c-0.391,0-1.118-0.377-1.729-0.377c-3.223-0.863-5.317-0.531-9.57-0.531c-2.837-0.006-6.084,0.01-8.608,1.375
		c-0.327,0-0.732-0.467-1.04-0.555c-2.173-0.467-4.37-1.154-6.548-1.354h-1.055c-1.348-0.004-2.715,0-4.058,0
		c-3.057-1.109-6.24-0.732-9.473,0c-0.967-0.004-1.899,0-2.861,0c-2.368,0.311-4.751-0.355-7.144-0.557v-4.59h-1928.955v4.418
		c-0.767-2.396-1.65-4.76-2.295-7.191c-2.129,0.223-4.282,0.332-6.416,0.555c0.444,0,0.82,0.334,0.664,0.998
		c-0.986,4.434-2.607,8.531-4.355,12.564c-0.884-1.441-1.055-1.578-1.792-2.73c-0.239-1.908-0.63-3.783-0.732-5.717
		c-0.171-1.91,2.407-3.889,4.458-4.723c-8.208,1.354-9.365,5.146-7.085,10.094c-0.459-0.377-0.903-1.174-1.362-1.332
		c-7.7-2.932-15.391-3.973-23.33-3.686c-1.279,0-2.412,0.313-3.56,0.488c-0.747-0.666-2.637-2.412-2.261-1.375
		c0.273,0.664,0.938,1.195,1.499,1.375c-0.288,0.223-0.581,0.445-0.869,0.445h-0.308c0,0-0.234,0-0.269,0h-0.425
		c-0.171,0-0.171,0.006-0.273,0.463h-0.527c-0.171,0-0.308,0.445-0.459,0.445c-0.171-0.223-0.205-0.266-0.376-0.445
		c0,0-0.303,0-0.356,0c-4.668-2.814-10.469-5.42-17.021-3.682c-0.288,0-0.474,0.223-0.728,0.445v-4.072l-501.509,3.031
		l-486.816,2.816c-0.747-0.578-1.104-0.756-1.992-1.354c-2.905-1.93-5.581-2.252-8.345-2.252c-9.307-2.643-16.46,0.221-11.133-2.297
		c-0.41,0.223,0.562-0.531,0.391-0.508c-2.012,0.398-4.009,0.998-6.021,1.375c-0.679,0.223-1.343,0.266-2.026,0.354
		c-0.596,0-1.226-0.223-1.792,0c-1.348,0.51-2.666,0.975-3.989,1.375h-1041.68v1.309c-6.494,0.82-11.646,3.305-15.454,6.67
		c-1.348-0.861-2.661-1.861-3.989-2.771c-3.311-0.576-4.99-0.951-6.782-1.354c-0.171-0.223-0.171-0.334-0.273-0.555
		c-8.506-8.936-14.736-9.832-23.237-6.367c-2.603-0.223-5.352-0.51-6.978-0.51h-3.325c-4.556-1.086-7.422,0.666-11.538,3.596
		h-470.684c-215.464,0-377.227,6.85-448.589,17.76c-4.316-2.504-9.673-4.164-16.289-4.16h-10.005
		c-2.695-2.936-5.908-4.596-11.235-6.193c-2.07-0.619-4.233,0.467-6.353,0.467c-0.439,0.223-4.751,1.908-8.306,4.072
		c-0.259,0-0.513,0.375-0.732,0.375c-1.465-1.221-3.071-1.797-4.619-2.555c-0.444-0.975-0.869-1.953-1.328-2.947
		c-6.665-14.451-9.38-9.18-10.869,1.908c-1.587,0.578-3.096,1.531-4.653,2.254c-0.015-0.756-1.826,0.244-2.695,0.467
		c-0.684,0.221-1.377,0.285-2.061,0.508l2.261-5.459c2.114-0.887,4.639-0.242,6.88-0.908c0.952-0.287-1.982-0.244-2.959-0.467
		c-1.821,0-2.642,0.223-3.555,0.467l0.938-2.34l-26.592-0.375c-9.834-2.857-18.516-2.85-25.83-0.557l-492.192-2.643l-530.879-2.9
		c-5.352-4.547-13.652-6.422-24.668-2.945c-6.143,1.93-12.295,4.188-17.817,8.316c-3.271,0.377-6.504,1.02-9.473,2.51
		c-3.252,0.465-6.465,0.998-9.707,1.375c-0.459,0.398-0.938,0.953-1.396,1.354c-0.781,0.02-0.952,0-1.992,0
		c0.61-0.006,1.021,0.313,1.426,0.51c-0.596,0.531-1.187,0.975-1.792,1.375c-0.171,0-0.171-0.012-0.288,0.533
		c-0.239,0.221-0.239,0.221-0.596,0.375c-0.698-0.016-1.396,0.01-2.095-0.375c-0.015-0.732,0-1.244,0-2.99c0,0-0.239,0.006-0.41,0
		c-0.801-11.064-1.65-9.084-2.427,0.51c-1.396,0.223-2.808,0.756-4.189,1.354h0.41c0.815,0,3.384,0.533,2.559,0.555
		c-4.38-0.287-2.939-0.287-7.876,0.443c-0.513,0.223-1.089,0.313-1.602,0.488v-9.701h-6337.772l13.594,6898.689
		c9.082,3790.885,22.699,8442.502,31.781,10334.951l13.629,3436.258l6.318-0.004c6.211,45.535,9.057,90.695,4.428,136.559
		c-0.072,0.746,0.025,1.402-0.02,2.133h-17.109v1364.781c0,727.438,6.813,2590.391,15.889,4139.969l13.428,2782.23
		c-1.631,4.176-3.057,8.914-4.355,14.77c-1.104,4.988,0.309,17.633,0.801,24.691c-0.781,5.488-0.85,11.148,0,16.766
		c1.26,4.164,2.236,8.477,3.789,12.473c0.172,0.457,0.498,0.746,0.699,1.168c0.17,4.961,1.826,9.012,3.988,12.563
		c0.172,0.621,0.172,1.242,0.205,1.863c2.604,12.586,2.613,12.492,3.193,13.945c-0.82-4.793,0.234-6.469,2.393-6.41
		c0.172,0.199,0.172,0.199,0.24,0.391c-1.021,1.93-1.715,4.117-2.559,6.195c-2.535,6.234-4.668,12.824-7.148,19.102
		c0.375,7.465,0.375,9.68,0.492,11.781c-4.291,4.254-5.557,9.332-9.105,27.723c-1.445,7.539,5.918,21.402,7.807,25.906
		c0.582,0.941,1.881,1.668,1.729,2.855c-0.166,1.105-1.123-1.734-1.791-2.422c-0.172-0.18-0.664-0.281-0.631-0.047
		c0.885,7.262,2.949,14.809,4.785,21.66c0.498,0.727,0.459,0.719,0.904,1.387c-0.631,10.008-0.172,10.492,2.426,20.227
		c-0.629,6.438-0.391,12.934-0.307,19.406c0.307,2.766,0.014,6.859-0.24,10.57c-3.457,12.383-2.953,17.961,0.377,29.672
		c-1.002,2.777-1.963,5.578-2.559,8.531c-0.748,3.672-0.273,7.559-0.426,11.348c-1.533,2.332-1.748,15.27-1.762,20.102
		c-2.32,7.301-2.32,14.613-1.006,22.09c-1.07,6.523-1.582,11,0.424,21.574c0.273,1.43,0.836,2.715,1.363,4.027
		c0,0.133,0.02-0.18-0.172,0.258c-0.918,6.246,0.24,12.164,1.797,17.934c-0.684,1.848-1.328,3.352-2.295,6.496
		c-1.85,5.992-2.109,12.629-3.188,18.93c1.963,4.363,3.92,8.723,5.883,13.082c-1.654,13.246,0.83,18.242,10.504,31.969
		c0,2.949-0.01,6.121,0.17,6.844c0.205,0.953,0.508,1.871,0.732,2.816c-3.793,9.789-5.912,20.477-5.023,31.402
		c-0.303,1.148-0.631,2.281-0.836,3.469c-0.727,4.504-1.342,9.063-1.723,13.645c-0.172,1.883,0,3.781,0,5.672
		c0.17,9.258-1.344,18.41-0.172,27.723c0.748,2.398,1.5,4.789,2.227,7.191c-0.17,1.434-0.287,2.898-0.424,4.332
		c-0.205,3.848-0.973,7.699-0.596,11.52c0.766,8.012,2.729,14.832,5.781,20.836c0.004,0.066-0.006,0.156,0,0.223
		c1.107,13.633,3.119,18.004,7.217,23.348c-0.328,2.043-0.732,4.078-0.938,6.148c-0.205,2.191,0.186,4.387,0.268,6.586
		c0,1.555,0,3.156,0.24,4.676c0,0.27,0.361-0.797,0.43-0.563c0.795,2.371-5.221,6.09-1.396,7.582
		c-0.582,4.422-1.275,8.813-1.729,13.254c-0.494,5,0.355,10.348-0.289,15.336c0.221,5.754,0.289,6.598,0.693,11.391
		c-0.166,0.199-0.166,0.406-0.268,0.605c-1.006,1.602-1.768,3.488-2.33,5.719c-0.01,0.043,0,0.09,0,0.133
		c-0.938,3.754-1.547,7.996-2.826,11.262c-4.732,12.137-3.561,16.734,0.492,17.5c-0.186,6.129-0.355,12.324,0.172,18.324
		c0.17,1.18,0.326,2.34,0.498,3.508c-0.563,5.543-1.074,8.664-1.705,13.383c-9.301,9.477-13.705,18.734-15.957,33.613
		c-0.322,0.879-0.625,1.789-0.938,2.645c-4.424,12.43-4.623,12.953-5.547,25.426c0,0.457,0,1.152,0.273,1.34
		c0.254,0.156,0.371-0.582,0.563-0.867c-2.525,9.07-4.078,18.602-3.125,28.156c0,0.547-0.172,1.086-0.24,1.816
		c-1.729,3.277-3.393,6.586-4.59,10.223c-1.328,4.02-1.357,8.586-2.061,12.867c-0.254,13.398-1.342,24.906,2.031,37.207
		c0.166,3.422,0.221,7.363-0.205,10.004c-0.17,12.762,1.104,25.141,5.65,36.82c0.785,2.035,1.963,3.758,3.193,5.414
		c-0.191,6.203-0.172,12.379,0.492,18.543c-0.629,10.852,1.686,23.191,3.623,30.32c1.48,5.453,1.729,12.223,5.055,16.07
		c1.723,1.996,0.746-5.953,1.123-8.926c1.143,7.262,1.816,14.68,3.422,21.789c1.025,4.523,6.51,10.004,8.912,13.473
		c2.139,3.094,3.965,6.535,6.113,9.617c0,3.586,0,7.25,0.205,10.566c0-0.262,0.17-0.516,0.17-0.777
		c-0.41,3.246-1.006,6.461-1.123,9.746c-0.205,5.23,0.576,10.344,1.494,15.379c0.391,2.148,0.904,4.234,1.328,6.367
		c0.65-0.246,0.752-0.199,0.768-0.391c-0.27,0.801-0.563,1.59-0.729,2.426c-2.822,13.746-2.471,11.156-2.396,21.57
		c0.17,1.313,0.58,11.969,1.328,14.469c-0.563,5.922-2.164,16.086-2.725,19.75c-1.813,11.855-1.383,21.797,0.391,29.891
		c-0.172,0.004-0.24-0.004-0.426,0c-1.445,0.023-5.596,17.047-6.582,20.926c-6.152,24.113-2.016,41.566,5.947,49.898
		c0,1.91,0.205,3.824,0.205,5.719c-1.342,11.492-1.293,20.973,3.525,31.145c-0.273,2.969-0.596,5.953-0.869,8.922
		c0-0.586-0.014-1.262,0.273-1.777c0.289-0.633,0.479,1.469,0.322,2.168c-0.576,2.391-3.096,10.395-3.754,13.82
		c-5.035,9-8.223,18.211-8.443,31.879c0,8.988-0.166,18.008,0.172,26.988c0.17,2.152-0.201,4.266-0.338,6.41
		c-0.547,8.707-0.43,17.637,2.393,25.73v14.121c0,5.406,0.172,10.797,0,16.199c-0.17,4.969,0,9.781,0.41,14.727v0.047
		c-0.17,0.223-0.004-0.52-0.664,3.898c-1.498,9.102-2.705,17.18-1.67,26.379c0,0.348,0.172,0.691,0.172,1.043
		c-0.006,0.008,0.004,0.086,0.004,0.086c-0.004,0.02,0.166-0.297,0.166-0.297v-0.137c0.172-0.742,0.172-1.457,0.357-2.168
		c0-0.09,0.258-0.242,0.238-0.133c-0.17,1.199-0.391,1.844-0.492,2.254c0.17-0.133,0.238-0.398,1.123-2.078
		c-0.543,1.078-0.869,1.977-1.328,2.988c0,0.09,0.004,0.176,0,0.258c-6.348,13.418-8.043,22.984-6.979,38.25
		c0,0.594,0.166,1.18,0.201,1.777l-2.158,5.023c-0.836,4.348-1.816,8.645-2.496,13.039c-0.609,3.93-0.287,10.121,0.309,15.16
		c-0.172,0.535-0.24,1.063-0.357,1.605c-2.852,13.414-5.131,26.93-4.492,40.973c0.172,3.551,0.172,7.113,0.273,10.656
		c0,1.18,0.221,2.309,0.391,3.465c0.172,0.789,0.563-0.855,0.596,1.258c0,0.906-0.17,1.781-0.199,2.684c0,0.5-0.273,1.82,0,1.52
		c1.377-1.375,4.398-6.953,3.486-5.023c-2.34,4.945-5.508,9.148-7.813,14.121c-3.805,8.191-2.848,23.016-0.172,31.012
		c13.893,22.141,6.992,16.086,19.381,22.223c-0.01,0.02,0,0.066,0,0.09c-1.002-0.488-1.445-0.781-2.197-0.957
		c-0.748-0.176,1.025,0.656,2.129,1.168c-0.475,1.512-0.918,3.039-1.396,4.551c-1.055,3.305-2.428,6.488-3.223,9.918
		c-0.684,2.941-1.041,5.98-1.432,9.012c0-0.156,0.186-0.367,0.172-0.262c-0.172,0.512-0.24,1.016-0.357,1.52
		c0,0.086-0.014,0.176,0,0.258c-0.326,1.219-0.684,2.418-0.869,3.68c-1.309,9.176-1.361,9.922-1.43,10.918
		c0.189-0.574,0.326-1.211,0.561-1.473c-0.205,0.676-0.391,1.617-0.629,2.512c0.205-0.668,0.342-0.898,0.732-2.555
		c1.156-1.203,2.725,0.176,4.887,6.324c-3.266,3.047-5.795,6.188-7.881,9.445c0.186-2.355,0.357-4.371,0.631-6.457
		c-0.836,3.219-1.568,6.227-2.096,9.617c-5.117,9.715-6.289,20.594-5.752,34.047c0,0.023,1.094,11,1.568,11.738
		c0.17,0.18-0.01-0.516,0.17-0.734c0,3.023-0.219,6.047,0.498,8.879c0.885,3.445,1.295,3.961,1.924,6.195
		c-0.166,0.965-0.424,1.879-0.459,2.859c-0.41,12.336,1.793,16.848,5.289,24.344c1.055,7.836,2.299,11.691,4.785,15.074
		c-1.328,7.699-3.248,15.426-2.662,23.219c0.377,4.922,2.633,9.23,4.922,13.34c0.357,1.793,1.09,4.094,1.861,6.543
		c-0.289,10.41-0.391,19.77,4.418,29.496c0.596,1.453,1.09,2.957,1.729,4.375c-1.566,3.246-1.479,3.332-6.215,22.566
		c0,5.43-0.172,10.883,0.303,16.289c0.596-2.742-0.494,3.828-0.66,6.496c-0.889,13.871,0.426,20.938,5.088,30.496
		c0.426,4.43,0.611,8-0.342,4.289c0,7.184-0.17,14.387,0,21.57c0,1.578-0.238,4.844,0.391,1.473v0.609
		c-1.244,9.477-0.801,3.789-1.055,14.855c0.713,8.184,1.686,14.137,3.555,22.004c0.596,2.523,0.41,5.68,1.67,7.668
		c0.24,2.008-0.205-0.652,0.322,3.379c2.9,11.297,3.525,13.484,10.406,24.52c0.205,0.324,0.697,0.836,1.039,1.301
		c0.377,1.152,0.254,0.867,0.664,2.121c0.221,0.223,0.41,0.473,0.631,0.691c-0.01,3.102,0,6.211,0,9.313
		c0.254,9.34-1.904,18.465,0.898,27.723c0.375,0.813,0.732,1.617,1.088,2.426c0,0.996-0.01,2,0.205,2.988
		c0.186,1.824,0.494,3.613,0.801,5.414c-1.445,3.508-2.881,7.016-4.32,10.527c-0.748,3.242-1.158,6.496-1.67,9.746
		c-1.432-1.184-2.398-1.555-3.16-1.645c-0.951-2.402-1.875-5.465-2.758-10.094c-0.426-2.227-0.797-4.441-1.227-6.672
		c1.783,11.625-1.24-9.484,1.041,17.977c0.854,9.898,1.928,14.301,3.559,19.535c-1.928,2.59-3.672,5.324-4.99,8.492
		c-2.699,6.508-2.104,14.859-0.869,22.828c-0.166,0.465-0.268,0.914-0.404,1.383c-0.719,2.617-1.041,7.668-1.055,12.129
		c-1.211,1.391-2.314,2.891-3.063,4.766c-2.48,6.238-2.979,13.492-3.32,20.617c-2.396,6.68-5.127,13.277-6.117,20.488
		c-0.576,4.238,0.479,10.742,2.295,16.895c-4.873,9.383-5.768,21.141-5.484,32.531v17.891c0,5.59-0.01,12.164,0.527,17.195
		c-0.561,3.574-1.615,9.84-1.465,12.434c0.664,11.336,3.184,21.918,9.674,29.41c0.014,0.066,0.205,0.156,0.205,0.223v3.855
		c0.17,0.863,0.254,1.73,0.336,2.598c0-0.266,0.328-1.051,0.377-0.777c0.014,0.422-0.309,0.836-0.309,1.254
		c0,0.273-0.004,0.551,0.309,0.824c-0.172,6.695-1.773,13.254-2.428,19.84c-0.512,3.281-1.377,9.359-1.729,13.512
		c0,0.066,0.006,0.113-0.391,0.18c-5.033,9.434-7.836,20.23-7.344,31.75v34.348c0,6.676-0.014,13.344,0,20.012
		c0,4.668,0.166,9.328,0,13.992c-0.375,5.805-0.17,11.5,0.426,17.199c-0.563,1.051-1.275,1.996-1.764,3.117
		c-4.15,9.609-5.332,21.457-4.951,32.27c0.006,0.113,0,0.199,0,0.348c-0.17,0.602,0,1.359,0,2.078h-3.291v1679.652l211.002,17.715
		c113.461,8.871,1291.211,50.301,2614.145,91.703c2620.957,82.797,13703.848,443.535,14813.499,484.922
		c376.687,11.828,780.635,26.641,898.63,26.641l213.225,5.727l-15.889-1351.395c-6.807-745.18-18.157-3264.602-24.963-5597.727
		s-18.159-4686.879-24.963-5225.137l-13.596-984.66h-0.552c3.503-8.707,4.614-18.496,2.031-28.852
		c-6.143-24.629-12.163-49.203-17.607-73.844c-0.142-2.996-0.186-6.02-0.266-9.031c9.072-21.039,2.754-48.793-13.369-64.07
		c-0.144-1.031-0.295-2.055-0.442-3.082l154.539,0.098c6.804,8.875,18.181,1593.801,27.256,3527.637l18.149,3510.113H3478.63
		l11.335-153.773c6.812-85.758,18.159-1428.289,24.963-2980.723c6.807-1552.461,18.157-3279.465,24.963-3835.469l15.889-1014.156
		h5201.064c4724.526,0,5203.445,3.031,5217.061,47.391c6.807,26.609,13.597,1360.109,13.597,2962.758
		c-2.269,2330.242-6.795,2927.496-29.485,2968.969c-27.231,44.355-163.4,50.266-1629.312,68.008
		c-878.19,8.871-1629.297,23.652-1670.144,32.531l-72.632,14.77l11.369,1898.438c4.536,1043.852,15.864,2262.156,22.669,2705.715
		l13.63,804.355h7415.768v168.543l-7424.959-29.586l6.813,1525.871c4.539,836.844,13.604,1531.766,20.41,1540.641
		c6.807,8.867,2589.131,97.574,5736.657,201.074l5723.041,186.301v-5012.227h-4016.527v-139.004l1910.744-17.715
		c1050.643-11.828,2893.26-20.707,4096.006-20.707h2185.262v-3764.273l-8191.846,41.41v-171.531l4148.086-14.773
		c2280.57-8.871,4150.471-11.816,4157.275-2.945c6.807,8.875,13.613,2087.707,18.15,4621.898l4.52,4607.258l211.037,17.758
		c113.457,8.875,1908.359,70.961,3987.084,136.016c3889.389,124.199,8909.025,286.852,11425.49,372.613
		c2035.496,68.012,4479.453,150.805,4567.945,156.719l0.258,1.25c38.578,0,72.598-8.898,72.598-26.641
		c0-20.699,10708.473-29.539,32082.863-29.539h32084.563l13.594-9424.102c9.078-5186.77,15.891-13649.895,15.891-18812.938
		v-5462.445C110890.438,27198.688,110889.234,27181.43,110884.32,27165.225z"/>
	<path d="M-21515.357,55540.684c0-0.199,0-0.602,0.305-1.777c0.205-0.645,0.971-2.527,0.801-1.863
		c-0.307,1.238-0.699,2.441-1.09,3.641H-21515.357z"/>
	<path d="M-21532.889,56997.469c0.172-0.484,0.307-0.992,0.496-1.473c0.17-0.375,0.953-1.125,0.766-0.777
		c-0.408,0.758-0.832,1.512-1.258,2.25H-21532.889z"/>
	<path d="M-21522.15,56918.242c-0.172,0.258-1.295-1.215-1.328-2.125c0-0.688,0-1.395-0.17-2.074
		C-21523.154,56915.441-21522.594,56916.816-21522.15,56918.242L-21522.15,56918.242z"/>
	<path d="M-21523.783,56693.906c0-0.355-0.014-0.328,0-0.691C-21522.68,56692.238-21523.053,56692.758-21523.783,56693.906z"/>
	<path d="M-21510.338,56613.426c0.17-0.922,0.188-1.852,0.34-2.773c0.613,0.504,1.719,1.793,2.461,2.512
		c-0.955,0.703-1.885,0.801-2.791,0.262H-21510.338z"/>
	<path d="M-21499.734,56593.238c0.289,0.664-0.918-1.051-1.088-1.773c0-0.34-0.172-0.699-0.205-1.039
		c0.426,0.941,0.885,1.863,1.295,2.813H-21499.734z"/>
	<path d="M-21503.588,56589.254c0-0.438-0.17-0.641,0-1.211c0-0.566,0.459-0.777,0.867-1.301c0,0.09,0.172,0.133,0.172,0.223
		c-0.324,0.766-0.631,1.535-0.971,2.297L-21503.588,56589.254z"/>
	<path d="M-21535.363,56017.133c0.867,2.691-1.936-5.285-2.893-7.926c-0.002-0.113,0.004-0.199,0-0.305
		C-21537.303,56011.656-21536.266,56014.352-21535.363,56017.133z"/>
	<path d="M-21517.182,55578.984c0.203,0.352-0.17-2.25,0-3.336c0-0.555,0.305,1.086,0.271,1.648c0,0.426-0.186,1.188-0.238,1.688
		H-21517.182z"/>
	<path d="M-21442.424,55506.859c0-0.02,0.002-0.066,0-0.086c0.221-0.348,0.443-0.695,0.662-1.043h0.41
		c-0.357,0.367-0.73,0.801-1.055,1.129H-21442.424z"/>
	<path d="M-21489.891,55240.082c0.203,0.273-0.699-0.82-0.664-0.734c0-0.023,0-0.066,0.172-0.09c0.408,0.543,0.17,0.156,0.629,0.82
		L-21489.891,55240.082z"/>
	<path d="M-21493.447,55236.227c-0.172-0.176-0.172-0.156-0.342-0.348c0-0.133,0-0.289,0.17-0.43c0-0.262,0.205,0.371,0.24,0.781
		L-21493.447,55236.227z"/>
	<path d="M-21523.365,55187.844c0.24,1.922-0.596-3.809-0.9-5.719c0.002-0.176-0.004-0.344,0-0.516
		C-21523.941,55183.68-21523.637,55185.754-21523.365,55187.844L-21523.365,55187.844z"/>
	<path d="M-21533.602,54838.066c0-0.176-0.188-0.406-0.342-0.867c0.018-0.09,0.016-0.156,0-0.262
		C-21533.773,54837.309-21533.688,54837.688-21533.602,54838.066L-21533.602,54838.066z"/>
	<path d="M-21535.031,54818.359c-0.172-0.238-0.205-0.465-0.307-0.695c0.172,0.18,0.256,0.633,0.342,0.695H-21535.031z"/>
	<path d="M-21535.373,54817.664c-0.391-0.734-1.004-2.008-1.396-3.074c-0.17-0.422-0.271-0.543-0.305-0.91
		C-21536.494,54814.984-21535.9,54816.324-21535.373,54817.664z"/>
	<path d="M-21531.914,54730.078c0-0.086,0.018-0.176-0.271-0.258c0-0.109,0.004-0.066,0-0.176c0,0.152-0.018,0.266,0.271,0.43
		V54730.078z"/>
	<path d="M-21532.322,54720.117c0-0.258,0-0.523,0.203-0.777c0.188-0.875,1.295-3.27,1.039-2.426
		c-0.324,1.078-0.732,2.145-1.09,3.203H-21532.322z"/>
	<path d="M-21482.523,54484.695c-1.313-0.609-2.641-1.172-3.924-1.82c1.414,0.113,2.836,0.199,4.256,0.305
		c-0.17,0.504-0.203,1.012-0.289,1.516H-21482.523z"/>
	<path d="M-7494.488,37053.844c-0.407-0.668-0.748-1.375-1.159-2.043c0.665,0.668,1.325,1.355,1.994,2.043H-7494.488z"/>
	<path d="M1622.176,26368.256c-0.818-1.375-1.616-2.746-2.427-4.115c0.802,0.51,1.724,0.756,2.427,1.551
		c1.159,1.332,0.989,2.129,0,2.557V26368.256z"/>
	<path d="M-1148.548,25479.781c-0.374-0.221-0.698-0.332-1.055-0.465c-0.17-0.223-0.307-0.311-0.424-0.488
		c0,0,0.012-0.221-0.17-0.221c0.544,0.354,1.006,0.73,1.666,1.174H-1148.548z"/>
	<path d="M-1150.251,25478.475c0,0-0.17,0.006-0.17-0.223c0,0,0.17,0.02,0.17,0
		C-1150.251,25478.252-1150.251,25478.252-1150.251,25478.475z"/>
	<path d="M96.508,25473.406c0.17-0.422,0.324-0.889,0.461-1.307C98.145,25470.967,97.547,25471.877,96.508,25473.406z"/>
	<path d="M128.685,25444.646c-0.22-0.422-0.478-0.777-0.698-1.221c0.17,0,0.22-0.555,0.307-0.555
		c0.253,0.287,0.391,0.777,1.039,1.375c-0.22,0.223-0.424,0.266-0.632,0.398L128.685,25444.646z"/>
	<path d="M-1019.973,25427.75c0,0-0.17,0-0.17-0.221h-0.357c-0.237-0.223-0.461-0.398-0.698-0.51c0-0.221,0.008-0.244,0.324-0.354
		c-0.17,0.002-0.291,0-0.357,0c0,0.221-0.204,0.221-0.204,0.264l0.204,0.223v0.398c-0.17,0-0.253,0-0.357-0.398v-0.223
		c-0.187-0.221-0.253-0.221-0.357-0.354c0.253,0,0.528,0.008,0.802,0c0.17-0.355,0.253-0.576,0.424-0.953h0.274
		c-0.17,0.244-0.22,0.223-0.274,0.398c0.341-0.014,0.731,0,1.039,0c0,0.311,0.012,0.598-0.307,0.908L-1019.973,25427.75z"/>
	<path d="M-1461.603,25427.242c-0.528,0-1.193,0-1.193-0.355v-0.221c0.407,0.221,0.781,0.242,1.193,0.354V25427.242z"/>
	<path d="M-6816.858,25424.383v-0.266c0.17,0.012,0.22,0,0.307,0C-6816.721,25424.117-6816.804,25424.104-6816.858,25424.383z"/>
	<path d="M4232.506,25406.018c-0.952,0-0.594,0-2.227-0.313c-0.495,0,1.005-0.244,1.462,0
		C4231.978,25405.928,4232.252,25405.928,4232.506,25406.018z"/>
	<path d="M-11973.5,25398.48c-0.171-0.424-0.256-0.953-0.391-1.354l0.596,1.354h-0.203H-11973.5z"/>
	<path d="M-1347.231,25393.629c2.04-1.752,3.258-2.719,4.188-2.99c-1.346,0.975-2.68,2.018-4.022,2.99H-1347.231z"/>
	<path d="M-7438.395,25393.029c-0.17,0-0.307-0.221-0.494-0.598c0.237-0.01,0.528,0.012,0.765,0c0,0.311-0.237,0.555-0.274,0.598
		H-7438.395z"/>
	<path d="M108.08,25386.793c0-1.086,0.291-1.309,1.039-0.467C108.778,25386.549,108.454,25386.639,108.08,25386.793z"/>
	<path d="M-13119.276,25376.656c-0.613-1.863-0.885-3.135-0.391-2.25c0.63,1.486,0.442,1.111,0.901,2.25H-13119.276z"/>
	<path d="M-11990.565,25365.047c-1.707-0.998-1.071-0.754-1.531-1.131c0,0,0.171,0.012,0.204,0c0.476,0.244,1.982,1.354,1.327,1.086
		V25365.047z"/>
	<path d="M4554.973,25362.752v-0.223c0.17-0.396,0.357-1.285,0.528-2.041l-0.357,0.223v-0.223c-0.004-0.266,0.008-0.555,0-0.82
		c0.17,0.223,0.357,0.377,0.424,0.555c0,0-0.012-0.018,0,0.223c0.17,0.598,0.17,1.197-0.17,1.908c-0.17,0-0.307,0.223-0.424,0.313
		V25362.752z"/>
	<path d="M-1755.4,25361.064l-0.17-0.354c0,0,0-0.355,0-0.398c0,0,0.17-0.006,0.17,0.311V25361.064z"/>
	<path d="M-10916.657,25360.844c-0.953-1.354-1.003-1.309-2.528-3.686
		C-10918.284,25358.291-10917.501,25359.623-10916.657,25360.844z"/>
	<path d="M-10944.507,25357.283c-0.17,0-0.341,0.014-0.494-0.311c-0.17,0,0.221,0.002,0.409,0c0,0,0.015,0.311,0.391,0.311
		H-10944.507z"/>
	<path d="M-15269.421,25356.928v-0.264h-1.039c0.306-0.266,0.663-0.313,0.97-0.557c0.767-0.422,1.567-0.73,2.36-1.084l-0.203,1.307
		c-0.682,0.223-1.38,0.334-2.062,0.51L-15269.421,25356.928z"/>
	<path d="M-1712.279,25356.24c-0.461-0.221-0.902-0.311-1.363-0.422c-0.17,0-0.17,0-0.274-0.443
		c0.594,0.221,1.242,0.266,1.633,0.465L-1712.279,25356.24z"/>
	<path d="M-15264.996,25353.295c0.17,0,0.239-0.375,0.409-0.398c0.409-0.221,1.651,0.377,1.226,0.398H-15264.996z"/>
	<path d="M-2679.651,25350.912c-0.341-0.576-0.274-0.619-0.494-1.041h0.204c0.187,0.266,0.611,1.307,0.424,1.041H-2679.651z"/>
	<path d="M-7782.854,25350.404c-0.204,0-0.682-1.197-0.698-1.221c0.17,0,0.253,0.465,0.357,0.508c0,0.223,0.22,0.51,0.341,0.688
		V25350.404z"/>
	<path d="M-10994.714,25349.051c0.409-0.223,0.662-0.313,1.088-0.467C-10988.015,25348.807-10991.417,25348.871-10994.714,25349.051
		z"/>
	<path d="M-2702.117,25342.467c0.17-0.355,0.237-0.91,0.391-1.266C-2701.897,25341.625-2701.98,25341.957-2702.117,25342.467z"/>
	<path d="M-7767.415,25340.689c-0.951-1.221-2.979-3.74-2.194-2.861c0.802,0.889,1.55,1.885,2.294,2.861H-7767.415z"/>
	<path d="M-2035.182,25339.824c0.253-0.223,0.528-0.313,0.802-0.422c-0.22,0.221-0.407,0.311-0.632,0.422H-2035.182z"/>
	<path d="M-1963.183,25335.146c0.748-2.129,1.94-3.281,3.424-3.77c-0.511,0.863-1.089,1.551-1.566,2.512
		c-0.632,0.51-1.159,0.953-1.861,1.355L-1963.183,25335.146z"/>
	<path d="M-1080.247,25332.547c0,0,0.698-0.355,1.039-0.398h1.363c-0.802,0.223-1.6,0.313-2.393,0.398H-1080.247z"/>
	<path d="M-1205.231,25330.373c0-0.398,0.237-0.932,0.237-1.264v-0.467c0.307,0,0.611,0.021,0.935,0.467
		c-0.204,0.396-0.374,0.887-0.561,1.264c-0.17-0.002-0.17,0-0.274,0H-1205.231z"/>
	<path d="M-6841.302,25329.553c-0.013,0,0-0.355,0-0.355V25329.553z"/>
	<path d="M-1226.164,25329.197c-0.22,0-0.44-0.555-0.665-0.555c0.22,0,0.407-0.006,0.632,0L-1226.164,25329.197z"/>
	<path d="M-6840.961,25327.689c-0.17,0,0.324-0.422,0.494-0.422h0.594C-6840.247,25327.268-6840.621,25327.289-6840.961,25327.689z"
		/>
	<path d="M-1702.872,25327.268v-0.443h0.511c-0.17,0-0.17-0.021-0.341,0.443H-1702.872z"/>
	<path d="M-6838.921,25326.824c-0.819-0.445-1.708-1.111-2.194-1.176l0.204,0.355c-0.478-0.223-0.187-0.313-0.407-0.424
		c-0.17,0-0.274,0.01-0.391-0.354c-0.274,0.006-0.561,0-1.005,0c0.203,0,0.407,0.02,0.631-0.313
		c-0.341-0.221-0.935-0.465-1.055-0.465c0-0.223-0.237-0.311-0.308-0.555c1.259,0,2.701,0.645,4.354,2.299L-6838.921,25326.824z"/>
	<path d="M-7512.048,25323.789c0-0.223-0.204-0.334-0.237-0.377c0.204-0.221,0.187-0.311,0.341-0.555
		c0.17,0.223,0.22,0.334,0.308,0.555c-0.17,0.223-0.187,0.313-0.308,0.377H-7512.048z"/>
	<path d="M232.873,25323.523v-0.465c0.835-0.6,1.758-0.732,2.56-1.354c-0.802,0.598-0.528,0.311-1.994,1.354
		c-0.187,0.221-0.731,0.533-0.561,0.465H232.873z"/>
	<path d="M-2648.475,25319.928c0.17,0,0.357-0.354,0.528-0.555c0,0-0.004,0.355,0,0.555
		C-2648.118,25319.926-2648.305,25319.928-2648.475,25319.928z"/>
	<path d="M-8145.858,25318.975c-0.17-0.221-0.274-0.354-0.391-0.555c0.187-0.223,0.291-0.287,0.391-0.443
		c0.17,0,0.204-0.012,0.308-0.422c0.748-0.004,0.731,0.287-0.308,0.908V25318.975z"/>
	<path d="M-1357.822,25316.293h-0.698c0.391-1.709,0.802-3.551,1.292-4.418c0.374-0.666,0.902-1.133,1.325-1.73
		c-0.561,2.127-1.309,4.145-1.928,6.236L-1357.822,25316.293z"/>
	<path d="M-1286.621,25314.383c-0.424,0,0.818-0.354,1.226-0.555c0.528-0.004,1.072,0,1.6,0
		C-1284.747,25314.051-1285.678,25314.295-1286.621,25314.383z"/>
	<path d="M483.545,25311.914h0.17c0,0,0.274-0.443,0.204-0.443c-0.22,0-0.17,0.443-0.357,0.443H483.545z"/>
	<path d="M-1891.142,25308.619c-0.648-0.645,1.159-0.311,0.968-0.422C-1890.449,25308.197-1890.922,25308.73-1891.142,25308.619z"/>
	<path d="M369.176,25305.414c-1.687-0.777-3.224-1.908-4.82-2.945c0.952,0.287,0.253-0.01,1.729,0.443
		c1.176,0.377,4.242,2.951,3.091,2.426V25305.414z"/>
	<path d="M356.877,25302.859c1.226-0.313,1.687-0.688,1.795-1.043c-0.17,0-0.274,0.266-0.424,0.355
		c-0.44,0.242-1.911,0.82-1.363,0.688H356.877z"/>
	<path d="M-1258.483,25301.906c0,0,0,0.016,0.203,0H-1258.483z"/>
	<path d="M5000.663,25250.533v-0.51h0.357C5001.02,25250.023,5000.542,25250.533,5000.663,25250.533z"/>
	<polygon points="5163.542,25143.455 5163.542,25142.898 5163.745,25142.898 	"/>
	<path d="M5163.882,25142.898v-0.221h0.17c0.495-0.443,0.818-0.223,1.729-0.51c-0.544,0.287-1.242,0.398-1.795,0.645
		L5163.882,25142.898z"/>
	<path d="M5016.157,24187.209c-0.308-1.906-0.648-3.697-0.935-5.5c0.253,0.508,0.17,0.221,0.424,0.73
		c0.237,1.289,0.594,2.961,0.901,4.375c-0.17,0-0.274,0.287-0.39,0.4V24187.209z"/>
	<path d="M5006.879,24105.904v-0.357c0-0.244,0.204-0.623,0.204-0.379c0,0.287,0.017,0.33-0.204,0.73V24105.904z"/>
	<path d="M5016.352,24098.975c-0.527-0.867-0.885-1.777-1.363-2.686c0.17,0,0.374-0.311,0.528-0.311c0-0.221-0.274-0.709-0.17-0.508
		c0.17,0.223,0.17,0.357,0.237,0.553c0.187,0.795,1.226,3.535,0.835,2.945L5016.352,24098.975z"/>
	<path d="M5198.149,24093.602c0.407,0.553-1.105-0.73-1.326-1.354c-0.17-0.357,0.374,0.223,0.698,0.445
		c0.374,0.508,0.22,0.221,0.631,0.73L5198.149,24093.602z"/>
	<path d="M5191.036,24076.752c0-1.195-0.274-4.83-0.17-3.639c0.17,1.219,0.22,2.416,0.274,3.639H5191.036z"/>
	<path d="M5002.566,23978.121v-0.223c0.17-0.221,0.237-0.309,0.391-0.553c0,0.223-0.204,0.488-0.204,0.553
		c0,0.223-0.17,0.223-0.204,0.223H5002.566z"/>
	<path d="M4996.45,23974.396v-0.309c-0.17-0.711-0.254-1.484-0.357-2.254c0.17-0.287,0.274-0.621,0.357-0.908
		c-0.17,0-0.391,0.4-0.424,0.4c0,0,0,0.016,0-0.4c0.204-0.223,0.39-0.332,0.594-0.467v0.379h0.391c0,1.332-0.012,2.459-0.424,3.465
		L4996.45,23974.396z"/>
	<path d="M4996.45,23970.41c0-0.221,0.203-0.309,0.203-0.4c0.004,0.223,0,0.357,0,0.357L4996.45,23970.41z"/>
	<path d="M4996.653,23970.41c0.682-0.623,1.292-1.262,1.995-1.861c0.013,0.221,0,0.33,0,0.508
		C4997.966,23969.545,4997.438,23969.832,4996.653,23970.41z"/>
	<path d="M4995.614,23968.027c-0.44-2.658-0.698-3.639-1.159-6.801c-0.17-0.93-1.346-1.309-1.429-2.252
		c0-0.887,1.105,1.354,1.429,2.129c0.594,1.439,1.309,2.924,1.762,4.461c0,0.846-0.22,1.641-0.274,2.469L4995.614,23968.027z"/>
	<path d="M4961.643,23947.627c0,0-0.004-0.266,0.204-0.309c0,0,1.346-1.377,2.227-2.34c-0.781,0.867-1.55,1.705-2.327,2.6
		L4961.643,23947.627z"/>
	<path d="M4947.449,23942.342c0,0,0.004-0.223,0-0.266c-0.204-1.461,2.431-5.025,1.762-3.813c-0.748,1.377-1.159,2.725-1.762,4.072
		V23942.342z"/>
	<path d="M5176.833,23919.471c-1.022-1.727-1.907-2.908-0.764-5.242C5176.273,23916.006,5176.563,23917.711,5176.833,23919.471z"/>
	<path d="M5475.093,23900.932v-0.467c1.275-0.529,2.543-0.953,3.823-1.354c-0.17,0.223-0.324,0.33-0.357,0.467
		c-1.122,0.379-2.314,0.953-3.457,1.354H5475.093z"/>
	<path d="M5172.662,23847.176l-0.17-0.223c-0.528-1.598-2.032-6.379-1.633-4.809c0.478,1.197,1.159,3.277,1.729,4.939
		L5172.662,23847.176z"/>
	<path d="M5161.09,23776.916c-0.17-0.73,0.22-2.328,0.698-4.549h0.17c0.17,0.33,0.204,0.244,0.324,0.688l-0.308-0.486
		c-0.17,1.176-0.274,2.533-0.308,3.336c-0.17,0.221-0.461,0.844-0.594,0.996L5161.09,23776.916z"/>
	<path d="M29060.125,23669.232c-0.166,0-0.166-0.266-0.166-0.266h0.355c-0.166,0-0.189,0.221-0.207,0.266H29060.125z"/>
	<path d="M4693.761,23659.832c-0.004-0.223,0.017-0.266-0.204-0.266h0.308L4693.761,23659.832z"/>
	<g>
		<path id="_x32__x5F_3g" fill="#0000FF" d="M105071.195,31146.545V37140.5h4000V25152.59h-4000V31146.545z"/>
		<path id="_x31__x5F_3g" fill="#0000FF" d="M99071.195,31140.35v5988.061h4003.508V25152.59h-4003.508V31140.35z"/>
		<path id="_x34__x5F_3f" fill="#0000FF" d="M93071.195,31140.494v5986.885h4000V25153.623h-4000V31140.494z"/>
		<path id="_x33__x5F_3f" fill="#0000FF" d="M87071.195,31140.494v5986.885h4000V25153.623h-4000V31140.494z"/>
		<path id="_x32__x5F_3f" fill="#0000FF" d="M81071.195,31147.057V37140.5h4000V25153.623h-4000V31147.057z"/>
		<path id="_x31__x5F_3f" fill="#0000FF" d="M75071.195,31140.494v5986.885h4000V25153.623h-4000V31140.494z"/>
		<path id="_x34__x5F_3e" fill="#0000FF" d="M69071.195,31154.984v6014.496h4000V25140.5h-4000V31154.984z"/>
		<path id="_x33__x5F_3e" fill="#0000FF" d="M63071.195,31140.494V37140.5h4000v-12000h-4000V31140.494z"/>
		<path id="_x32__x5F_3e" fill="#0000FF" d="M57071.195,31140.494V37140.5h4000v-12000h-4000V31140.494z"/>
		<path id="_x31__x5F_3e" fill="#0000FF" d="M51071.195,31140.494V37140.5h4000v-12000h-4000V31140.494z"/>
		<path id="_x34__x5F_3d" fill="#0000FF" d="M45071.195,31154.984v6014.496h4000V25140.5h-4000V31154.984z"/>
		<path id="_x33__x5F_3d" fill="#0000FF" d="M39071.195,31150.07v5986.883h4000V25163.197h-4000V31150.07z"/>
		<path id="_x32__x5F_3d" fill="#0000FF" d="M33071.195,31140.494v5986.885h4000V25153.623h-4000V31140.494z"/>
		<path id="_x31__x5F_3d" fill="#0000FF" d="M27071.197,31140.494v5986.885h4000V25153.623h-4000V31140.494z"/>
		<path id="_x34__x5F_3c" fill="#0000FF" d="M21071.197,31147.057V37140.5h4000V25153.623h-4000V31147.057z"/>
		<path id="_x33__x5F_3c" fill="#0000FF" d="M15071.196,31140.494V37140.5h3964.575v-12000h-3964.575V31140.494z"/>
		<path id="_x32__x5F_3c" fill="#0000FF" d="M9071.196,31140.494v5986.885h4000V25153.623h-4000V31140.494z"/>
		<path id="_x31__x5F_3c" fill="#0000FF" d="M3071.196,31147.057V37140.5h4000V25153.623h-4000V31147.057z"/>
		<path id="_x34__x5F_3b" fill="#0000FF" d="M-2928.804,31147.057V37140.5h4000V25153.623h-4000V31147.057z"/>
		<path id="_x33__x5F_3b" fill="#0000FF" d="M-8928.804,31140.494v5986.885h4000V25153.623h-4000V31140.494z"/>
		<path id="_x32__x5F_3b" fill="#0000FF" d="M-14928.804,31140.494v5986.885h4000V25153.623h-4000.002L-14928.804,31140.494z"/>
		<path id="_x34__x5F_3g" fill="#0000FF" d="M105072.648,53021.285v6106.094h4000V47140.5h-4000V53021.285z"/>
		<path id="_x33__x5F_3g" fill="#0000FF" d="M99071.195,53140.496v5986.883h4000V47153.621h-4000V53140.496z"/>
		<path id="_x34__x5F_3h" fill="#0000FF" d="M93071.195,53140.496v5986.883h4000V47153.621h-4000V53140.496z"/>
		<path id="_x33__x5F_3h" fill="#0000FF" d="M87071.195,53140.496v5986.883h4000V47153.621h-4000V53140.496z"/>
		<path id="_x32__x5F_3h" fill="#0000FF" d="M81071.195,53140.496v5986.883h4000V47153.621h-4000V53140.496z"/>
		<path id="_x31__x5F_3h" fill="#0000FF" d="M75071.195,53140.496v5986.883h4000V47153.621h-4000V53140.496z"/>
		<path id="_x34__x5F_3i" fill="#0000FF" d="M69071.195,53140.496v5986.883h4000V47153.621h-4000V53140.496z"/>
		<path id="_x33__x5F_3i" fill="#0000FF" d="M63071.195,53140.496v5986.883h4000V47153.621h-4000V53140.496z"/>
		<path id="_x32__x5F_3i" fill="#0000FF" d="M57071.195,53153.609v5986.883h4000V47166.738h-4000V53153.609z"/>
		<path id="_x31__x5F_3i" fill="#0000FF" d="M51071.195,53140.496v5986.883h4000V47153.621h-4000V53140.496z"/>
		<path id="_x34__x5F_3j" fill="#0000FF" d="M45071.195,53140.496v5986.883h4000V47153.621h-4000V53140.496z"/>
		<path id="_x33__x5F_3j" fill="#0000FF" d="M39071.195,53140.496v5986.883h4000V47153.621h-4000V53140.496z"/>
		<path id="_x32__x5F_3j" fill="#0000FF" d="M33071.195,53140.496v5986.883h4000V47153.621h-4000V53140.496z"/>
		<path id="_x31__x5F_3j" fill="#0000FF" d="M27071.197,53140.496v5986.883h4000V47153.621h-4000V53140.496z"/>
		<path id="c1_3b" fill="#0000FF" d="M-14921.24,39140.5h-5992.436v4000h11984.872v-4000H-14921.24z"/>
	</g>
	<g>
		<path id="_x31__x5F_3a" fill="#FF0000" d="M-24928.803,50140.5v1000h2000v-2000h-2000V50140.5z"/>
		<path id="_x34__x5F_3a" fill="#FF0000" d="M-24928.803,34140.5v1000h2000v-2000h-2000V34140.5z"/>
		<path id="_x35__x5F_3k" fill="#FF0000" d="M-20928.803,56140.5v1000h2000v-2000h-2000V56140.5z"/>
		<path id="c1_3a" fill="#FF0000" d="M7071.196,48140.5v1000h2000v-2000h-2000V48140.5z"/>
		<path id="c2_3d" fill="#FF0000" d="M47071.195,42132.754v992.215h2000V41140.5h-2000V42132.754z"/>
	</g>
	<g>
		<path id="_x31__x5F_3b" fill="#00FF00" d="M-20928.803,33140.531V35140.5h4000v-4000h-4000V33140.531z"/>
		<path id="_x32__x5F_3a" fill="#00FF00" d="M-30928.803,43140.531V45140.5h2000v-4000h-2000V43140.531z"/>
		<path id="_x33__x5F_3a" fill="#00FF00" d="M-24928.803,41140.531V43140.5h2000v-4000h-2000V41140.531z"/>
		<path id="c1_3g" fill="#00FF00" d="M101072.953,42140.5v1000h3998.242v-2000h-3998.242V42140.5z"/>
		<path id="c2_3h" fill="#00FF00" d="M95071.195,42140.5v1000h4000v-2000h-4000V42140.5z"/>
		<path id="c1_3h" fill="#00FF00" d="M87071.195,42140.5v1000h3971.664v-2000h-3971.664V42140.5z"/>
		<path id="c3_3e" fill="#00FF00" d="M77071.195,42140.5v1000h4061.25v-2000h-4061.25V42140.5z"/>
		<path id="c2_3e" fill="#00FF00" d="M71071.195,42140.5v1000h4000v-2000h-4000V42140.5z"/>
	</g>
	<g>
		<path id="c1_3e" fill="#FFFF00" d="M61071.195,42134.086v993.586h6006.641V41140.5h-6006.641V42134.086z"/>
		<path id="c1_3j" fill="#FFFF00" d="M51071.195,42140.5v1000h6000v-2000h-6000V42140.5z"/>
		<path id="c1_3d" fill="#FFFF00" d="M39071.195,42140.5v1000h6000v-2000h-6000V42140.5z"/>
		<path id="c2_3b" fill="#FFFF00" d="M9071.196,42140.5v1000h6006.637v-2000H9071.196V42140.5z"/>
		<g>
			<path id="_x34__x5F_3k" fill="#FFFF00" d="M-11926.941,53140.5h-1001.862v5988.813h2003.726V53140.5H-11926.941z"/>
			<path id="_x33__x5F_3k" fill="#FFFF00" d="M-5928.804,53140.5h-1000v6000h2000v-6000H-5928.804z"/>
			<path id="_x32__x5F_3k" fill="#FFFF00" d="M-5928.804,45140.5h-1000v6000h2000v-6000H-5928.804z"/>
			<path id="_x31__x5F_3k" fill="#FFFF00" d="M-11928.209,45140.5h-1001.862v5994.523h2003.725V45140.5H-11928.209z"/>
		</g>
	</g>
	<path id="c3_3b" fill="#008000" d="M29071.197,42134.008v993.492h8022.127v-1987h-8022.127V42134.008z"/>
</g>
<g>
	<path fill="none" d="M-2366.16,261.285c3.379-1.401,6.726-2.911,10.04-4.498c-0.377-0.633-0.616-1.346-0.683-2.085
		C-2359.937,256.876-2363.054,259.073-2366.16,261.285z"/>
	<path fill="none" d="M-2406.374,213.509c2.049-1.168,4.097-2.334,6.143-3.496c-2.064,1.026-4.123,2.064-6.195,3.074
		C-2406.403,213.227-2406.385,213.367-2406.374,213.509z"/>
	<path fill="none" d="M-2246.468,218.042c5.992-3.342,12.011-6.773,17.662-10.649c-5.235,1.823-10.375,3.941-15.412,6.043
		c-1.547,0.646-3.098,1.28-4.647,1.918c0.04,0.017,0.082,0.028,0.122,0.045C-2247.479,215.956-2246.763,216.931-2246.468,218.042z"
		/>
	<path fill="none" d="M-2285.51,235.349c2.192-1.313,4.389-2.618,6.57-3.95c-1.477,0.59-2.95,1.191-4.416,1.805
		c-1.043,0.587-2.084,1.18-3.126,1.77C-2286.156,235.092-2285.831,235.217-2285.51,235.349z"/>
	<path fill="none" d="M-1391.934,234.05c-1.425-0.09-2.56-0.644-3.377-1.451c-2.968,1.562-5.971,3.043-9.003,4.453
		c2.99-0.145,5.981-0.27,8.972-0.372c3.941-0.134,7.883-0.237,11.825-0.333c0.13-0.095,0.25-0.197,0.394-0.281
		c1.09-0.638,2.195-1.244,3.307-1.838C-1383.849,234.345-1387.887,234.304-1391.934,234.05z"/>
	<path fill="none" d="M-1233.081,232.761c-0.349,0.219-0.696,0.44-1.045,0.659c-0.191,0.12-0.384,0.236-0.576,0.355
		c8.892-0.136,17.782-0.283,26.671-0.487c-0.277-0.716-0.538-1.437-0.775-2.164
		C-1216.856,232.298-1224.956,232.723-1233.081,232.761z"/>
	<path fill="none" d="M-4042.892-768.406v2800h14400v-2800H-4042.892z M-1100.6,312.05c-6.449,0-6.449-10,0-10
		S-1094.152,312.05-1100.6,312.05z"/>
	<path fill="none" d="M-1728.81,228.421c1.131-0.371,2.267-0.727,3.406-1.071c2.952-1.759,5.906-3.515,8.863-5.267
		c-5.634,2.024-11.255,4.085-16.875,6.15C-1731.876,228.261-1730.341,228.325-1728.81,228.421z"/>
	<line fill="none" x1="-4042.893" y1="1564.927" x2="10357.107" y2="1564.927"/>
	<line fill="none" x1="-4042.893" y1="1098.261" x2="10357.107" y2="1098.261"/>
	<line fill="none" x1="-4042.893" y1="631.594" x2="10357.107" y2="631.594"/>
	<line fill="none" x1="-4042.893" y1="164.927" x2="10357.107" y2="164.927"/>
	<line fill="none" x1="-4042.893" y1="-301.739" x2="10357.107" y2="-301.739"/>
	<line fill="none" x1="7957.107" y1="-768.406" x2="7957.107" y2="2031.594"/>
	<line fill="none" x1="5557.107" y1="-768.406" x2="5557.107" y2="2031.594"/>
	<line fill="none" x1="3157.107" y1="-768.406" x2="3157.107" y2="2031.594"/>
	<line fill="none" x1="757.107" y1="-768.406" x2="757.107" y2="2031.594"/>
	<path fill="none" d="M-1642.874,271.383c0.274,586.667,0.274,1173.667-0.019,1760.211"/>
	<path fill="none" d="M-1642.893-768.406c0.292,327.456,0.292,655.456,0,982.443"/>
</g>
<text transform="matrix(1 0 0 1 2870.8997 1218.55)" font-family="'MyriadPro-Regular'" font-size="12">2800</text>
<text transform="matrix(1 0 0 1 2870.8997 1218.55)" font-family="'MyriadPro-Regular'" font-size="12">2800</text>
<text transform="matrix(1 0 0 1 2870.8997 1218.55)" font-family="'MyriadPro-Regular'" font-size="12">2800</text>
<text transform="matrix(1 0 0 1 2870.8997 1218.55)" font-family="'MyriadPro-Regular'" font-size="12">2800</text>
<text transform="matrix(1 0 0 1 2870.8997 1218.55)" font-family="'MyriadPro-Regular'" font-size="12">2800</text>
<text transform="matrix(1 0 0 1 2582.8997 1218.55)" font-family="'MyriadPro-Regular'" font-size="12">2800</text>
<text transform="matrix(1 0 0 1 2582.8997 1218.55)" font-family="'MyriadPro-Regular'" font-size="12">2800</text>
<line fill="none" stroke="#000000" stroke-width="20" stroke-miterlimit="10" x1="-2891.021" y1="342.55" x2="-1027.1" y2="342.55"/>
<line fill="none" stroke="#000000" stroke-width="14" stroke-miterlimit="10" x1="-1018.3" y1="352.655" x2="-1016.801" y2="247.66"/>
</svg>
