<?xml version="1.0" encoding="utf-8"?>
<!-- Generator: Adobe Illustrator 17.0.0, SVG Export Plug-In . SVG Version: 6.00 Build 0)  -->
<!DOCTYPE svg PUBLIC "-//W3C//DTD SVG 1.1//EN" "http://www.w3.org/Graphics/SVG/1.1/DTD/svg11.dtd">
<svg version="1.1" id="Calque_1" xmlns="http://www.w3.org/2000/svg" xmlns:xlink="http://www.w3.org/1999/xlink" x="0px" y="0px"
	 width="14000px" height="3744px" viewBox="0 0 14000 3744" enable-background="new 0 0 14000 3744" xml:space="preserve">
<pattern  width="268" height="154" patternUnits="userSpaceOnUse" id="New_Pattern_8" viewBox="0 -154 268 154" overflow="visible">
	<g>
		<polygon fill="none" points="0,-154 268,-154 268,0 0,0 		"/>
		<polygon fill="#D2B885" points="265.715,-62.681 263.966,-59.652 268,-57.323 268,-61.362 		"/>
		<polygon fill="#D2B885" points="263.912,-45.826 268,-43.466 268,-47.505 265.661,-48.856 		"/>
		<polygon fill="#D2B885" points="263.912,-31.97 268,-29.61 268,-33.649 265.661,-34.999 		"/>
		<polygon fill="#D2B885" points="263.912,-18.114 268,-15.753 268,-19.792 265.661,-21.143 		"/>
		<polygon fill="#D2B885" points="263.49,0 268,-2.604 268,-6.643 256.494,0 		"/>
		<polygon fill="#D2B885" points="183.736,-6.822 187.234,-6.822 187.234,-65.323 183.736,-65.323 		"/>
		<polygon fill="#D2B885" points="195.736,-72.323 195.736,0 199.234,0 199.234,-72.323 		"/>
		<polygon fill="#D2B885" points="207.736,-79.073 207.736,0 211.234,0 211.234,-79.073 		"/>
		<polygon fill="#D2B885" points="219.736,-86.197 219.736,0 223.234,0 223.234,-86.197 		"/>
		<polygon fill="#D2B885" points="231.736,-79.073 231.736,0 235.234,0 235.234,-79.073 		"/>
		<polygon fill="#D2B885" points="243.736,-72.323 243.736,0 247.234,0 247.234,-72.323 		"/>
		<polygon fill="#D2B885" points="255.736,-6.822 259.234,-6.822 259.234,-65.323 255.736,-65.323 		"/>
		<polygon fill="#D2B885" points="165.96,-3.44 171.918,0 178.914,0 167.709,-6.469 		"/>
		<polygon fill="#D2B885" points="73.736,-2.073 73.736,0 77.234,0 77.234,-2.073 		"/>
		<polygon fill="#D2B885" points="85.736,-9.197 85.736,0 89.234,0 89.234,-9.197 		"/>
		<polygon fill="#D2B885" points="97.736,-2.073 97.736,0 101.234,0 101.234,-2.073 		"/>
		<polygon fill="#D2B885" points="31.96,-80.44 82.515,-51.252 84.264,-54.281 33.709,-83.469 		"/>
		<polygon fill="#D2B885" points="19.836,-73.583 82.515,-37.396 84.264,-40.425 21.585,-76.613 		"/>
		<polygon fill="#D2B885" points="7.928,-66.602 82.515,-23.539 84.264,-26.569 9.677,-69.632 		"/>
		<polygon fill="#D2B885" points="84.264,-12.712 0,-61.362 0,-57.323 82.515,-9.683 		"/>
		<polygon fill="#D2B885" points="72.464,-5.668 0,-47.505 0,-43.466 70.715,-2.639 		"/>
		<polygon fill="#D2B885" points="0,-29.61 51.286,0 58.282,0 0,-33.649 		"/>
		<polygon fill="#D2B885" points="0,-15.753 27.285,0 34.281,0 0,-19.792 		"/>
		<polygon fill="#D2B885" points="3.045,-8.401 0,-6.643 0,-2.604 4.794,-5.372 		"/>
		<polygon fill="#D2B885" points="12.495,0 16.019,0 15.138,-1.526 		"/>
		<polygon fill="#D2B885" points="222.36,-130.253 263.49,-154 256.494,-154 220.611,-133.282 		"/>
		<polygon fill="#D2B885" points="222.36,-116.397 268,-142.747 268,-146.786 220.611,-119.426 		"/>
		<polygon fill="#D2B885" points="222.36,-102.54 268,-128.891 268,-132.93 220.611,-105.569 		"/>
		<polygon fill="#D2B885" points="222.36,-88.684 268,-115.034 268,-119.073 220.611,-91.713 		"/>
		<polygon fill="#D2B885" points="234.159,-81.64 268,-101.178 268,-105.217 232.41,-84.669 		"/>
		<polygon fill="#D2B885" points="246.067,-74.658 268,-87.321 268,-91.36 244.318,-77.688 		"/>
		<polygon fill="#D2B885" points="258.191,-67.802 268,-73.465 268,-77.504 256.442,-70.831 		"/>
		<polygon fill="#D2B885" points="199.234,-153.822 199.234,-154 195.736,-154 195.736,-153.822 		"/>
		<polygon fill="#D2B885" points="211.234,-147.071 211.234,-154 207.736,-154 207.736,-147.071 		"/>
		<polygon fill="#D2B885" points="223.234,-140.197 223.234,-154 219.736,-154 219.736,-140.197 		"/>
		<polygon fill="#D2B885" points="235.234,-147.071 235.234,-154 231.736,-154 231.736,-147.071 		"/>
		<polygon fill="#D2B885" points="247.234,-153.822 247.234,-154 243.736,-154 243.736,-153.822 		"/>
		<polygon fill="#D2B885" points="218.264,-131.281 178.914,-154 171.918,-154 216.515,-128.252 		"/>
		<polygon fill="#D2B885" points="153.836,-150.583 216.515,-114.396 218.264,-117.425 155.585,-153.613 		"/>
		<polygon fill="#D2B885" points="141.928,-143.602 216.515,-100.539 218.264,-103.568 143.677,-146.632 		"/>
		<polygon fill="#D2B885" points="129.966,-136.652 216.515,-86.683 218.264,-89.712 131.715,-139.681 		"/>
		<polygon fill="#D2B885" points="129.912,-122.826 204.715,-79.639 206.464,-82.668 131.661,-125.856 		"/>
		<polygon fill="#D2B885" points="129.912,-108.97 192.655,-72.745 194.404,-75.775 131.661,-111.999 		"/>
		<polygon fill="#D2B885" points="129.912,-95.114 180.563,-65.87 182.313,-68.899 131.661,-98.143 		"/>
		<polygon fill="#D2B885" points="138.794,-82.372 137.045,-85.401 86.611,-56.282 88.36,-53.253 		"/>
		<polygon fill="#D2B885" points="150.887,-75.497 149.138,-78.526 86.611,-42.426 88.36,-39.397 		"/>
		<polygon fill="#D2B885" points="162.947,-68.603 161.198,-71.632 86.611,-28.569 88.36,-25.54 		"/>
		<polygon fill="#D2B885" points="173.159,-64.682 86.611,-14.713 88.36,-11.684 174.908,-61.653 		"/>
		<polygon fill="#D2B885" points="98.41,-7.669 100.159,-4.64 174.962,-47.827 173.213,-50.857 		"/>
		<polygon fill="#D2B885" points="173.213,-37 110.318,-0.688 110.715,0 116.123,0 174.962,-33.971 		"/>
		<polygon fill="#D2B885" points="173.213,-23.144 133.126,0 140.122,0 174.962,-20.115 		"/>
		<polygon fill="#D2B885" points="53.234,-142.323 49.736,-142.323 49.736,-83.822 53.234,-83.822 		"/>
		<polygon fill="#D2B885" points="65.234,-149.323 61.736,-149.323 61.736,-76.822 65.234,-76.822 		"/>
		<polygon fill="#D2B885" points="77.234,-70.071 77.234,-154 73.736,-154 73.736,-70.071 		"/>
		<polygon fill="#D2B885" points="89.234,-63.197 89.234,-154 85.736,-154 85.736,-63.197 		"/>
		<polygon fill="#D2B885" points="101.234,-70.071 101.234,-154 97.736,-154 97.736,-70.071 		"/>
		<polygon fill="#D2B885" points="113.234,-149.323 109.736,-149.323 109.736,-76.822 113.234,-76.822 		"/>
		<polygon fill="#D2B885" points="125.234,-142.323 121.736,-142.323 121.736,-83.822 125.234,-83.822 		"/>
		<polygon fill="#D2B885" points="60.404,-152.775 58.282,-154 51.286,-154 58.655,-149.745 		"/>
		<polygon fill="#D2B885" points="48.313,-145.899 34.281,-154 27.285,-154 46.563,-142.87 		"/>
		<polygon fill="#D2B885" points="16.019,-154 12.495,-154 0,-146.786 0,-142.747 16.887,-152.497 		"/>
		<polygon fill="#D2B885" points="27.198,-148.632 0,-132.93 0,-128.891 28.947,-145.603 		"/>
		<polygon fill="#D2B885" points="39.159,-141.682 0,-119.073 0,-115.034 40.908,-138.652 		"/>
		<polygon fill="#D2B885" points="39.213,-127.857 0,-105.217 0,-101.178 40.962,-124.827 		"/>
		<polygon fill="#D2B885" points="39.213,-114 0,-91.36 0,-87.321 40.962,-110.971 		"/>
		<polygon fill="#D2B885" points="39.213,-100.144 0,-77.504 0,-73.465 40.962,-97.115 		"/>
		<polygon fill="#D2B885" points="116.123,-154 110.715,-154 112.067,-151.658 		"/>
		<polygon fill="#D2B885" points="124.191,-144.802 140.122,-154 133.126,-154 122.442,-147.831 		"/>
	</g>
</pattern>
<rect fill="url(#New_Pattern_8)" stroke="#000000" stroke-miterlimit="10" width="14000" height="3744"/>
</svg>
